<svg width="381" height="260" viewBox="0 0 381 260" fill="none" xmlns="http://www.w3.org/2000/svg">
<path d="M368.287 198.139H128.85C122.387 198.139 117.101 192.853 117.101 186.39V11.7487C117.101 5.28639 122.387 0 128.85 0H368.287C374.749 0 380.036 5.28639 380.036 11.7487V186.39C380.038 192.85 374.749 198.139 368.287 198.139Z" fill="#8F8DFF"/>
<path d="M360.944 181.611H135.061C128.599 181.611 123.312 176.325 123.312 169.862V20.3643C123.312 13.902 128.599 8.6156 135.061 8.6156H360.944C367.406 8.6156 372.693 13.902 372.693 20.3643V169.862C372.693 176.325 367.406 181.611 360.944 181.611Z" fill="#E3E5FC"/>
<path d="M262.457 189.1H244.016C243.567 189.1 243.201 188.732 243.201 188.285C243.201 187.835 243.569 187.47 244.016 187.47H262.457C262.907 187.47 263.272 187.838 263.272 188.285C263.272 188.734 262.907 189.1 262.457 189.1Z" fill="#E3E5FC"/>
<path d="M131.131 6.65567C132.144 6.65567 132.965 5.83437 132.965 4.82124C132.965 3.80812 132.144 2.98682 131.131 2.98682C130.118 2.98682 129.297 3.80812 129.297 4.82124C129.297 5.83437 130.118 6.65567 131.131 6.65567Z" fill="#E3E5FC"/>
<path d="M139.028 6.65567C140.041 6.65567 140.862 5.83437 140.862 4.82124C140.862 3.80812 140.041 2.98682 139.028 2.98682C138.015 2.98682 137.193 3.80812 137.193 4.82124C137.193 5.83437 138.015 6.65567 139.028 6.65567Z" fill="white"/>
<path d="M146.998 6.65567C148.011 6.65567 148.832 5.83437 148.832 4.82124C148.832 3.80812 148.011 2.98682 146.998 2.98682C145.985 2.98682 145.163 3.80812 145.163 4.82124C145.163 5.83437 145.985 6.65567 146.998 6.65567Z" fill="#333333"/>
<path d="M192.059 106.619H147.345C146.146 106.619 145.163 105.636 145.163 104.437C145.163 103.238 146.146 102.255 147.345 102.255H192.059C193.258 102.255 194.241 103.238 194.241 104.437C194.241 105.636 193.258 106.619 192.059 106.619Z" fill="white"/>
<path d="M192.059 116.609H147.345C146.146 116.609 145.163 115.627 145.163 114.427C145.163 113.228 146.146 112.245 147.345 112.245H192.059C193.258 112.245 194.241 113.228 194.241 114.427C194.241 115.627 193.258 116.609 192.059 116.609Z" fill="white"/>
<path d="M192.059 126.596H147.345C146.146 126.596 145.163 125.614 145.163 124.415C145.163 123.215 146.146 122.233 147.345 122.233H192.059C193.258 122.233 194.241 123.215 194.241 124.415C194.241 125.617 193.258 126.596 192.059 126.596Z" fill="white"/>
<path d="M192.059 137.859H147.345C146.146 137.859 145.163 136.877 145.163 135.677C145.163 134.478 146.146 133.495 147.345 133.495H192.059C193.258 133.495 194.241 134.478 194.241 135.677C194.241 136.877 193.258 137.859 192.059 137.859Z" fill="white"/>
<path d="M192.059 147.846H147.345C146.146 147.846 145.163 146.864 145.163 145.665C145.163 144.465 146.146 143.483 147.345 143.483H192.059C193.258 143.483 194.241 144.465 194.241 145.665C194.241 146.867 193.258 147.846 192.059 147.846Z" fill="white"/>
<path d="M192.059 157.837H147.345C146.146 157.837 145.163 156.854 145.163 155.655C145.163 154.455 146.146 153.473 147.345 153.473H192.059C193.258 153.473 194.241 154.455 194.241 155.655C194.241 156.854 193.258 157.837 192.059 157.837Z" fill="white"/>
<path d="M258.968 106.619H214.255C213.056 106.619 212.073 105.636 212.073 104.437C212.073 103.238 213.056 102.255 214.255 102.255H258.968C260.168 102.255 261.15 103.238 261.15 104.437C261.15 105.636 260.168 106.619 258.968 106.619Z" fill="white"/>
<path d="M258.968 116.609H214.255C213.056 116.609 212.073 115.627 212.073 114.427C212.073 113.228 213.056 112.245 214.255 112.245H258.968C260.168 112.245 261.15 113.228 261.15 114.427C261.15 115.627 260.168 116.609 258.968 116.609Z" fill="white"/>
<path d="M258.968 126.596H214.255C213.056 126.596 212.073 125.614 212.073 124.415C212.073 123.215 213.056 122.233 214.255 122.233H258.968C260.168 122.233 261.15 123.215 261.15 124.415C261.15 125.617 260.168 126.596 258.968 126.596Z" fill="white"/>
<path d="M258.968 137.859H214.255C213.056 137.859 212.073 136.877 212.073 135.677C212.073 134.478 213.056 133.495 214.255 133.495H258.968C260.168 133.495 261.15 134.478 261.15 135.677C261.15 136.877 260.168 137.859 258.968 137.859Z" fill="white"/>
<path d="M258.968 147.846H214.255C213.056 147.846 212.073 146.864 212.073 145.665C212.073 144.465 213.056 143.483 214.255 143.483H258.968C260.168 143.483 261.15 144.465 261.15 145.665C261.15 146.867 260.168 147.846 258.968 147.846Z" fill="white"/>
<path d="M258.968 157.837H214.255C213.056 157.837 212.073 156.854 212.073 155.655C212.073 154.455 213.056 153.473 214.255 153.473H258.968C260.168 153.473 261.15 154.455 261.15 155.655C261.15 156.854 260.168 157.837 258.968 157.837Z" fill="white"/>
<path d="M318.945 63.1779C313.797 61.8897 312.509 46.446 307.361 46.446C296.052 47.4729 292.132 62.4593 285.764 73.6958C286.597 78.3263 290.661 81.8724 295.524 81.8724H340.841C346.3 81.8724 350.766 77.4065 350.766 71.9476V39.4558C349.192 39.5812 347.585 40.1457 345.976 41.2955C336.966 49.0199 330.529 65.7519 318.945 63.1779Z" fill="#8F8DFF"/>
<path d="M340.922 26.0896H295.605C290.146 26.0896 285.68 30.5555 285.68 36.0143V71.9477C285.68 72.5435 285.743 73.1262 285.845 73.6959C292.21 62.4567 296.133 47.473 307.442 46.446C312.59 46.446 313.878 61.8923 319.026 63.178C330.61 65.7519 337.047 49.0199 346.057 41.2955C347.666 40.1457 349.274 39.5787 350.847 39.4558V36.0143C350.847 30.5555 346.381 26.0896 340.922 26.0896Z" fill="white"/>
<path d="M324.699 49.182C327.854 49.182 330.412 46.6245 330.412 43.4697C330.412 40.3148 327.854 37.7573 324.699 37.7573C321.545 37.7573 318.987 40.3148 318.987 43.4697C318.987 46.6245 321.545 49.182 324.699 49.182Z" fill="#8F8DFF"/>
<path d="M156.915 83.0144H249.399C255.862 83.0144 261.148 77.728 261.148 71.2657V37.8435C261.148 31.3812 255.862 26.0948 249.399 26.0948H156.915C150.453 26.0948 145.166 31.3812 145.166 37.8435V71.2657C145.164 77.7254 150.453 83.0144 156.915 83.0144Z" fill="white"/>
<path d="M297.431 125.758H339.014C345.477 125.758 350.763 120.471 350.763 114.009C350.763 107.547 345.477 102.26 339.014 102.26H297.431C290.969 102.26 285.683 107.547 285.683 114.009C285.683 120.469 290.969 125.758 297.431 125.758Z" fill="white"/>
<path d="M297.431 155.234H339.014C345.477 155.234 350.763 149.947 350.763 143.485C350.763 137.023 345.477 131.736 339.014 131.736H297.431C290.969 131.736 285.683 137.023 285.683 143.485C285.683 149.947 290.969 155.234 297.431 155.234Z" fill="white"/>
<path d="M253.238 257.946C301.001 257.946 339.72 255.306 339.72 252.048C339.72 248.791 301.001 246.15 253.238 246.15C205.475 246.15 166.756 248.791 166.756 252.048C166.756 255.306 205.475 257.946 253.238 257.946Z" fill="#E3E5FC"/>
<path d="M152.488 235.868H108.425C105.956 235.868 103.938 233.848 103.938 231.381V229.69C103.938 227.221 105.958 225.203 108.425 225.203H152.488C154.958 225.203 156.975 227.223 156.975 229.69V231.381C156.975 233.848 154.955 235.868 152.488 235.868Z" fill="#8F8DFF"/>
<path d="M152.488 247.462H108.425C105.956 247.462 103.938 245.442 103.938 242.975V241.285C103.938 238.815 105.958 236.798 108.425 236.798H152.488C154.958 236.798 156.975 238.818 156.975 241.285V242.975C156.975 245.445 154.955 247.462 152.488 247.462Z" fill="#8F8DFF"/>
<path d="M152.488 259.174H108.425C105.956 259.174 103.938 257.154 103.938 254.687V252.997C103.938 250.527 105.958 248.51 108.425 248.51H152.488C154.958 248.51 156.975 250.53 156.975 252.997V254.687C156.975 257.154 154.955 259.174 152.488 259.174Z" fill="#8F8DFF"/>
<path d="M108.263 231.673C108.939 231.673 109.486 231.126 109.486 230.45C109.486 229.775 108.939 229.228 108.263 229.228C107.588 229.228 107.04 229.775 107.04 230.45C107.04 231.126 107.588 231.673 108.263 231.673Z" fill="white"/>
<path d="M152.324 231.673C152.999 231.673 153.546 231.126 153.546 230.45C153.546 229.775 152.999 229.228 152.324 229.228C151.648 229.228 151.101 229.775 151.101 230.45C151.101 231.126 151.648 231.673 152.324 231.673Z" fill="white"/>
<path d="M108.509 242.853C109.184 242.853 109.732 242.305 109.732 241.63C109.732 240.954 109.184 240.407 108.509 240.407C107.834 240.407 107.286 240.954 107.286 241.63C107.286 242.305 107.834 242.853 108.509 242.853Z" fill="white"/>
<path d="M152.569 242.853C153.245 242.853 153.792 242.305 153.792 241.63C153.792 240.954 153.245 240.407 152.569 240.407C151.894 240.407 151.346 240.954 151.346 241.63C151.346 242.305 151.894 242.853 152.569 242.853Z" fill="white"/>
<path d="M108.509 254.998C109.184 254.998 109.732 254.451 109.732 253.775C109.732 253.1 109.184 252.552 108.509 252.552C107.834 252.552 107.286 253.1 107.286 253.775C107.286 254.451 107.834 254.998 108.509 254.998Z" fill="white"/>
<path d="M152.569 254.998C153.245 254.998 153.792 254.451 153.792 253.775C153.792 253.1 153.245 252.552 152.569 252.552C151.894 252.552 151.346 253.1 151.346 253.775C151.346 254.451 151.894 254.998 152.569 254.998Z" fill="white"/>
<path d="M184.037 38.9176C184.188 38.8131 184.337 38.7085 184.489 38.6066C189.245 35.3742 194.936 32.6957 200.578 33.8011C210.523 35.7478 215.094 46.7361 221.439 53.3578C225.991 58.1085 233.038 61.6676 239.859 60.9621C245.574 60.3715 246.577 54.1836 245.208 49.5243C244.701 47.8049 243.917 46.1586 242.495 45.0141C241.186 43.9583 237.954 42.5028 236.252 43.4279C239.184 41.8365 242.997 42.6283 245.613 44.6979C254.458 51.6985 252.227 66.6718 242.746 71.9347C235.403 76.0086 226.438 72.4233 220.647 67.265C214.103 61.4351 212.073 52.391 205.982 46.2056C204.351 44.5515 202.519 43.0986 200.05 43.3051C195.161 43.7153 194.359 48.8972 191.076 51.4816C190.23 52.1479 189.114 52.5582 188.066 52.31C187.295 52.127 186.65 51.6201 185.97 51.2098C182.884 49.3362 174.099 49.6655 178.559 43.8486C180.065 41.8887 182.009 40.3261 184.037 38.9176Z" fill="#2AF3CE"/>
<path d="M131.222 93.3781C128.925 95.9364 125.954 98.999 124.616 102.273C124.509 102.537 124.418 102.848 124.548 103.102C126.273 106.42 151.984 82.3402 154.715 79.8394C160.461 74.5739 165.813 70.534 170.793 64.4924C171.75 63.3321 172.73 62.0805 172.97 60.5648C173.111 59.6241 168.721 61.5787 167.869 62.0125C161.349 65.326 153.695 71.1402 148.37 76.066C142.425 81.5667 136.655 87.3287 131.222 93.3781Z" fill="#333333"/>
<path d="M181.544 50.7316C181.395 49.5008 181.097 48.3014 180.626 47.1725C179.511 44.4888 177.478 41.9305 174.488 41.3478C179.338 44.4025 174.692 50.3553 171.201 52.7672C170.338 53.363 169.398 53.8752 168.366 54.2933C165.75 55.3516 162.28 56.1695 161.613 59.3628C170.176 59.5901 176.56 56.0702 181.544 50.7316Z" fill="#2AF3CE"/>
<path d="M161.613 59.3602C161.608 59.389 161.598 59.4151 161.592 59.4438C160.62 64.5604 163.923 69.7057 169.562 68.7675C177.415 67.4584 182.482 58.443 181.544 50.729C176.56 56.0703 170.177 59.5902 161.613 59.3602Z" fill="#8F8DFF"/>
<path d="M28.4213 241.355C26.8717 239.631 25.3508 237.898 24.8805 235.643C24.6374 234.475 25.0425 232.876 26.2315 232.808C26.8299 232.774 27.3551 233.168 27.8856 233.448C29.9265 234.53 29.9395 232.097 29.3777 230.809C28.3899 228.538 26.8795 226.272 27.214 223.818C27.2349 223.664 27.2689 223.502 27.376 223.387C27.5354 223.217 27.802 223.217 28.0319 223.246C29.6024 223.453 31.22 225.493 32.8375 224.827C36.7886 223.202 33.3706 214.126 33.1014 211.325C33.0492 210.789 33.0047 210.217 33.2634 209.747C33.7652 208.832 35.1371 208.814 36.036 209.339C37.4157 210.146 38.1997 211.714 39.7048 212.352C40.8912 212.854 42.2422 212.279 43.115 211.432C45.7412 208.887 46.3527 204.729 48.4223 201.777C50.1156 199.359 54.8245 195.683 57.4612 198.954C58.6684 200.452 57.9472 202.636 57.4533 204.494C56.9934 206.216 56.6171 208.241 56.7922 210.021C56.9228 211.325 57.4794 212.647 58.5482 213.405C60.6257 214.876 64.5297 214.923 62.3817 218.425C61.7232 219.496 60.7015 220.291 59.9149 221.273C59.1283 222.256 58.5796 223.612 59.0891 224.762C60.0168 226.86 66.2387 227.634 63.8555 230.929C63.2597 231.755 62.3111 232.235 61.4305 232.745C57.1711 235.207 60.9941 237.368 60.171 240.752C59.8757 241.969 58.9533 242.96 57.8871 243.613C56.1729 244.663 54.0928 245.063 52.2584 245.863C48.532 247.491 45.2003 249.913 42.0854 252.5C39.8015 254.397 36.2189 258.633 32.8506 256.587C30.7731 255.325 32.0692 251.782 32.26 249.937C32.6337 246.349 30.7052 243.895 28.4213 241.355Z" fill="#2AF3CE"/>
<path d="M34.3348 259.224C34.2773 259.224 34.2198 259.214 34.1623 259.193C33.9088 259.099 33.7808 258.816 33.8775 258.563L49.5171 216.977C49.6112 216.724 49.8961 216.596 50.1469 216.692C50.4004 216.786 50.5284 217.069 50.4317 217.322L34.7921 258.908C34.7189 259.101 34.5308 259.224 34.3348 259.224Z" fill="white"/>
<path d="M45.4093 230.474C45.2499 230.474 45.0957 230.398 45.0016 230.257C44.8527 230.033 44.9128 229.729 45.1375 229.578L52.747 224.506C52.9717 224.354 53.2775 224.417 53.4264 224.642C53.5754 224.866 53.5153 225.169 53.2905 225.321L45.6811 230.393C45.5948 230.445 45.5008 230.474 45.4093 230.474Z" fill="white"/>
<path d="M39.8929 245.61C39.7335 245.61 39.5794 245.534 39.4853 245.393C39.3363 245.168 39.3964 244.865 39.6212 244.713L47.2307 239.641C47.4554 239.49 47.7585 239.552 47.9101 239.777C48.0616 240.002 47.9989 240.305 47.7742 240.456L40.1647 245.529C40.0811 245.583 39.987 245.61 39.8929 245.61Z" fill="white"/>
<path d="M41.7143 238.173C41.5523 238.173 41.3955 238.094 41.3014 237.948L36.4593 230.391C36.313 230.163 36.3783 229.86 36.6082 229.714C36.8356 229.567 37.1387 229.635 37.285 229.863L42.1272 237.42C42.2735 237.647 42.2082 237.95 41.9783 238.097C41.8946 238.146 41.8058 238.173 41.7143 238.173Z" fill="white"/>
<path d="M24.3735 257.157C17.8066 257.902 11.4541 257.167 8.83047 250.381C7.88713 247.938 6.50477 246.976 4.04842 246.284C2.85421 245.947 1.60251 245.56 0.753242 244.653C-0.0934168 243.746 -0.331213 242.147 0.588614 241.313C1.32291 240.647 2.43872 240.712 3.42388 240.814C5.05709 240.987 6.69292 241.157 8.32613 241.329C8.55871 241.353 8.80434 241.376 9.01339 241.274C9.70849 240.937 9.27209 239.881 8.7573 239.307C6.83403 237.156 4.85327 235.055 2.82024 233.011C2.06765 232.256 1.2811 231.462 0.972746 230.44C0.664395 229.418 1.02762 228.107 2.02846 227.736C3.41604 227.218 5.04141 228.723 6.3506 228.033C7.28872 227.54 7.40369 226.23 7.15806 225.201C6.91242 224.171 6.42899 223.142 6.61452 222.099C6.79222 221.103 7.63104 220.262 8.62665 220.084C9.61964 219.904 10.7015 220.4 11.2137 221.271C11.7781 222.227 11.7415 223.594 12.6692 224.205C13.4479 224.717 14.5114 224.393 15.2849 223.876C16.061 223.359 16.7352 222.653 17.6185 222.352C19.1158 221.84 20.9424 222.836 21.3265 224.37C21.708 225.899 20.8274 227.66 21.6192 229.024C22.3561 230.294 24.1383 230.466 25.5781 230.176C27.018 229.886 28.4656 229.288 29.9081 229.573C30.4046 229.669 30.9246 229.915 31.1258 230.377C31.3453 230.884 31.118 231.47 30.8462 231.951C30.0231 233.396 28.774 234.566 27.99 236.032C27.2061 237.498 27.0206 239.518 28.2252 240.663C28.8576 241.266 29.7409 241.502 30.5405 241.86C31.3375 242.218 32.1449 242.819 32.2573 243.686C32.4481 245.152 30.6947 245.999 29.7905 247.167C28.6146 248.683 28.9046 250.812 28.8602 252.73C28.7322 258.189 23.3935 258.072 19.3353 257.073" fill="#978CFF"/>
<path d="M25.2907 258.265C25.0921 258.265 24.9065 258.145 24.8334 257.949L15.7736 233.866C15.6769 233.613 15.805 233.33 16.0584 233.236C16.3093 233.142 16.5941 233.27 16.6882 233.521L25.7454 257.601C25.842 257.855 25.714 258.137 25.4605 258.231C25.4056 258.254 25.3455 258.265 25.2907 258.265Z" fill="white"/>
<path d="M18.8755 241.614C18.7814 241.614 18.6873 241.588 18.6037 241.533L14.198 238.596C13.9732 238.447 13.9131 238.141 14.0621 237.916C14.211 237.692 14.5141 237.629 14.7415 237.781L19.1473 240.718C19.372 240.867 19.4321 241.172 19.2831 241.397C19.1891 241.538 19.0349 241.614 18.8755 241.614Z" fill="white"/>
<path d="M22.0687 250.381C21.9746 250.381 21.8806 250.355 21.797 250.3L17.3912 247.363C17.1665 247.214 17.1064 246.908 17.2553 246.683C17.4043 246.459 17.7074 246.396 17.9347 246.548L22.3405 249.485C22.5652 249.634 22.6253 249.939 22.4764 250.164C22.3823 250.303 22.2281 250.381 22.0687 250.381Z" fill="white"/>
<path d="M21.0156 246.075C20.9241 246.075 20.8326 246.049 20.7516 245.996C20.5243 245.85 20.4563 245.547 20.6027 245.319L23.4066 240.942C23.5503 240.715 23.8534 240.647 24.0834 240.793C24.3107 240.94 24.3787 241.243 24.2323 241.47L21.4284 245.847C21.3344 245.994 21.1776 246.075 21.0156 246.075Z" fill="white"/>
<path d="M85.4505 235.201L87.115 250.951L81.907 252.048L81.1466 235.512C81.1466 235.512 83.9035 234.506 85.4505 235.201Z" fill="#EAC2AB"/>
<path d="M107.009 259.302C107.009 259.302 103.108 260.167 95.843 259.898C88.5784 259.629 80.5091 258.999 79.1685 257.768C77.8254 256.535 77.9011 247.342 80.3026 247.611C82.7041 247.878 83.2502 251.458 87.8311 248.829C91.756 246.576 94.0948 251.91 100.262 253.951C106.426 255.991 108.924 256.809 107.009 259.302Z" fill="#2AF3CE"/>
<path d="M99.1931 239.555C98.9501 238.988 98.3125 238.564 97.7585 238.123C92.6968 234.088 93.9328 227.934 94.7429 222.556C96.6636 209.799 94.607 196.94 93.8388 184.18C93.0914 171.725 94.3379 159.227 97.1836 147.086C98.2184 142.675 99.6452 135.855 92.8222 137.146C89.5898 137.757 86.3991 137.637 83.1771 137.072C81.4812 136.775 83.2111 136.223 81.4812 136.775C75.5886 138.656 73.3857 149.793 74.5956 153.674C77.0049 161.401 77.7888 168.817 78.1808 176.999C78.7348 188.601 80.6659 200.216 79.2888 211.73C78.6146 217.372 77.8306 222.998 77.078 228.629C76.639 231.914 73.8926 239.111 75.7349 242.084C78.2644 246.166 89.5349 242.706 93.3004 242.615C96.1305 242.542 100.019 241.481 99.1931 239.555Z" fill="#333333"/>
<path d="M117.668 201.189L114.198 216.857L108.841 216.235L113.432 200.101C113.432 200.104 116.406 200.02 117.668 201.189Z" fill="#EAC2AB"/>
<path d="M135.053 224.461C135.053 224.461 131.107 225.373 123.746 225.169C116.382 224.965 108.201 224.404 106.829 223.168C105.457 221.932 105.446 212.616 107.882 212.864C110.317 213.112 110.905 216.734 115.52 214.027C119.474 211.709 121.896 217.089 128.165 219.099C134.434 221.108 136.971 221.919 135.053 224.461Z" fill="#2AF3CE"/>
<path d="M137.112 151.732C133.655 146.506 121.839 146.563 110.997 147.899L97.5415 147.104L95.7097 142.003C95.7097 142.003 74.3028 148.542 74.2793 148.549C74.9561 148.44 74.849 157.066 75.2409 157.816C78.3062 163.687 87.021 168.543 94.0112 168.634C102.316 168.744 110.15 166.35 117.911 163.787C132.004 159.135 112.24 188.51 107.756 197.812C103.272 207.115 108.201 206.624 119.39 206.135C130.582 205.647 125.296 206.381 127.203 198.609C129.114 190.835 143.951 162.072 137.112 151.732Z" fill="#474448"/>
<path d="M94.8108 81.8254C94.8108 81.8254 93.2038 93.6002 93.2011 93.6002C90.358 94.4364 87.3791 96.033 84.3844 96.0278C84.5203 93.8432 86.6578 91.345 87.6404 89.2833C88.832 86.7825 89.6708 84.1929 89.5401 81.389C89.1952 74.0617 94.8108 81.8254 94.8108 81.8254Z" fill="#D4A79A"/>
<path d="M108.992 57.2174C109.481 57.3794 110.95 62.9297 108.339 66.5202C105.729 70.1107 107.244 69.622 104.691 72.0679C102.138 74.5164 100.343 75.0469 100.343 75.0469L97.4056 76.147L97.7323 70.108L100.649 60.4786L109.847 57.2174" fill="black"/>
<path d="M102.062 58.5108C102.057 58.5239 106.685 61.6623 104.231 69.1698C101.608 77.2052 97.8212 83.9341 95.3936 83.2364C88.6778 81.3105 86.6813 76.2906 84.6535 71.9554C82.1684 66.6403 88.9496 54.727 88.9496 54.727L94.6358 52.2393L102.062 58.5108Z" fill="#EAC2AB"/>
<path d="M112.525 56.6921C113.281 54.8185 112.437 51.296 111.135 49.9946C110.633 49.4929 109.978 49.1453 109.293 49.1558C108.778 49.1636 108.255 49.3701 107.756 49.2446C106.256 48.8657 106.259 47.5879 104.885 47.0156C103.86 46.5897 102.77 47.4599 101.676 47.6245C100.85 47.7473 100.029 47.4599 99.2271 47.2221C96.9719 46.5505 94.9363 45.2753 92.6054 44.7971C90.6403 44.3947 88.5524 44.4469 86.6761 45.2622C84.7189 46.1141 83.2242 47.8518 82.3305 49.9293C81.7974 51.1705 81.5439 52.5816 81.7791 53.9169C81.5857 52.8194 79.5553 53.815 79.2078 54.2122C77.8411 55.7723 74.397 60.3374 74.8908 62.3234C75.2828 63.8965 74.0677 65.3207 74.4126 66.9147C74.8229 68.8119 79.7853 69.9068 80.6737 71.6315C81.6929 73.6096 83.948 74.7594 85.9993 74.404C85.5211 72.6506 85.0481 70.858 85.0847 69.0183C85.1213 67.1787 83.381 58.7173 92.5322 57.6746C96.1697 57.2592 100.238 60.6014 103.813 61.0404C105.512 61.2494 107.244 61.0587 108.896 60.5413C110.171 60.1415 111.525 58.4011 112.314 57.1102C112.397 56.9769 112.468 56.8384 112.525 56.6921Z" fill="#333333"/>
<path d="M151.317 82.3558C151.095 82.2617 150.863 82.4577 150.701 82.638C149.227 84.2686 147.751 85.8966 146.277 87.5272C145.989 87.846 145.689 88.1727 145.302 88.3582C144.915 88.5437 144.414 88.5516 144.092 88.2667C143.705 87.9244 143.718 87.326 143.763 86.8086C143.828 86.0273 145.124 84.4777 143.886 84.1354C142.127 84.9899 140.444 88.6169 139.924 90.4409C139.232 92.3798 140.8 93.757 139.741 95.4294C137.776 98.5364 135.863 101.667 133.741 104.669C132.628 106.243 131.484 107.792 130.334 109.334C129.814 110.032 127.645 113.87 126.887 113.949C124.368 117.351 121.933 120.884 119.22 124.137C118.185 125.379 110.278 118.221 110.278 118.221C103.345 112.862 102.172 108.634 102.172 108.634L96.1069 110.191C96.1069 110.191 98.2602 115.679 102.486 119.295C107.095 123.238 112.988 129.466 116.218 131.893C119.45 134.321 119.675 133.142 120.895 131.972C123.464 129.497 125.351 125.71 127.329 122.771C130.742 117.696 134.118 112.593 137.382 107.418C138.962 104.912 140.632 102.237 142.077 99.566C143.462 97.0077 144.617 95.5992 147.155 94.1123C149.29 92.8607 150.484 90.9008 150.865 88.4314C151.137 86.6701 150.986 84.854 151.472 83.1241C151.55 82.8497 151.581 82.4656 151.317 82.3558Z" fill="#EAC2AB"/>
<path d="M97.2594 116.457C96.5172 109.355 99.9483 98.0503 95.8091 92.2857C95.3857 91.6952 94.9284 91.1046 94.3117 90.7179C86.5246 85.8313 81.1363 93.4251 78.6486 100.107C76.4901 105.9 76.7566 111.231 76.5972 117.275C76.3281 127.461 73.958 137.37 70.9319 147.052C69.8527 150.507 69.5653 154.528 72.62 155.053C76.7462 155.762 77.6347 150.679 81.5701 149.367C85.1657 148.168 88.0716 148.905 92.0017 149.119C93.9511 149.226 100.317 147.943 99.9274 144.319C99.0076 135.727 97.6252 128.318 97.5808 122.334C97.5677 120.393 97.4658 118.425 97.2594 116.457Z" fill="#E0E0E0"/>
<path d="M103.635 107.693C103.635 107.693 95.208 90.399 89.8328 95.7403C84.4602 101.082 96.9797 118.522 96.9797 118.522L105.668 109.624L103.635 107.693Z" fill="#F2F2F2"/>
<path d="M103.215 57.7348C105.224 56.585 105.807 53.9875 106.011 51.6801C106.233 49.1741 106.191 45.7875 104.08 44.021C103.264 43.3389 102.266 42.9156 101.247 42.6099C96.2532 41.1073 90.2143 41.5254 85.359 43.3677C80.4071 45.2465 76.7357 49.5347 74.9796 54.4579C74.0964 56.9325 73.66 59.5692 73.6783 62.1954C73.6966 64.9706 74.9326 67.8581 72.7794 70.1524C73.5529 70.155 74.3263 70.0583 75.0763 69.865C72.3351 70.5705 67.9189 70.7221 67.8065 74.647C67.7621 76.2097 68.7786 77.5711 69.6357 78.8803C70.4929 80.1895 71.2507 81.8175 70.6549 83.2652C69.9049 85.0918 67.2996 85.8104 66.9625 87.7598C66.5627 90.075 68.7499 91.136 69.6305 92.939C70.7411 95.2125 69.6776 97.857 69.4215 100.214C69.1941 102.305 71.1226 103.266 72.3822 104.515C76.0327 108.132 75.9831 112.245 71.9928 116.24C71.9118 116.321 71.9432 116.478 72.0006 116.578C72.0607 116.682 72.1914 116.726 72.309 116.758C77.47 118.106 84.1701 113.123 85.359 108.15C85.8947 105.911 84.5281 103.815 85.1265 101.664C85.6047 99.9449 87.3555 98.9728 88.8659 98.0268C92.3727 95.8318 91.6776 90.2397 91.2308 86.1266C90.8414 82.5387 91.7717 81.8541 89.7282 78.8803C88.6647 77.3333 87.8311 75.64 87.1255 73.8997C86.1874 71.5844 85.0951 73.134 85.1761 70.6385C85.265 67.8999 86.6212 65.3599 88.8397 63.7554C89.9895 62.9245 91.3484 62.3417 92.7464 62.0909C94.228 61.8243 95.7384 61.5735 96.8908 60.5308C97.9675 59.5561 99.4543 57.348 101.122 57.497C103.202 57.6825 105.587 57.1625 106.667 55.3777" fill="#333333"/>
</svg>
