<svg width="205" height="181" viewBox="0 0 205 181" fill="none" xmlns="http://www.w3.org/2000/svg">
<path fill-rule="evenodd" clip-rule="evenodd" d="M114.428 25.0826L43.4443 47.6999L26.985 119.977L55.6335 146.07L71.5384 73.2875L142.522 50.6702L114.428 25.0826Z" fill="#2AF3CE"/>
<path fill-rule="evenodd" clip-rule="evenodd" d="M142.501 50.6769L71.5383 73.2875L43.4443 47.6999L114.407 25.0892L142.501 50.6769Z" fill="#99F5E4"/>
<path fill-rule="evenodd" clip-rule="evenodd" d="M70.7827 72.3933L62.9937 108.564L118.225 158.562L189.14 135.728L196.929 99.5576L126.014 122.391L70.7827 72.3933Z" fill="#8F8DFF"/>
<path d="M141.592 50.049L196.858 99.798L189.069 135.969L107.009 61.0144L141.592 50.049Z" fill="#8F8DFF"/>
<path fill-rule="evenodd" clip-rule="evenodd" d="M126.014 122.391L70.7827 72.3933L62.9937 108.564L118.225 158.562L126.014 122.391Z" fill="#ABAAFF"/>
<path d="M134.455 86.6311L26.9977 119.963L55.4614 145.888L126.248 123.116L134.455 86.6311Z" fill="#2AF3CE"/>
</svg>
