<svg width="581" height="566" viewBox="0 0 581 566" fill="none" xmlns="http://www.w3.org/2000/svg">
<path d="M300.34 565.34C453.321 565.34 577.337 560.508 577.337 554.547C577.337 548.587 453.321 543.755 300.34 543.755C147.359 543.755 23.343 548.587 23.343 554.547C23.343 560.508 147.359 565.34 300.34 565.34Z" fill="#E3E5FC"/>
<path d="M554.167 437.28H25.92C11.6628 437.28 0 425.617 0 411.36V26.065C0 11.8079 11.6628 0.14502 25.92 0.14502H554.167C568.424 0.14502 580.087 11.8079 580.087 26.065V411.36C580.087 425.617 568.424 437.28 554.167 437.28Z" fill="#A7ADFF"/>
<path d="M537.961 400.82H39.618C25.3608 400.82 13.698 389.157 13.698 374.9V45.0775C13.698 30.8203 25.3608 19.1575 39.618 19.1575H537.961C552.218 19.1575 563.881 30.8203 563.881 45.0775V374.9C563.887 389.152 552.224 400.82 537.961 400.82Z" fill="#E3E5FC"/>
<path d="M320.685 417.343H280.001C279.009 417.343 278.202 416.53 278.202 415.544V415.544C278.202 414.553 279.015 413.746 280.001 413.746H320.685C321.677 413.746 322.484 414.558 322.484 415.544V415.544C322.484 416.53 321.671 417.343 320.685 417.343Z" fill="#E3E5FC"/>
<path d="M30.947 14.8279C33.1822 14.8279 34.9941 13.0159 34.9941 10.7808C34.9941 8.5456 33.1822 6.73364 30.947 6.73364C28.7119 6.73364 26.8999 8.5456 26.8999 10.7808C26.8999 13.0159 28.7119 14.8279 30.947 14.8279Z" fill="#E3E5FC"/>
<path d="M48.375 14.8279C50.6102 14.8279 52.4221 13.0159 52.4221 10.7808C52.4221 8.5456 50.6102 6.73364 48.375 6.73364C46.1398 6.73364 44.3279 8.5456 44.3279 10.7808C44.3279 13.0159 46.1398 14.8279 48.375 14.8279Z" fill="white"/>
<path d="M65.9587 14.8279C68.1939 14.8279 70.0059 13.0159 70.0059 10.7808C70.0059 8.5456 68.1939 6.73364 65.9587 6.73364C63.7236 6.73364 61.9116 8.5456 61.9116 10.7808C61.9116 13.0159 63.7236 14.8279 65.9587 14.8279Z" fill="#333333"/>
<path d="M487.245 240.25H388.598C385.952 240.25 383.784 238.082 383.784 235.436V235.436C383.784 232.79 385.952 230.622 388.598 230.622H487.245C489.892 230.622 492.059 232.79 492.059 235.436V235.436C492.053 238.082 489.892 240.25 487.245 240.25Z" fill="#A7ADFF"/>
<path d="M487.245 262.284H388.598C385.952 262.284 383.784 260.117 383.784 257.47V257.47C383.784 254.824 385.952 252.657 388.598 252.657H487.245C489.892 252.657 492.059 254.824 492.059 257.47V257.47C492.053 260.122 489.892 262.284 487.245 262.284Z" fill="#A7ADFF"/>
<path d="M487.245 284.324H388.598C385.952 284.324 383.784 282.157 383.784 279.511V279.511C383.784 276.864 385.952 274.697 388.598 274.697H487.245C489.892 274.697 492.059 276.864 492.059 279.511V279.511C492.053 282.157 489.892 284.324 487.245 284.324Z" fill="#A7ADFF"/>
<path d="M487.245 309.166H388.598C385.952 309.166 383.784 306.999 383.784 304.352V304.352C383.784 301.706 385.952 299.539 388.598 299.539H487.245C489.892 299.539 492.059 301.706 492.059 304.352V304.352C492.053 307.004 489.892 309.166 487.245 309.166Z" fill="#A7ADFF"/>
<path d="M487.245 331.206H388.598C385.952 331.206 383.784 329.039 383.784 326.392V326.392C383.784 323.746 385.952 321.579 388.598 321.579H487.245C489.892 321.579 492.059 323.746 492.059 326.392V326.392C492.053 329.039 489.892 331.206 487.245 331.206Z" fill="#A7ADFF"/>
<path d="M487.245 353.247H388.598C385.952 353.247 383.784 351.079 383.784 348.433V348.433C383.784 345.786 385.952 343.619 388.598 343.619H487.245C489.892 343.619 492.059 345.786 492.059 348.433V348.433C492.053 351.079 489.892 353.247 487.245 353.247Z" fill="#A7ADFF"/>
<path d="M87.8375 183.291H291.877C306.134 183.291 317.797 171.628 317.797 157.371V83.6347C317.797 69.3775 306.134 57.7147 291.877 57.7147H87.8375C73.5803 57.7147 61.9175 69.3775 61.9175 83.6347V157.371C61.9117 171.628 73.5746 183.291 87.8375 183.291Z" fill="white"/>
<path d="M67.4749 353.31V353.31C64.8114 353.31 62.6265 351.131 62.6265 348.461V236.981C62.6265 234.318 64.8057 232.133 67.4749 232.133V232.133C70.1384 232.133 72.3234 234.312 72.3234 236.981V348.461C72.3234 351.131 70.1384 353.31 67.4749 353.31Z" fill="#2AF3CE"/>
<path d="M90.691 353.31V353.31C88.0275 353.31 85.8425 351.131 85.8425 348.461V298.714C85.8425 296.051 88.0217 293.866 90.691 293.866V293.866C93.3545 293.866 95.5395 296.045 95.5395 298.714V348.461C95.5395 351.131 93.3545 353.31 90.691 353.31Z" fill="#2AF3CE"/>
<path d="M113.907 353.31V353.31C111.244 353.31 109.059 351.131 109.059 348.461V251.267C109.059 248.604 111.238 246.419 113.907 246.419V246.419C116.571 246.419 118.756 248.598 118.756 251.267V348.461C118.75 351.131 116.571 353.31 113.907 353.31Z" fill="#2AF3CE"/>
<path d="M137.118 353.31V353.31C134.454 353.31 132.269 351.131 132.269 348.461V312.747C132.269 310.083 134.449 307.898 137.118 307.898V307.898C139.781 307.898 141.966 310.077 141.966 312.747V348.461C141.966 351.131 139.787 353.31 137.118 353.31Z" fill="#2AF3CE"/>
<path d="M160.334 353.31V353.31C157.67 353.31 155.485 351.131 155.485 348.461V288.256C155.485 285.593 157.665 283.408 160.334 283.408V283.408C162.997 283.408 165.182 285.587 165.182 288.256V348.461C165.182 351.131 163.003 353.31 160.334 353.31Z" fill="#2AF3CE"/>
<path d="M183.55 353.31V353.31C180.887 353.31 178.702 351.131 178.702 348.462V330.624C178.702 327.961 180.881 325.776 183.55 325.776V325.776C186.214 325.776 188.399 327.955 188.399 330.624V348.462C188.399 351.131 186.214 353.31 183.55 353.31Z" fill="#2AF3CE"/>
<path d="M95.1246 145.247C108.817 164.093 135.192 168.272 154.033 154.58L104.453 86.3385C85.6122 100.025 81.4325 126.4 95.1246 145.247Z" fill="#A7ADFF"/>
<path d="M108.892 83.1101L131.606 114.374L163.476 91.2216C150.551 74.1511 126.297 70.4672 108.892 83.1101Z" fill="#A7ADFF"/>
<path d="M178.281 88.5523C178.073 88.2641 177.831 88.0104 177.618 87.7279L134.823 118.813L166.566 162.507C190.226 145.316 195.467 112.207 178.281 88.5523Z" fill="#2AF3CE"/>
<path d="M214.111 90.2069V90.2069C214.111 87.3877 216.417 85.0759 219.242 85.0759H288.049C290.868 85.0759 293.18 87.382 293.18 90.2069V90.2069C293.18 93.026 290.874 95.3378 288.049 95.3378H219.242C216.417 95.3378 214.111 93.026 214.111 90.2069Z" fill="#2AF3CE"/>
<path d="M214.111 114.778V114.778C214.111 111.959 216.417 109.647 219.242 109.647H242.574C245.393 109.647 247.704 111.953 247.704 114.778V114.778C247.704 117.597 245.398 119.909 242.574 119.909H219.242C216.417 119.909 214.111 117.597 214.111 114.778Z" fill="#A7ADFF"/>
<path fill-rule="evenodd" clip-rule="evenodd" d="M197.623 276.236C197.623 301.747 218.377 322.501 243.888 322.501C269.399 322.501 290.153 301.747 290.153 276.236C290.153 250.725 269.399 229.971 243.888 229.971C218.377 229.971 197.623 250.725 197.623 276.236ZM201.941 276.236C201.941 253.112 220.758 234.295 243.888 234.295C267.018 234.295 285.829 253.106 285.829 276.236C285.829 299.366 267.018 318.183 243.888 318.183C220.758 318.183 201.941 299.366 201.941 276.236Z" fill="#978CFF"/>
<path fill-rule="evenodd" clip-rule="evenodd" d="M212.745 276.236C212.745 293.41 226.714 307.379 243.888 307.379C261.062 307.379 275.031 293.41 275.031 276.236C275.031 259.062 261.062 245.093 243.888 245.093C226.714 245.093 212.745 259.062 212.745 276.236ZM217.063 276.236C217.063 261.448 229.1 249.417 243.888 249.417C258.681 249.417 270.707 261.448 270.707 276.236C270.707 291.029 258.675 303.061 243.888 303.061C229.095 303.061 217.063 291.023 217.063 276.236Z" fill="#978CFF"/>
<path fill-rule="evenodd" clip-rule="evenodd" d="M226.028 276.236C226.028 286.083 234.041 294.096 243.888 294.096C253.735 294.096 261.748 286.083 261.748 276.236C261.748 266.389 253.741 258.376 243.888 258.376C234.035 258.376 226.028 266.389 226.028 276.236ZM230.351 276.236C230.351 268.77 236.422 262.699 243.888 262.699C251.354 262.699 257.424 268.77 257.424 276.236C257.424 283.702 251.354 289.772 243.888 289.772C236.422 289.772 230.351 283.702 230.351 276.236Z" fill="#978CFF"/>
<path d="M241.553 280.116L242.049 269.122C242.106 267.928 243.104 267.012 244.303 267.058C245.496 267.11 246.419 268.124 246.367 269.312L246.228 272.356L317.866 230.271C318.898 229.665 320.218 230.011 320.823 231.037C321.429 232.064 321.083 233.39 320.057 233.995L241.553 280.116Z" fill="#2AF3CE"/>
<path d="M251.267 280.537H243.888C242.694 280.537 241.726 279.568 241.726 278.375C241.726 277.181 242.694 276.213 243.888 276.213H251.267C252.46 276.213 253.429 277.181 253.429 278.375C253.429 279.568 252.46 280.537 251.267 280.537Z" fill="#2AF3CE"/>
<path d="M375.085 184.023C374.733 184.023 374.376 183.936 374.047 183.758C372.998 183.181 372.617 181.872 373.194 180.823L390.928 148.533L405.092 162.086L414.536 147.109L422.82 152.124L442.635 102.959L456.442 127.455L469.437 108.211L480.396 121.656L502.563 80.8328C503.267 79.5357 504.195 78.1175 505.175 76.6128C505.982 75.3733 506.841 74.0588 507.591 72.779C506.755 73.1422 505.901 73.5399 505.089 73.9204C503.584 74.6238 502.166 75.2868 500.886 75.7192C499.762 76.0997 498.534 75.4886 498.147 74.3586C497.767 73.2286 498.378 72.0007 499.508 71.6202C500.557 71.2685 501.866 70.6574 503.255 70.0059C506.011 68.7203 508.853 67.3886 511.372 67.1925L514.445 66.9562L513.621 69.9252C512.82 72.802 510.773 75.9382 508.79 78.9765C507.856 80.4062 506.974 81.7553 506.357 82.8967L481.117 129.381L469.76 115.447L456.108 135.665L443.275 112.904L424.919 158.443L415.919 152.995L405.923 168.855L392.006 155.537L376.982 182.899C376.59 183.619 375.852 184.023 375.085 184.023Z" fill="#474448"/>
<path d="M512.802 82.303C511.609 82.303 510.64 81.3344 510.64 80.1411V69.3372C510.64 68.1438 511.609 67.1753 512.802 67.1753C513.996 67.1753 514.964 68.1438 514.964 69.3372V80.1411C514.964 81.3344 513.996 82.303 512.802 82.303Z" fill="#474448"/>
<path d="M372.929 196.62V196.62C371.741 196.62 370.767 195.645 370.767 194.458V56.5674C370.767 55.3798 371.741 54.4055 372.929 54.4055V54.4055C374.116 54.4055 375.091 55.3798 375.091 56.5674V194.463C375.091 195.651 374.116 196.62 372.929 196.62Z" fill="#A7ADFF"/>
<path d="M359.79 184.023V184.023C359.79 182.835 360.764 181.861 361.952 181.861H499.848C501.036 181.861 502.01 182.835 502.01 184.023V184.023C502.01 185.21 501.036 186.185 499.848 186.185H361.946C360.759 186.179 359.79 185.21 359.79 184.023Z" fill="#A7ADFF"/>
<path d="M452.949 88.3564H412.806C408.845 88.3564 405.605 85.1164 405.605 81.1557V81.1557C405.605 77.1951 408.845 73.9551 412.806 73.9551H452.949C456.909 73.9551 460.149 77.1951 460.149 81.1557V81.1557C460.149 85.1164 456.909 88.3564 452.949 88.3564Z" fill="#2AF3CE"/>
<rect x="480.218" y="119.909" width="1.62" height="2.16192" fill="#333333"/>
<path fill-rule="evenodd" clip-rule="evenodd" d="M480.218 91.4464H481.838V87.382H480.218V91.4464ZM481.838 99.5752H480.218V95.5108H481.838V99.5752ZM480.218 107.71H481.838V103.645H480.218V107.71ZM480.218 115.844H481.838V111.78H480.218V115.844Z" fill="#333333"/>
<path d="M481.838 83.3118H480.218V81.9628H478.869V80.3428H481.838V83.3118Z" fill="#333333"/>
<rect x="467.828" y="80.3428" width="5.52299" height="1.62" fill="#333333"/>
<rect x="460.149" y="80.3428" width="2.16192" height="1.62" fill="#333333"/>
<path d="M482.028 131.716H480.033C477.335 131.716 475.127 129.508 475.127 126.81V124.815C475.127 122.117 477.335 119.909 480.033 119.909H482.028C484.726 119.909 486.934 122.117 486.934 124.815V126.81C486.934 129.508 484.726 131.716 482.028 131.716Z" fill="#2AF3CE"/>
<path d="M373.646 227.945C373.646 227.945 380.039 258.344 379.497 270.768C378.956 283.192 368.157 301.727 368.157 301.727L361.182 227.951H373.646V227.945Z" fill="#9E7251"/>
<path d="M335.486 172.202L336.893 198.387L357.388 206.291C357.388 206.291 345.062 188.258 347.155 172.202C349.236 156.146 335.486 172.202 335.486 172.202Z" fill="#D4A79A"/>
<path d="M317.171 118.627C317.171 118.627 312.709 124.542 317.061 142.673C321.414 160.81 328.482 176.295 333.947 175.2C349.058 172.179 354.362 161.502 359.602 152.335C366.025 141.093 353.272 113.674 353.272 113.674L341.223 107.171L317.171 118.627Z" fill="#9E7251"/>
<path d="M301.08 113.744C299.76 109.489 302.078 104.047 305.173 101.418C306.367 100.403 307.872 99.7573 309.376 99.9072C310.506 100.017 311.613 100.564 312.737 100.38C316.104 99.8207 316.508 94.857 319.632 93.8481C321.962 93.0986 324.198 95.2086 326.574 95.7679C328.367 96.1887 330.223 95.7044 332.027 95.3297C337.106 94.2632 341.817 91.8245 347.023 91.1961C351.416 90.6657 355.999 91.1615 359.971 93.2946C364.122 95.52 367.097 99.6132 368.682 104.341C369.628 107.166 369.933 110.313 369.172 113.207C369.795 110.826 374.078 113.386 374.776 114.32C377.497 117.998 377.964 125.971 376.517 130.249C375.37 133.639 373.484 136.637 372.435 140.073C371.19 144.172 370.671 148.721 368.4 152.353C365.8 156.521 351.796 170.201 347.351 169.048C348.723 165.278 342.036 161.853 342.284 157.801C342.531 153.748 345.062 132.653 325.127 128.704C317.2 127.136 327.369 124.565 319.431 124.882C315.66 125.032 311.884 124.299 308.35 122.864C305.617 121.757 302.96 117.681 301.455 114.701C301.305 114.389 301.184 114.072 301.08 113.744Z" fill="#333333"/>
<path d="M341.038 141.082C341.038 141.082 349.323 133.985 348.717 143.584C348.112 153.183 340.358 155.967 340.358 155.967L341.038 141.082Z" fill="#9E7251"/>
<path d="M363.188 503.662L358.092 538.23L369.472 541.124L372.648 504.74C372.643 504.74 366.659 502.267 363.188 503.662Z" fill="#D4A79A"/>
<path d="M313.481 554.839C313.481 554.839 322.002 557.099 338.04 557.162C354.079 557.226 371.922 556.569 374.989 553.974C378.062 551.38 378.731 531.104 373.409 531.479C368.088 531.853 366.56 539.694 356.708 533.485C348.262 528.164 342.624 539.706 328.845 543.649C315.066 547.592 309.486 549.172 313.481 554.839Z" fill="#05D9B2"/>
<path d="M334.829 514.322C335.268 512.927 336.599 511.802 337.741 510.661C348.199 500.186 344.446 485.6 341.753 472.807C335.377 442.459 337.735 411.259 337.274 380.49C336.824 350.46 331.97 320.631 323.662 291.915C320.647 281.48 316.352 265.32 331.589 267.367C338.807 268.335 345.806 267.557 352.805 265.701C356.489 264.726 352.586 263.666 356.489 264.726C369.778 268.335 377.376 306.622 375.364 316.128C371.363 335.055 370.008 341.114 370.527 360.825C371.265 388.78 368.97 416.978 373.94 444.414C376.379 457.858 379.048 471.256 381.654 484.66C383.176 492.478 390.428 509.346 386.877 516.766C382 526.959 356.61 520.392 348.308 520.75C342.076 521.027 333.336 519.078 334.829 514.322Z" fill="#333333"/>
<path d="M337.406 504.855L329.906 538.979L341.056 542.657L346.769 506.585C346.769 506.591 340.969 503.708 337.406 504.855Z" fill="#9E7251"/>
<path d="M284.246 552.429C284.246 552.429 292.588 555.277 308.581 556.465C324.573 557.652 342.422 558.246 345.662 555.871C348.908 553.496 350.995 533.324 345.662 533.324C340.329 533.324 338.26 541.037 328.857 534.154C320.803 528.256 314.369 539.377 300.348 542.34C286.333 545.304 280.654 546.491 284.246 552.429Z" fill="#2AF3CE"/>
<path d="M308.373 514.414C308.909 513.163 310.316 512.229 311.538 511.255C322.705 502.353 319.978 488.777 318.191 476.912C313.954 448.767 318.491 420.396 320.186 392.245C321.835 364.769 319.085 337.194 312.807 310.409C310.524 300.678 307.376 285.631 322.429 288.479C329.56 289.828 336.599 289.563 343.708 288.317C347.449 287.66 343.633 286.444 347.449 287.66C360.45 291.811 365.506 305.676 362.836 314.232C357.521 331.279 355.59 358.346 354.731 376.397C353.508 401.994 349.248 427.62 352.286 453.021C353.774 465.468 355.503 477.88 357.163 490.304C358.132 497.551 364.191 513.428 360.127 519.989C354.546 528.994 329.681 521.361 321.374 521.159C315.136 521.004 306.557 518.663 308.373 514.414Z" fill="#474448"/>
<path d="M293.868 222.341C288.483 226.411 282.753 230.015 276.757 233.11C272.093 235.514 259.444 243.626 254.544 238.662C253.114 237.209 252.492 235.163 251.979 233.191C248.94 221.551 244.53 210.332 240.218 199.119C236.361 189.105 231.732 178.544 232.089 167.59C232.458 156.405 231.789 141.318 230.723 138.58C229.656 135.841 220.91 119.722 220.749 124.738C220.588 129.753 229.016 143.543 225.171 143.03C221.325 142.517 213.11 145.723 214.079 151.551C215.047 157.374 221.199 169.936 221.199 169.936C223.891 181.253 226.727 192.547 229.673 203.801C231.876 212.218 234.136 220.635 236.655 228.965C239.105 237.065 241.377 245.857 248.502 251.23C249.43 251.934 250.416 252.556 251.466 253.058C259.906 257.093 269.827 252.868 278.037 248.382C295.649 238.76 312.345 227.657 329.168 216.743C325.876 213.509 322.584 210.281 319.298 207.046C318.508 206.274 317.643 205.455 316.554 205.294C315.28 205.098 314.063 205.836 313.008 206.579C307.756 210.263 303.161 214.777 298.232 218.888C296.802 220.07 295.344 221.223 293.868 222.341Z" fill="#9E7251"/>
<path d="M351.041 231.306C351.041 231.306 333.728 202.255 346.942 196.825C360.155 191.394 373.646 227.951 373.646 227.951L351.894 236.529L351.041 231.306Z" fill="#F2F2F2"/>
<path d="M311.025 294.301C311.025 293.102 309.025 261.901 313.423 241.902C317.822 221.903 313.423 204.7 328.626 192.703C343.829 180.705 356.224 196.704 360.225 205.103C364.226 213.503 367.581 240.173 368.146 254.303C368.722 268.745 376.315 299.259 376.621 299.905C382.651 312.444 378.685 311.522 378.16 312.715C374.903 320.141 353.716 321.582 348.625 318.953C337.464 313.188 335.094 310.052 323.063 311.902C317.862 312.704 312.115 311.101 310.57 309.504C309.025 307.907 311.025 294.301 311.025 294.301Z" fill="#E0E0E0"/>
<path d="M302.544 208.741C302.544 208.741 330.626 178.803 341.39 192.391C352.159 205.98 314.04 233.981 314.04 233.981L296.739 211.485L302.544 208.741Z" fill="#F2F2F2"/>
</svg>
