<svg width="546" height="428" viewBox="0 0 546 428" fill="none" xmlns="http://www.w3.org/2000/svg">
<path d="M499.108 148.875C499.743 149.926 499.88 151.202 499.914 152.434C500.237 163.67 492.856 174.722 482.358 178.725C479.889 179.668 477.186 180.308 475.261 182.112C473.335 183.92 472.709 187.469 474.826 189.043C476.228 190.084 478.169 189.849 479.894 189.566C486.194 188.524 492.5 187.483 498.8 186.442C500.061 192.195 496.688 198.613 491.234 200.832C488.951 201.76 486.409 202.019 484.23 203.173C482.05 204.326 480.27 206.917 481.219 209.195C482.079 211.267 484.919 212.504 484.718 214.742C484.528 216.907 481.791 217.582 479.752 218.32C469.21 222.123 469.605 237.436 462.489 246.092C457.87 251.708 450.451 254.01 443.466 256.038C437.439 257.788 431.129 259.553 424.971 258.355C414.868 256.395 407.4 245.535 409.188 235.403C410.972 225.285 419.966 218.325 427.85 211.741C444.37 197.948 457.591 185.132 461.428 163.846C462.709 156.745 464.776 151.95 471.194 147.971C477.641 143.973 494.073 140.542 499.108 148.875Z" fill="#F2F2F2"/>
<path d="M403.773 226.399C408.582 220.143 413.397 213.887 418.206 207.631C432.429 189.14 446.853 170.293 455.045 148.45C458.285 139.813 460.524 130.61 459.771 121.421C459.62 119.529 459.253 117.486 457.846 116.216C455.451 114.055 451.668 115.326 448.808 116.807C440.22 121.255 432.17 126.734 424.888 133.098C424.658 112.931 444.268 97.6667 447.767 77.803C448.334 74.582 448.407 71.0531 446.682 68.2769C445.573 66.4929 443.808 65.183 441.902 64.3032C435.416 61.3021 427.527 63.0861 421.569 67.0354C415.616 70.9847 411.192 76.8011 406.896 82.5099C412.888 74.89 416.657 65.5398 417.625 55.8914C418.025 51.8933 417.815 47.465 415.161 44.4444C410.664 39.3318 401.857 41.4384 397.057 46.2773C387.805 55.603 388.201 70.4519 388.518 83.5852C388.836 96.7185 387.335 112.037 376.328 119.212C375.009 120.072 373.523 120.844 372.755 122.223C371.26 124.906 373.366 128.313 376.015 129.872C378.665 131.431 381.842 131.944 384.437 133.587C390.258 137.267 391.422 145.283 390.786 152.14C390.151 158.998 388.337 166.065 390.42 172.634C393.005 180.802 393.553 191.232 395.454 199.585C396.314 203.378 403.372 202.567 403.514 206.453C403.66 210.338 404.706 214.542 407.815 216.878C410.928 219.21 416.442 218.266 417.39 214.493" fill="#474448"/>
<path d="M515.672 357.649C524.363 356.896 533.361 355.753 540.732 351.09C543.469 349.36 546.157 345.997 544.529 343.196C543.884 342.087 542.706 341.417 541.562 340.84C529.768 334.868 515.843 333.215 502.979 336.27C497.861 337.482 492.416 339.398 487.524 337.473C498.575 331.251 509.626 325.033 520.677 318.811C522.838 317.594 525.086 316.299 526.43 314.217C527.774 312.135 527.867 309.016 525.951 307.438C525.11 306.744 524.016 306.441 522.94 306.245C516.288 305.023 509.084 307.399 504.455 312.33C511.405 303.366 516.039 292.618 517.779 281.406C518.028 279.793 518.189 278.033 517.344 276.64C516.576 275.379 515.13 274.705 513.717 274.284C508.781 272.823 503.184 273.796 499.025 276.836C494.176 280.384 491.615 286.161 488.321 291.186C485.021 296.206 479.923 301.01 473.936 300.531C480.271 291.03 483.472 279.48 482.929 268.072C482.739 264.074 482.03 259.919 479.65 256.703C476.683 252.7 471.429 250.779 466.458 251.097C461.487 251.415 456.805 253.736 452.909 256.84C441.252 266.141 436.447 283.146 441.521 297.169C442.782 300.658 444.61 304.412 443.324 307.897C442.42 310.341 440.177 312.003 437.987 313.42C423.29 322.946 405.029 338.48 423.866 355.259C428.964 359.8 434.253 359.99 440.788 359.81C451.374 359.516 461.937 359.594 472.533 359.502C486.918 359.384 501.322 358.896 515.672 357.649Z" fill="#2AF3CE"/>
<path d="M389.354 219.42C389.281 219.42 389.207 219.41 389.129 219.39C388.636 219.268 388.342 218.77 388.464 218.276C417.219 104.48 417.781 103.928 418.02 103.688C418.382 103.332 418.959 103.336 419.316 103.698C419.604 103.991 419.658 104.431 419.472 104.773C418.416 107.594 399.916 180.44 390.239 218.726C390.136 219.141 389.76 219.42 389.354 219.42Z" fill="white"/>
<path d="M401.725 170.621C401.378 170.621 401.05 170.425 400.894 170.093C400.679 169.633 400.879 169.091 401.339 168.876L436.887 152.35C437.342 152.14 437.894 152.336 438.104 152.795C438.319 153.255 438.119 153.797 437.659 154.012L402.111 170.538C401.989 170.596 401.857 170.621 401.725 170.621Z" fill="white"/>
<path d="M449.688 226.135C449.571 226.135 449.453 226.111 449.336 226.067C448.867 225.871 448.647 225.339 448.842 224.869L471.834 169.36C472.03 168.89 472.567 168.671 473.032 168.866C473.501 169.062 473.721 169.594 473.525 170.064L450.533 225.573C450.387 225.92 450.05 226.135 449.688 226.135Z" fill="white"/>
<path d="M449.688 355.689C449.458 355.689 449.229 355.606 449.053 355.435C448.686 355.083 448.676 354.506 449.028 354.14L487.587 314.021C487.939 313.655 488.521 313.65 488.883 313.997C489.249 314.349 489.259 314.926 488.907 315.292L450.348 355.411C450.172 355.596 449.927 355.689 449.688 355.689Z" fill="white"/>
<path d="M498.321 349.452C498.247 349.452 498.169 349.443 498.091 349.423L464.517 340.674C464.029 340.547 463.735 340.048 463.862 339.555C463.989 339.066 464.488 338.773 464.977 338.9L498.551 347.649C499.039 347.776 499.333 348.275 499.205 348.768C499.098 349.179 498.731 349.452 498.321 349.452Z" fill="white"/>
<path d="M36.0355 341.246C35.2876 340.582 34.5056 339.804 34.4079 338.807C34.2906 337.595 35.2437 336.535 36.2701 335.875C38.9388 334.149 42.2917 334.012 45.3661 333.201C48.4405 332.39 51.6908 330.308 51.9059 327.14C52.3409 320.703 41.2849 315.249 37.189 311.866C34.2075 309.403 31.1429 306.832 29.4419 303.362C27.741 299.891 27.7899 295.248 30.6101 292.604C34.1048 289.324 48.939 292.169 52.8199 289.349C57.8444 285.697 24.7009 276.215 52.2773 272.325C46.2019 256.068 64.1496 261.547 68.1869 265.624C70.7773 268.238 77.6983 276.606 80.9682 274.91C82.4785 274.128 90.0398 276.073 91.0907 274.729C95.387 269.24 86.2958 274.539 92.3028 271.068C99.1896 284.3 89.0916 302.428 88.202 316.187C87.7573 323.093 96.037 323.91 96.2912 331.412C96.4427 335.84 94.6098 340.063 92.816 344.115C90.4651 349.423 87.7279 355.142 82.503 357.679C78.1089 359.815 72.8937 359.189 68.1429 358.045C56.2755 355.186 45.1413 349.36 36.0355 341.246Z" fill="#474448"/>
<path d="M86.3153 366.007C85.934 366.007 85.5821 365.768 85.4502 365.392L59.8092 290.937C59.643 290.458 59.8972 289.94 60.3762 289.774C60.8552 289.608 61.3733 289.862 61.5395 290.341L87.1804 364.795C87.3466 365.274 87.0924 365.792 86.6134 365.959C86.5157 365.993 86.413 366.007 86.3153 366.007Z" fill="white"/>
<path d="M68.9053 315.444C68.788 315.444 68.6658 315.42 68.5485 315.371C46.8666 306.221 46.8813 305.742 46.9155 304.95C46.9301 304.569 47.2038 304.207 47.5704 304.09C47.9859 303.953 48.4307 304.129 48.6457 304.491C50.3613 305.576 62.0332 310.635 69.2621 313.689C69.7264 313.885 69.9464 314.423 69.7509 314.887C69.5994 315.234 69.2621 315.444 68.9053 315.444Z" fill="white"/>
<path d="M81.3788 351.677C81.2762 351.677 81.1735 351.657 81.0709 351.623C80.8705 351.55 52.7368 341.637 52.7368 341.637L53.3429 339.912C81.8774 349.966 81.8774 349.966 82.024 350.118C82.327 350.421 82.3808 350.89 82.1511 351.256C81.9849 351.52 81.6867 351.677 81.3788 351.677Z" fill="white"/>
<path d="M192.008 285.125C193.044 284.422 194.183 283.884 195.395 283.566C200.449 282.242 205.698 284.876 209.804 288.102C213.914 291.328 217.59 295.287 222.404 297.315C224.643 298.259 228.113 298.112 228.494 295.712C228.67 294.598 228.015 293.537 227.365 292.613C220.845 283.336 212.008 276.396 203.968 268.541C201.817 266.44 199.481 263.536 200.644 260.765C201.891 257.788 206.241 257.671 209.071 259.216C211.901 260.76 214.081 263.39 217.052 264.636C217.829 264.964 218.685 265.188 219.511 265.022C221.075 264.709 222.072 263.038 222.15 261.444C222.634 251.64 210.322 244.865 206.065 237.187C202.433 230.632 202.443 222.714 203.059 215.246C203.543 209.415 204.506 203.227 208.377 198.842C209.252 197.85 210.361 196.931 211.676 196.839C216.691 196.467 217.688 208.095 220.713 211.13C223.465 213.887 227.258 215.695 229.159 219.092C231.559 223.379 230.186 228.721 230.894 233.584C232.023 241.361 239.145 242.739 241.638 248.482C241.706 244.039 241.721 239.538 241.755 235.07C241.765 233.648 241.848 232.05 242.899 231.087C245.186 228.985 248.671 232.211 249.326 235.246C250.191 239.239 249.399 243.389 249.448 247.475C249.497 251.561 250.719 256.097 254.243 258.17C258.129 260.452 263.016 258.849 267.322 257.52C271.629 256.19 276.995 255.452 280.031 258.785C281.223 260.09 281.819 261.835 282.157 263.571C285.001 278.278 271.15 292.921 275.407 307.281C279.224 320.156 287.572 327.609 274.263 338.284C268.808 342.659 262.767 344.77 255.768 343.177C250.411 341.96 245.567 339.169 240.728 336.573C230.733 331.221 219.477 328.934 208.919 324.838C201.553 321.979 194.364 317.858 189.803 311.402C185.243 304.945 183.894 295.776 188.161 289.123C189.163 287.559 190.473 286.166 192.008 285.125Z" fill="#F2F2F2"/>
<path d="M265.641 343.866C265.279 343.866 264.937 343.651 264.796 343.299L219.403 232.587C219.213 232.118 219.438 231.585 219.902 231.395C220.366 231.204 220.909 231.424 221.094 231.893L266.487 342.605C266.677 343.074 266.452 343.607 265.988 343.797C265.876 343.841 265.758 343.866 265.641 343.866Z" fill="white"/>
<path d="M256.589 321.778C256.525 321.778 256.462 321.773 256.393 321.759L211.206 312.042C210.713 311.934 210.4 311.45 210.503 310.957C210.61 310.463 211.094 310.15 211.593 310.253L256.78 319.97C257.273 320.077 257.586 320.561 257.483 321.055C257.39 321.485 257.009 321.778 256.589 321.778Z" fill="white"/>
<path d="M239.546 280.218C239.448 280.218 239.34 280.203 239.243 280.164L221.779 274.006C221.3 273.84 221.051 273.317 221.217 272.838C221.383 272.363 221.911 272.114 222.385 272.28L239.849 278.439C240.328 278.605 240.577 279.128 240.411 279.607C240.279 279.979 239.922 280.218 239.546 280.218Z" fill="white"/>
<path d="M244.727 292.848C244.643 292.848 244.555 292.838 244.472 292.809C243.984 292.667 243.705 292.159 243.847 291.675L250.558 268.61C250.699 268.126 251.203 267.837 251.692 267.984C252.18 268.126 252.459 268.634 252.317 269.118L245.606 292.183C245.489 292.589 245.122 292.848 244.727 292.848Z" fill="white"/>
<path d="M31.4367 158.943C30.9284 158.943 30.5227 158.533 30.5227 158.029V155.283C30.5227 154.774 30.9333 154.369 31.4367 154.369C31.9401 154.369 32.3507 154.779 32.3507 155.283V158.029C32.3507 158.533 31.945 158.943 31.4367 158.943Z" fill="#333333"/>
<path fill-rule="evenodd" clip-rule="evenodd" d="M58.6173 26.154C58.6173 26.6575 59.0279 27.0631 59.5313 27.0631C59.5334 27.0631 59.5346 27.0631 59.5356 27.0628C59.5371 27.0623 59.5383 27.0611 59.5411 27.0583C61.4571 27.0387 63.3242 27.0338 65.1179 27.0338C65.6214 27.0338 66.0319 26.6281 66.0319 26.1198C66.0319 25.6164 65.6263 25.2058 65.1179 25.2058C63.3193 25.2058 61.4473 25.2156 59.5264 25.2302C59.0181 25.2351 58.6124 25.6506 58.6173 26.154ZM76.2765 27.1072H76.2619C74.5903 27.0827 72.7183 27.0681 70.685 27.0534C70.1766 27.0485 69.771 26.6379 69.7759 26.1345C69.7807 25.6311 70.2549 25.2694 70.6948 25.2254C72.728 25.2401 74.6098 25.2547 76.2863 25.2792C76.7897 25.284 77.1954 25.6995 77.1905 26.2078C77.1856 26.7064 76.78 27.1072 76.2765 27.1072ZM47.4537 26.3447C47.4635 26.8432 47.874 27.2391 48.3677 27.2391C48.3775 27.2391 48.3824 27.2391 48.397 27.2342C50.269 27.1854 52.1312 27.1463 53.969 27.1169C54.4725 27.112 54.8781 26.6966 54.8684 26.1883C54.8635 25.6848 54.5311 25.3036 53.9397 25.2889L53.8045 25.2914C52.0011 25.3248 50.1792 25.3585 48.3481 25.4062C47.8398 25.4209 47.439 25.8412 47.4537 26.3447ZM37.7028 29.9224C37.4046 29.9224 37.1065 29.7758 36.9305 29.5021C36.6568 29.0769 36.779 28.5099 37.2042 28.2362C38.7634 27.2293 40.5914 26.4815 42.6296 26.0171C43.1135 25.895 43.612 26.2127 43.7244 26.7063C43.8368 27.2 43.5289 27.6887 43.0353 27.8012C41.2024 28.2166 39.5747 28.8813 38.1964 29.7758C38.0449 29.8736 37.8738 29.9224 37.7028 29.9224ZM31.5589 38.9892C31.6224 39.0038 31.6859 39.0087 31.7495 39.0087C32.1698 39.0087 32.5511 38.7106 32.6488 38.2902C33.035 36.4671 33.685 34.8346 34.5795 33.4318C34.8532 33.0017 34.7261 32.4396 34.3009 32.1659C33.8756 31.8922 33.3087 32.0193 33.035 32.4445C32.0232 34.0281 31.29 35.8659 30.855 37.9041C30.7475 38.3978 31.0652 38.8816 31.5589 38.9892ZM31.4367 50.1429C30.9284 50.1429 30.5227 49.7323 30.5227 49.2289V44.6051C30.5129 44.5856 30.4689 44.2434 30.4347 43.7107C30.4005 43.2072 30.7866 42.7722 31.2901 42.738C31.7886 42.7087 32.2285 43.0899 32.2627 43.5934C32.2892 43.9984 32.3216 44.2744 32.3348 44.3874L32.3348 44.3876C32.3387 44.4204 32.3409 44.4394 32.3409 44.4438L32.3507 49.2289C32.3507 49.7323 31.945 50.1429 31.4367 50.1429ZM30.5227 60.3924C30.5227 60.8959 30.9284 61.3064 31.4367 61.3064C31.945 61.3064 32.3507 60.8959 32.3507 60.3876V54.8058C32.3507 54.3024 31.9401 53.8918 31.4367 53.8918C30.9333 53.8918 30.5227 54.2975 30.5227 54.8058V60.3924ZM31.4367 72.47C30.9284 72.47 30.5227 72.0595 30.5227 71.556V65.9743C30.5227 65.4659 30.9333 65.0603 31.4367 65.0603C31.9401 65.0603 32.3507 65.4708 32.3507 65.9743V71.556C32.3507 72.0595 31.945 72.47 31.4367 72.47ZM30.5227 82.7196C30.5227 83.223 30.9284 83.6336 31.4367 83.6336C31.945 83.6336 32.3507 83.223 32.3507 82.7196V77.1378C32.3507 76.6344 31.9401 76.2238 31.4367 76.2238C30.9333 76.2238 30.5227 76.6295 30.5227 77.1378V82.7196ZM31.4367 94.7971C30.9284 94.7971 30.5227 94.3865 30.5227 93.8831V88.3013C30.5227 87.793 30.9333 87.3873 31.4367 87.3873C31.9401 87.3873 32.3507 87.7979 32.3507 88.3013V93.8831C32.3507 94.3865 31.945 94.7971 31.4367 94.7971ZM30.5227 105.047C30.5227 105.55 30.9284 105.961 31.4367 105.961C31.945 105.961 32.3507 105.55 32.3507 105.047V99.4649C32.3507 98.9615 31.9401 98.5509 31.4367 98.5509C30.9333 98.5509 30.5227 98.9566 30.5227 99.4649V105.047ZM31.4367 117.124C30.9284 117.124 30.5227 116.714 30.5227 116.21V110.624C30.5227 110.115 30.9333 109.71 31.4367 109.71C31.9401 109.71 32.3507 110.12 32.3507 110.624V116.205C32.3507 116.714 31.945 117.124 31.4367 117.124ZM30.5227 127.374C30.5227 127.877 30.9284 128.288 31.4367 128.288C31.945 128.288 32.3507 127.877 32.3507 127.374V121.792C32.3507 121.288 31.9401 120.878 31.4367 120.878C30.9333 120.878 30.5227 121.284 30.5227 121.792V127.374ZM31.4367 139.451C30.9284 139.451 30.5227 139.041 30.5227 138.537V132.955C30.5227 132.447 30.9333 132.041 31.4367 132.041C31.9401 132.041 32.3507 132.452 32.3507 132.955V138.537C32.3507 139.041 31.945 139.451 31.4367 139.451ZM31.4367 150.615C30.9284 150.615 30.5227 150.204 30.5227 149.701V144.119C30.5227 143.611 30.9333 143.205 31.4367 143.205C31.9401 143.205 32.3507 143.616 32.3507 144.119V149.701C32.3507 150.204 31.945 150.615 31.4367 150.615Z" fill="#333333"/>
<path d="M84.6396 27.2635C84.6298 27.2635 84.6249 27.2635 84.6151 27.2635C84.6151 27.2635 83.6278 27.2391 81.878 27.2C81.3746 27.1902 80.9689 26.7698 80.9787 26.2664C80.9885 25.763 81.4577 25.4062 81.9122 25.3671C83.6669 25.4013 84.6591 25.4306 84.6591 25.4306C85.1626 25.4453 85.5634 25.8656 85.5487 26.369C85.5389 26.8676 85.1332 27.2635 84.6396 27.2635Z" fill="#333333"/>
<path d="M311.043 259.89C310.545 259.89 310.139 259.494 310.129 258.995C310.09 257.26 310.061 256.263 310.061 256.263C310.046 255.759 310.442 255.334 310.951 255.32C311.42 255.324 311.879 255.701 311.894 256.209C311.894 256.209 311.923 257.211 311.962 258.961C311.972 259.464 311.571 259.885 311.068 259.894C311.058 259.89 311.048 259.89 311.043 259.89Z" fill="#333333"/>
<path fill-rule="evenodd" clip-rule="evenodd" d="M310.261 269.851C310.261 270.359 310.672 270.765 311.175 270.765C311.684 270.765 312.094 270.349 312.094 269.841C312.084 267.866 312.07 266.033 312.05 264.391C312.04 263.888 311.557 263.458 311.122 263.487C310.618 263.497 310.212 263.912 310.217 264.416C310.237 266.053 310.256 267.881 310.261 269.851ZM311.107 281.645H311.092C310.589 281.635 310.183 281.22 310.193 280.716C310.222 278.864 310.242 277.041 310.252 275.286C310.256 274.782 310.662 274.377 311.166 274.377H311.17C311.679 274.382 312.084 274.792 312.08 275.296C312.07 277.06 312.05 278.883 312.021 280.745C312.016 281.244 311.61 281.645 311.107 281.645ZM309.875 292.388C309.968 292.422 310.066 292.437 310.164 292.437C310.545 292.437 310.902 292.192 311.034 291.806C311.547 290.272 311.835 288.536 311.894 286.645L311.908 286.195C311.923 285.687 311.522 285.267 311.019 285.252C310.55 285.242 310.09 285.638 310.076 286.141L310.061 286.591C310.012 288.302 309.753 289.861 309.298 291.23C309.137 291.709 309.396 292.227 309.875 292.388ZM103.325 295.267C102.964 295.267 102.621 295.052 102.48 294.7C102.284 294.221 102.147 293.713 102.074 293.185L102.064 288.962C102.064 288.453 102.475 288.048 102.978 288.048C103.482 288.048 103.892 288.458 103.892 288.962V293.058C103.936 293.307 104.029 293.664 104.166 294.001C104.357 294.47 104.132 295.003 103.667 295.194C103.56 295.242 103.443 295.267 103.325 295.267ZM301.889 299.226C302.026 299.602 302.377 299.837 302.754 299.837C302.852 299.837 302.954 299.817 303.057 299.783C305.007 299.094 306.674 298.077 308.003 296.762C308.36 296.406 308.365 295.829 308.008 295.467C307.651 295.11 307.075 295.106 306.713 295.462C305.574 296.586 304.142 297.457 302.446 298.058C301.972 298.224 301.718 298.747 301.889 299.226ZM112.436 300.37C112.387 300.37 112.343 300.365 112.294 300.36C110.168 300.027 108.33 299.5 106.825 298.801C106.365 298.586 106.17 298.043 106.38 297.584C106.59 297.124 107.133 296.929 107.597 297.139C108.946 297.764 110.623 298.239 112.578 298.546C113.076 298.625 113.418 299.094 113.34 299.592C113.267 300.047 112.876 300.37 112.436 300.37ZM117.871 300.736H123.311C123.819 300.736 124.225 300.326 124.225 299.822C124.225 299.319 123.819 298.908 123.311 298.908H117.871C117.368 298.908 116.957 299.314 116.957 299.822C116.957 300.326 117.363 300.736 117.871 300.736ZM134.196 300.736H128.756C128.248 300.736 127.842 300.326 127.842 299.822C127.842 299.314 128.253 298.908 128.756 298.908H134.196C134.704 298.908 135.11 299.319 135.11 299.822C135.11 300.326 134.699 300.736 134.196 300.736ZM139.636 300.736H145.076C145.58 300.736 145.99 300.326 145.99 299.822C145.99 299.319 145.584 298.908 145.076 298.908H139.636C139.133 298.908 138.722 299.314 138.722 299.822C138.722 300.326 139.128 300.736 139.636 300.736ZM155.956 300.736H150.516C150.008 300.736 149.602 300.326 149.602 299.822C149.602 299.314 150.013 298.908 150.516 298.908H155.956C156.464 298.908 156.87 299.319 156.87 299.822C156.87 300.326 156.464 300.736 155.956 300.736ZM161.396 300.736H166.836C167.345 300.736 167.755 300.326 167.75 299.822C167.75 299.319 167.345 298.908 166.836 298.908H161.396C160.893 298.908 160.482 299.314 160.482 299.822C160.482 300.326 160.888 300.736 161.396 300.736ZM177.721 300.736H172.281C171.773 300.736 171.367 300.326 171.367 299.822C171.367 299.314 171.778 298.908 172.281 298.908H177.721C178.229 298.908 178.635 299.319 178.635 299.822C178.635 300.326 178.225 300.736 177.721 300.736ZM183.161 300.736H188.601C189.11 300.736 189.515 300.326 189.515 299.822C189.515 299.319 189.11 298.908 188.601 298.908H183.161C182.658 298.908 182.247 299.314 182.247 299.822C182.247 300.326 182.653 300.736 183.161 300.736ZM199.481 300.736H194.041C193.533 300.736 193.127 300.326 193.127 299.822C193.127 299.314 193.538 298.908 194.041 298.908H199.481C199.99 298.908 200.395 299.319 200.395 299.822C200.4 300.326 199.99 300.736 199.481 300.736ZM204.926 300.736H210.366C210.87 300.736 211.28 300.326 211.28 299.822C211.28 299.319 210.875 298.908 210.366 298.908H204.926C204.423 298.908 204.012 299.314 204.012 299.822C204.012 300.326 204.418 300.736 204.926 300.736ZM221.246 300.736H215.806C215.298 300.736 214.892 300.326 214.892 299.822C214.892 299.314 215.303 298.908 215.806 298.908H221.246C221.755 298.908 222.16 299.319 222.16 299.822C222.16 300.326 221.755 300.736 221.246 300.736ZM226.686 300.736H232.126C232.635 300.736 233.045 300.326 233.04 299.822C233.04 299.319 232.635 298.908 232.126 298.908H226.686C226.183 298.908 225.772 299.314 225.772 299.822C225.772 300.326 226.178 300.736 226.686 300.736ZM243.011 300.736H237.571C237.063 300.736 236.657 300.326 236.657 299.822C236.657 299.314 237.068 298.908 237.571 298.908H243.011C243.52 298.908 243.925 299.319 243.925 299.822C243.925 300.326 243.515 300.736 243.011 300.736ZM248.451 300.736H253.891C254.395 300.736 254.805 300.326 254.805 299.822C254.805 299.319 254.4 298.908 253.891 298.908H248.451C247.948 298.908 247.537 299.314 247.537 299.822C247.537 300.326 247.943 300.736 248.451 300.736ZM264.771 300.736H259.331C258.823 300.736 258.417 300.326 258.417 299.822C258.417 299.314 258.828 298.908 259.331 298.908H264.771C265.28 298.908 265.685 299.319 265.685 299.822C265.69 300.326 265.28 300.736 264.771 300.736ZM270.211 300.736H275.651C276.16 300.736 276.57 300.326 276.565 299.822C276.565 299.319 276.16 298.908 275.651 298.908H270.211C269.708 298.908 269.297 299.314 269.297 299.822C269.297 300.326 269.703 300.736 270.211 300.736ZM286.536 300.736H281.096C280.588 300.736 280.182 300.326 280.182 299.822C280.182 299.314 280.593 298.908 281.096 298.908H286.536C287.045 298.908 287.45 299.319 287.45 299.822C287.45 300.326 287.04 300.736 286.536 300.736ZM296.497 300.844C295.406 300.844 294.646 300.761 294.432 300.737L294.431 300.737L294.386 300.732C294.378 300.732 294.373 300.731 294.371 300.731L291.981 300.741C291.473 300.741 291.067 300.33 291.067 299.827C291.067 299.319 291.478 298.913 291.981 298.913H294.498C294.521 298.914 294.563 298.919 294.622 298.924C294.982 298.96 295.993 299.06 297.382 299.001C297.886 298.986 298.316 299.373 298.335 299.876C298.36 300.379 297.964 300.809 297.46 300.829C297.113 300.839 296.791 300.844 296.497 300.844Z" fill="#333333"/>
<path d="M102.983 284.397C102.475 284.397 102.069 283.986 102.069 283.483V280.736C102.069 280.227 102.48 279.822 102.983 279.822C103.487 279.822 103.897 280.232 103.897 280.736V283.483C103.902 283.986 103.491 284.397 102.983 284.397Z" fill="#333333"/>
<path d="M139.761 43.9434H34.235C22.2357 43.9434 12.4163 34.124 12.4163 22.1247V22.1247C12.4163 10.1253 22.2357 0.305908 34.235 0.305908H139.761C151.76 0.305908 161.58 10.1253 161.58 22.1247V22.1247C161.584 34.124 151.765 43.9434 139.761 43.9434Z" fill="#333333"/>
<path d="M136.94 12.4958C137.38 12.4518 137.825 12.4323 138.265 12.442C144.111 12.5642 148.774 17.4177 148.651 23.2683C148.529 29.114 143.676 33.772 137.825 33.6547L137.879 31.1131C142.327 31.206 146.017 27.6624 146.11 23.2195C146.203 18.7716 142.659 15.0814 138.216 14.9885C137.884 14.9837 137.542 14.9934 137.204 15.0325L136.94 12.4958Z" fill="white"/>
<path d="M134.399 32.3106L138.436 34.7545L138.534 30.0378L134.399 32.3106Z" fill="white"/>
<path d="M132.84 33.4689C132.4 33.5129 131.955 33.5325 131.515 33.5227C125.669 33.4005 121.007 28.547 121.129 22.6964C121.251 16.8507 126.105 12.1927 131.955 12.31L131.901 14.8516C127.454 14.7588 123.763 18.3024 123.67 22.7453C123.578 27.1931 127.121 30.8833 131.564 30.9762C131.896 30.9811 132.239 30.9713 132.576 30.9322L132.84 33.4689Z" fill="white"/>
<path d="M135.381 13.6542L131.349 11.2152L131.251 15.927L135.381 13.6542Z" fill="white"/>
<path d="M478.643 368.065C478.007 368.383 477.015 368.564 475.564 368.564C436.53 368.559 397.516 368.549 358.478 368.657C338.927 368.71 319.377 368.569 299.826 368.613C289.953 368.632 280.079 368.705 270.206 368.867C265.27 368.95 260.333 369.057 255.396 369.194C251.765 369.297 247.361 369.966 243.905 368.456C242.727 367.943 241.613 367.254 241.144 365.983C241.071 365.685 241.051 365.382 241.085 365.074C241.466 362.444 245.499 358.026 247.082 355.851C250.333 351.378 253.656 346.515 259.487 344.966C262.879 344.066 266.452 344.081 269.976 344.101C331.723 344.101 393.469 344.443 455.216 344.633C459.087 344.643 463.867 345.215 466.56 348.172C469.982 351.926 472.997 355.992 475.769 360.206C477.426 362.723 481.429 366.682 478.643 368.065Z" fill="#8F8DFF"/>
<path d="M446.618 347.278H272.591C260.504 347.278 250.616 337.39 250.616 325.302V204.991C250.616 192.904 260.504 183.016 272.591 183.016H446.618C458.706 183.016 468.594 192.904 468.594 204.991V325.297C468.594 337.39 458.706 347.278 446.618 347.278Z" fill="#A7ADFF"/>
<path d="M272.889 190.157C263.471 190.157 255.763 197.865 255.763 207.284V297.051C311.502 263.6 366.02 228.252 418.661 190.162H272.889V190.157Z" fill="#EFF0FC"/>
<path d="M445.382 190.157H418.666C366.02 228.247 311.507 263.6 255.768 297.047V316.451C255.768 325.869 263.476 333.577 272.894 333.577H445.387C454.805 333.577 462.513 325.869 462.513 316.451V207.284C462.508 197.865 454.8 190.157 445.382 190.157Z" fill="#E3E5FC"/>
<path d="M371.118 339.785H355.829C355.458 339.785 355.155 339.482 355.155 339.11V339.11C355.155 338.739 355.458 338.436 355.829 338.436H371.118C371.489 338.436 371.792 338.739 371.792 339.11V339.11C371.797 339.482 371.489 339.785 371.118 339.785Z" fill="#E3E5FC"/>
<path d="M271.404 188.534C272.243 188.534 272.924 187.854 272.924 187.014C272.924 186.175 272.243 185.494 271.404 185.494C270.564 185.494 269.884 186.175 269.884 187.014C269.884 187.854 270.564 188.534 271.404 188.534Z" fill="#E3E5FC"/>
<path d="M277.953 188.534C278.793 188.534 279.473 187.854 279.473 187.014C279.473 186.175 278.793 185.494 277.953 185.494C277.114 185.494 276.433 186.175 276.433 187.014C276.433 187.854 277.114 188.534 277.953 188.534Z" fill="white"/>
<path d="M284.561 188.534C285.401 188.534 286.081 187.854 286.081 187.014C286.081 186.175 285.401 185.494 284.561 185.494C283.722 185.494 283.041 186.175 283.041 187.014C283.041 187.854 283.722 188.534 284.561 188.534Z" fill="#333333"/>
<path d="M267.391 355.333H262.249C261.179 355.333 260.304 354.458 260.304 353.387V353.387C260.304 352.317 261.179 351.442 262.249 351.442H267.391C268.461 351.442 269.336 352.317 269.336 353.387V353.387C269.341 354.458 268.461 355.333 267.391 355.333Z" fill="#E3E5FC"/>
<path d="M282.421 355.333H277.279C276.208 355.333 275.333 354.458 275.333 353.387V353.387C275.333 352.317 276.208 351.442 277.279 351.442H282.421C283.491 351.442 284.366 352.317 284.366 353.387V353.387C284.366 354.458 283.491 355.333 282.421 355.333Z" fill="#E3E5FC"/>
<path d="M297.45 355.333H292.308C291.238 355.333 290.363 354.458 290.363 353.387V353.387C290.363 352.317 291.238 351.442 292.308 351.442H297.45C298.521 351.442 299.396 352.317 299.396 353.387V353.387C299.396 354.458 298.521 355.333 297.45 355.333Z" fill="#E3E5FC"/>
<path d="M312.48 355.333H307.338C306.268 355.333 305.393 354.458 305.393 353.387V353.387C305.393 352.317 306.268 351.442 307.338 351.442H312.48C313.55 351.442 314.425 352.317 314.425 353.387V353.387C314.425 354.458 313.55 355.333 312.48 355.333Z" fill="#E3E5FC"/>
<path d="M327.51 355.333H322.368C321.298 355.333 320.423 354.458 320.423 353.387V353.387C320.423 352.317 321.298 351.442 322.368 351.442H327.51C328.58 351.442 329.455 352.317 329.455 353.387V353.387C329.455 354.458 328.58 355.333 327.51 355.333Z" fill="#E3E5FC"/>
<path d="M342.54 355.333H337.398C336.327 355.333 335.452 354.458 335.452 353.387V353.387C335.452 352.317 336.327 351.442 337.398 351.442H342.54C343.61 351.442 344.485 352.317 344.485 353.387V353.387C344.485 354.458 343.61 355.333 342.54 355.333Z" fill="#E3E5FC"/>
<path d="M357.564 355.333H352.422C351.352 355.333 350.477 354.458 350.477 353.387V353.387C350.477 352.317 351.352 351.442 352.422 351.442H357.564C358.635 351.442 359.51 352.317 359.51 353.387V353.387C359.514 354.458 358.64 355.333 357.564 355.333Z" fill="#E3E5FC"/>
<path d="M372.594 355.333H367.452C366.382 355.333 365.507 354.458 365.507 353.387V353.387C365.507 352.317 366.382 351.442 367.452 351.442H372.594C373.664 351.442 374.539 352.317 374.539 353.387V353.387C374.544 354.458 373.664 355.333 372.594 355.333Z" fill="#E3E5FC"/>
<path d="M387.624 355.333H382.482C381.412 355.333 380.537 354.458 380.537 353.387V353.387C380.537 352.317 381.412 351.442 382.482 351.442H387.624C388.694 351.442 389.569 352.317 389.569 353.387V353.387C389.574 354.458 388.694 355.333 387.624 355.333Z" fill="#E3E5FC"/>
<path d="M402.654 355.333H397.512C396.441 355.333 395.566 354.458 395.566 353.387V353.387C395.566 352.317 396.441 351.442 397.512 351.442H402.654C403.724 351.442 404.599 352.317 404.599 353.387V353.387C404.604 354.458 403.724 355.333 402.654 355.333Z" fill="#E3E5FC"/>
<path d="M417.683 355.333H412.541C411.471 355.333 410.596 354.458 410.596 353.387V353.387C410.596 352.317 411.471 351.442 412.541 351.442H417.683C418.754 351.442 419.628 352.317 419.628 353.387V353.387C419.628 354.458 418.754 355.333 417.683 355.333Z" fill="#E3E5FC"/>
<path d="M432.713 355.333H427.571C426.501 355.333 425.626 354.458 425.626 353.387V353.387C425.626 352.317 426.501 351.442 427.571 351.442H432.713C433.783 351.442 434.658 352.317 434.658 353.387V353.387C434.658 354.458 433.783 355.333 432.713 355.333Z" fill="#E3E5FC"/>
<path d="M447.743 355.333H442.601C441.53 355.333 440.656 354.458 440.656 353.387V353.387C440.656 352.317 441.53 351.442 442.601 351.442H447.743C448.813 351.442 449.688 352.317 449.688 353.387V353.387C449.688 354.458 448.813 355.333 447.743 355.333Z" fill="#E3E5FC"/>
<path d="M445.817 214.185H405.425C403.582 214.185 402.077 212.68 402.077 210.837V210.837C402.077 208.994 403.582 207.489 405.425 207.489H445.817C447.659 207.489 449.165 208.994 449.165 210.837V210.837C449.165 212.68 447.659 214.185 445.817 214.185Z" fill="#A7ADFF"/>
<path d="M445.817 229.518H405.425C403.582 229.518 402.077 228.012 402.077 226.17V226.17C402.077 224.327 403.582 222.822 405.425 222.822H445.817C447.659 222.822 449.165 224.327 449.165 226.17V226.17C449.165 228.012 447.659 229.518 445.817 229.518Z" fill="#A7ADFF"/>
<path d="M179.569 133.774V261.7C179.569 271.617 171.456 279.731 161.538 279.731H79.3711C69.4539 279.731 61.3403 271.617 61.3403 261.7V133.774C61.3403 123.857 69.4539 115.743 79.3711 115.743H161.538C171.456 115.738 179.569 123.857 179.569 133.774Z" fill="#A7ADFF"/>
<path d="M68.0757 261.304C68.0757 262.824 68.3641 264.276 68.8626 265.63C70.632 270.415 75.2215 273.856 80.5833 273.856H146.132H160.302C167.179 273.856 172.81 268.205 172.81 261.304V134.874C172.81 131.037 171.065 127.586 168.337 125.279C136.25 156.067 102.163 184.85 68.0757 213.639V261.304H68.0757Z" fill="#E3E5FC"/>
<path d="M146.201 122.322H80.5785C73.7014 122.322 68.0708 127.972 68.0708 134.873V154.459V213.639C102.158 184.855 136.245 156.067 168.332 125.279C166.153 123.436 163.352 122.322 160.297 122.322H146.201V122.322Z" fill="#EFF0FC"/>
<path d="M120.453 278.367C121.724 278.367 122.755 277.336 122.755 276.065C122.755 274.794 121.724 273.763 120.453 273.763C119.181 273.763 118.15 274.794 118.15 276.065C118.15 277.336 119.181 278.367 120.453 278.367Z" fill="#333333"/>
<path d="M155.18 147.865H114.788C112.945 147.865 111.439 146.36 111.439 144.517V144.517C111.439 142.674 112.945 141.169 114.788 141.169H155.18C157.022 141.169 158.528 142.674 158.528 144.517V144.517C158.533 146.36 157.022 147.865 155.18 147.865Z" fill="#A7ADFF"/>
<path d="M155.18 163.198H114.788C112.945 163.198 111.439 161.692 111.439 159.85V159.85C111.439 158.007 112.945 156.501 114.788 156.501H155.18C157.022 156.501 158.528 158.007 158.528 159.85V159.85C158.533 161.692 157.022 163.198 155.18 163.198Z" fill="#A7ADFF"/>
<path d="M71.4042 157.024H27.8987C22.9523 157.024 18.9053 161.071 18.9053 166.018V209.655C38.07 192.451 57.6013 175.666 77.9733 159.913C76.3261 158.149 73.9947 157.024 71.4042 157.024Z" fill="#EFF0FC"/>
<path d="M77.9684 159.918C57.6013 175.666 38.0651 192.455 18.9004 209.66V247.872V272.506C18.9004 277.453 22.9474 281.5 27.8938 281.5H71.3993C76.3457 281.5 80.3927 277.453 80.3927 272.506V166.023C80.3927 163.711 79.5032 161.604 78.0564 160.006C78.032 159.972 77.9977 159.947 77.9684 159.918Z" fill="#E3E5FC"/>
<path fill-rule="evenodd" clip-rule="evenodd" d="M27.8987 157.024H71.4042C76.3506 157.024 80.3976 161.071 80.3976 166.018V272.502C80.3976 277.448 76.3506 281.495 71.4042 281.495H27.8987C22.9523 281.495 18.9053 277.448 18.9053 272.502V166.018C18.9053 161.071 22.9523 157.024 27.8987 157.024ZM67.4992 269.882C72.4455 269.882 76.4926 265.835 76.4926 260.888V170.202C76.4926 165.255 72.4455 161.208 67.4992 161.208H31.7993C26.8529 161.208 22.8059 165.255 22.8059 170.202V260.888C22.8059 265.835 26.8529 269.882 31.7993 269.882H67.4992Z" fill="#8F8DFF"/>
<path d="M55.4408 159.874H43.857C43.5735 159.874 43.3438 159.644 43.3438 159.361V159.361C43.3438 159.077 43.5735 158.848 43.857 158.848H55.4408C55.7243 158.848 55.9541 159.077 55.9541 159.361V159.361C55.9541 159.644 55.7243 159.874 55.4408 159.874Z" fill="#E3E5FC"/>
<path d="M49.649 278.494C51.4117 278.494 52.8406 277.065 52.8406 275.302C52.8406 273.54 51.4117 272.111 49.649 272.111C47.8862 272.111 46.4573 273.54 46.4573 275.302C46.4573 277.065 47.8862 278.494 49.649 278.494Z" fill="#333333"/>
<path d="M69.8451 242.256H29.4531C27.6104 242.256 26.105 240.751 26.105 238.908V238.908C26.105 237.066 27.6104 235.56 29.4531 235.56H69.8451C71.6878 235.56 73.1932 237.066 73.1932 238.908V238.908C73.1932 240.751 71.6878 242.256 69.8451 242.256Z" fill="white"/>
<path d="M69.8451 257.594H29.4531C27.6104 257.594 26.105 256.089 26.105 254.246V254.246C26.105 252.403 27.6104 250.898 29.4531 250.898H69.8451C71.6878 250.898 73.1932 252.403 73.1932 254.246V254.246C73.1932 256.084 71.6878 257.594 69.8451 257.594Z" fill="white"/>
<path d="M140.161 366.696C142.234 365.166 144.497 363.294 144.643 360.723C144.8 357.981 142.195 355.62 139.462 355.361C136.725 355.102 134.061 356.51 132.077 358.416C129.892 349.53 146.31 344.759 144.932 335.717C140.611 334.217 135.405 335.839 132.703 339.535C129.755 332.648 134.33 324.994 138.998 319.133C143.666 313.273 148.969 306.508 147.532 299.157C143.372 298.492 138.939 299.778 135.782 302.569C133.773 299.255 133.416 294.988 134.843 291.386C135.704 289.211 137.204 287.089 136.857 284.777C136.148 280.031 129.408 279.816 124.731 280.892C125.42 269.933 116.123 259.322 105.17 258.565C100.321 258.227 94.3145 260.969 94.5149 265.828C94.5833 267.538 95.4386 269.098 96.1669 270.642C99.4563 277.641 100.405 285.721 98.8258 293.292C97.4231 300.022 94.2265 307.52 97.9998 313.268C99.2168 315.125 101.055 316.523 102.233 318.41C103.616 320.619 103.977 323.293 104.31 325.873C106.035 339.315 104.295 364.183 113.22 375.259C121.954 386.1 141.041 371.984 149.194 365.938C162.107 356.368 172.122 341.411 171.565 325.35C171.531 324.388 171.413 323.327 170.7 322.682C169.913 321.968 168.71 322.037 167.655 322.149C162.923 322.652 158.187 323.151 153.456 323.654C155.797 311.425 169.967 302.994 169.419 290.555C166.042 290.188 162.659 289.822 159.282 289.455C162.053 284.949 164.878 280.286 165.665 275.056C166.452 269.826 164.673 263.834 160.074 261.228C153.348 257.421 145.191 262.353 139.091 267.074C152.283 256.737 163.226 187.703 132.678 202.889C129.32 204.56 125.41 205.885 121.876 204.638C113.362 201.637 121.133 187.971 116.69 181.798C115.117 179.609 112.585 178.269 109.984 177.561C103.948 175.909 97.1298 177.458 92.4034 181.559C87.677 185.659 85.1744 192.185 85.9516 198.397C86.5283 202.991 88.7376 207.195 90.766 211.359C97.3204 224.81 41.6445 188.709 62.7643 238.417C54.3721 232.728 87.2664 243.818 77.2563 245.431C67.2463 247.044 57.9988 255.798 58.5217 265.926C59.0105 275.281 66.8846 282.285 73.8594 288.536C80.839 294.788 88.0582 302.955 86.6408 312.217C85.8245 317.535 82.2516 321.968 80.2085 326.949C78.1606 331.924 78.2828 338.792 82.975 341.426C85.717 342.966 89.373 342.624 91.7386 344.696C93.9332 346.617 94.1972 349.857 94.6077 352.746C96.0203 362.697 102.399 376.349 111.69 381.447C120.566 386.286 132.409 372.429 140.161 366.696Z" fill="#2AF3CE"/>
<path d="M137.18 383.636C136.75 383.636 136.364 383.328 136.281 382.893L113.866 264.547C113.773 264.049 114.1 263.57 114.594 263.477C115.102 263.384 115.571 263.711 115.664 264.205L138.079 382.551C138.172 383.05 137.845 383.529 137.351 383.622C137.292 383.631 137.234 383.636 137.18 383.636Z" fill="white"/>
<path d="M126.188 325.6C126.021 325.6 125.855 325.556 125.704 325.463C125.274 325.194 125.142 324.632 125.41 324.202L146.168 290.721C146.437 290.291 146.999 290.159 147.43 290.428C147.86 290.697 147.992 291.259 147.723 291.689L126.965 325.17C126.789 325.443 126.491 325.6 126.188 325.6Z" fill="white"/>
<path d="M108.333 259.933C108.166 259.933 108 259.889 107.849 259.796C107.419 259.528 107.287 258.965 107.555 258.535L128.314 225.054C128.582 224.624 129.144 224.492 129.575 224.761C130.005 225.03 130.137 225.592 129.868 226.022L109.11 259.503C108.939 259.782 108.64 259.933 108.333 259.933Z" fill="white"/>
<path d="M286.984 113.522C271.597 111.955 257.091 107.496 243.664 99.3637C235.774 94.6115 226.806 88.3895 219.7 82.5595C207.547 72.5162 187.553 52.2827 170.891 46.8446C169.274 46.3057 167.853 48.0204 168.637 49.4901C171.43 54.5853 176.331 61.0522 181.77 61.0522C195.541 61.0522 201.127 79.1301 212.497 88.6345C232.001 104.9 255.572 120.528 281.839 122.586C287.18 123.076 286.984 113.522 286.984 113.522Z" fill="#ECD2B2"/>
<path d="M289.875 92.6519L290.072 114.943L307.174 122.439C307.174 122.439 297.373 106.664 299.774 93.0928C302.176 79.5221 289.875 92.6519 289.875 92.6519Z" fill="#ECD2B2"/>
<path d="M276.35 46.4527C276.35 46.4527 272.332 51.3029 275.37 66.8823C278.408 82.4616 283.799 95.8364 288.503 95.1505C301.44 93.1418 306.341 84.2743 311.143 76.7296C317.024 67.4212 307.223 43.6602 307.223 43.6602L297.226 37.6832L276.35 46.4527Z" fill="#F4DBBD"/>
<path d="M262.825 41.7495C260.129 32.5881 262.874 22.0058 270.91 16.5678C271.842 15.9309 272.871 15.392 273.949 15.392C278.947 15.441 276.546 26.2681 284.828 25.5822C290.218 25.1413 294.482 21.271 299.823 20.7811C306.537 20.0952 311.781 23.6716 315.75 28.7667C316.926 30.2854 325.208 42.4354 320.945 43.2682C334.274 40.6717 321.582 72.7613 318.592 77.0725C316.24 80.5019 311.781 82.1187 308.007 80.9919C309.33 77.8564 310.605 74.6229 310.997 71.1935C311.34 67.7641 316.632 52.4297 299.823 48.3144C287.915 45.3749 275.713 58.6516 265.275 46.6487C264.197 45.3259 263.364 43.6602 262.825 41.7495Z" fill="#EDC868"/>
<path d="M311.487 59.9254C311.487 59.9254 316.436 54.7813 315.554 62.9139C314.672 71.0465 310.311 72.5163 310.311 72.5163L311.487 59.9254Z" fill="#F4DBBD"/>
<path d="M335.989 372.198L346.231 399.144L355.591 396.645L343.193 369.161C343.242 369.161 337.949 369.798 335.989 372.198Z" fill="#E1C199"/>
<path d="M322.268 424.277C322.611 424.815 325.894 424.62 326.384 424.62C331.481 424.717 339.371 425.06 343.732 422.121C347.995 419.23 350.789 414.282 354.562 410.804C357.208 408.354 360.639 406.885 363.775 405.17C367.254 403.259 360.198 387.435 355.983 389.982C352.553 392.04 354.268 397.821 345.545 397.037C338.096 396.4 342.801 407.031 334.176 413.4C326.531 418.985 318.642 418.153 322.268 424.277Z" fill="#05D9B2"/>
<path d="M307.713 272.647C312.957 298.564 322.709 322.374 336.626 344.518C343.438 355.345 345.839 358.53 352.847 369.161C362.844 384.348 335.842 393.657 328.05 395.959C322.954 397.478 315.309 397.576 315.505 393.167C315.554 391.844 316.387 390.619 317.073 389.394C323.346 378.175 317.024 366.27 311.928 355.737C296.736 324.138 294.041 316.642 281.79 283.866C277.134 271.373 274.782 229.045 273.655 215.523C272.969 207.243 279.927 173.145 294.237 182.699C303.156 188.676 299.186 209.644 298.549 218.12C298.157 223.999 297.275 230.367 298.353 236.344C300.706 248.592 305.263 260.399 307.713 272.647Z" fill="#333333"/>
<path d="M303.94 382.879L297.569 411.882L307.027 415.017L311.879 384.348C311.879 384.348 306.978 381.899 303.94 382.879Z" fill="#EED3B3"/>
<path d="M258.757 423.297C258.757 423.297 265.863 425.697 279.437 426.726C293.012 427.755 308.203 428.245 310.948 426.236C313.692 424.228 315.456 407.081 310.948 407.081C306.439 407.081 304.675 413.645 296.687 407.766C289.826 402.769 284.387 412.225 272.479 414.723C260.521 417.222 255.719 418.251 258.757 423.297Z" fill="#2AF3CE"/>
<path d="M282.084 394.196C282.525 393.118 283.75 392.334 284.779 391.501C294.286 383.956 291.934 372.394 290.414 362.302C286.788 338.394 294.433 314.192 292.13 290.333C288.797 256.284 291.198 243.546 285.857 220.765C283.897 212.486 281.25 199.699 294.041 202.148C300.117 203.275 306.096 203.079 312.124 202.001C315.309 201.462 312.075 200.434 315.309 201.462C326.384 204.99 325.502 215.474 324.522 225.664C323.101 240.754 322.219 261.526 321.484 276.861C320.454 298.613 316.828 320.414 319.425 341.971C320.699 352.553 322.17 363.086 323.591 373.668C324.424 379.841 329.569 393.314 326.09 398.899C321.336 406.542 300.215 400.075 293.159 399.879C287.817 399.83 280.515 397.821 282.084 394.196Z" fill="#474448"/>
<path d="M278.506 154.92C281.692 141.937 278.212 120.038 287.376 110.387C288.307 109.407 289.238 108.133 290.562 107.839C314.329 102.695 315.652 114.453 320.602 122.635C325.551 130.865 318.837 137.381 321.239 146.592C323.983 157.027 323.444 167.952 323.64 178.73C323.738 185.295 322.856 188.528 323.248 195.093C323.493 199.699 323.199 203.079 324.228 207.586C324.914 210.575 329.863 220.961 328.736 223.998C327.854 226.399 323.689 225.517 321.68 225.566C313.839 225.811 311.34 225.811 304.381 222.333C298.01 219.197 273.459 226.301 266.059 225.664C262.433 225.37 271.107 207.684 272.724 201.07C276.644 185.344 274.733 176.819 276.35 165.747C276.938 162.171 277.624 158.546 278.506 154.92Z" fill="#E0E0E0"/>
<path d="M290.561 107.888C290.561 107.888 284.289 113.571 268.509 106.418L263.315 122.684C263.315 122.684 278.555 129.983 285.808 124.447C292.032 119.695 290.414 108.182 290.561 107.888Z" fill="#E0E0E0"/>
<path d="M320.209 177.016C316.534 186.667 270.273 195.534 247.731 193.575C242.193 193.085 236.411 192.399 232.686 196.906C235.333 198.18 237.293 197.347 240.135 197.886C236.754 200.923 233.373 203.912 229.991 206.949C228.962 207.88 227.786 209.301 228.423 210.624C228.864 211.604 230.04 211.8 231.069 211.8C237.636 211.702 243.125 206.558 249.397 204.353C257.091 201.609 263.217 202.442 270.959 201.119C323.248 192.105 334.862 190.537 331.579 158.252C329.03 133.707 324.13 129.886 317.024 122.145C315.897 120.92 313.888 119.695 312.761 120.969C312.222 121.606 312.271 122.537 312.418 123.37C313.251 127.975 315.554 132.139 317.416 136.45C321.974 146.886 323.395 168.687 320.209 177.016Z" fill="#EED3B3"/>
<path d="M312.663 142.085C312.663 142.085 298.402 103.038 310.164 108.574C321.827 114.061 333.098 138.9 333.098 138.9L313.692 147.131L312.663 142.085Z" fill="#F2F2F2"/>
</svg>
