<svg width="576" height="461" viewBox="0 0 576 461" fill="none" xmlns="http://www.w3.org/2000/svg">
<path d="M554.195 343.857H430.805C419.02 343.857 409.334 334.215 409.334 322.377V28.528C409.334 16.7377 418.972 7.04779 430.805 7.04779H554.195C565.98 7.04779 575.666 16.69 575.666 28.528V322.377C575.618 334.167 565.98 343.857 554.195 343.857Z" fill="#8F8DFF"/>
<path d="M543.65 312.448H441.35C429.565 312.448 419.879 302.806 419.879 290.968V39.8408C419.879 28.0506 429.517 18.3607 441.35 18.3607H543.65C555.435 18.3607 565.121 28.0029 565.121 39.8408V290.968C565.073 302.758 555.435 312.448 543.65 312.448Z" fill="#E3E5FC"/>
<path d="M508.437 14.7806H476.564C475.943 14.7806 475.418 14.2555 475.418 13.635V13.1099C475.418 12.4894 475.943 11.9643 476.564 11.9643H508.437C509.057 11.9643 509.582 12.4894 509.582 13.1099V13.635C509.534 14.2555 509.009 14.7806 508.437 14.7806Z" fill="#E3E5FC"/>
<path d="M492.5 335.742C497.27 335.742 501.136 331.874 501.136 327.102C501.136 322.331 497.27 318.462 492.5 318.462C487.73 318.462 483.864 322.331 483.864 327.102C483.864 331.874 487.73 335.742 492.5 335.742Z" fill="#E3E5FC"/>
<path d="M532.485 277.364H452.515C445.692 277.364 440.062 271.779 440.062 264.905V259.13C440.062 252.304 445.645 246.671 452.515 246.671H532.485C539.308 246.671 544.938 252.256 544.938 259.13V264.905C544.89 271.731 539.308 277.364 532.485 277.364Z" fill="#2AF3CE"/>
<path d="M493.359 99.3648C486.727 97.6941 485.057 77.7414 478.377 77.7414C463.776 79.0779 458.671 98.4578 450.464 112.969C451.561 118.936 456.81 123.566 463.06 123.566H521.606C528.668 123.566 534.441 117.79 534.441 110.725V68.7197C532.389 68.8629 530.338 69.6267 528.238 71.1064C516.644 81.0828 508.341 102.706 493.359 99.3648Z" fill="#8F8DFF"/>
<path d="M521.749 51.4401H463.204C456.142 51.4401 450.368 57.2158 450.368 64.2804V110.725C450.368 111.489 450.464 112.253 450.559 112.969C458.766 98.4578 463.872 79.0779 478.472 77.7413C485.104 77.7413 486.774 97.694 493.454 99.3647C508.437 102.706 516.739 81.035 528.381 71.0586C530.481 69.5789 532.532 68.8629 534.584 68.6719V64.2327C534.584 57.2158 528.811 51.4401 521.749 51.4401Z" fill="#F5F5F5"/>
<path d="M531.148 150.631H453.804C452.134 150.631 450.798 149.294 450.798 147.623V146.239C450.798 144.568 452.134 143.232 453.804 143.232H531.148C532.818 143.232 534.154 144.568 534.154 146.239V147.623C534.154 149.294 532.818 150.631 531.148 150.631Z" fill="#8F8DFF"/>
<path d="M531.148 167.624H453.804C452.134 167.624 450.798 166.287 450.798 164.617V163.232C450.798 161.562 452.134 160.225 453.804 160.225H531.148C532.818 160.225 534.154 161.562 534.154 163.232V164.617C534.154 166.24 532.818 167.624 531.148 167.624Z" fill="#F5F5F5"/>
<path d="M531.148 184.569H453.804C452.134 184.569 450.798 183.233 450.798 181.562V180.178C450.798 178.507 452.134 177.171 453.804 177.171H531.148C532.818 177.171 534.154 178.507 534.154 180.178V181.562C534.154 183.233 532.818 184.569 531.148 184.569Z" fill="#F5F5F5"/>
<path d="M500.802 81.2736C504.887 81.2736 508.198 77.9611 508.198 73.8749C508.198 69.7887 504.887 66.4762 500.802 66.4762C496.718 66.4762 493.407 69.7887 493.407 73.8749C493.407 77.9611 496.718 81.2736 500.802 81.2736Z" fill="#8F8DFF"/>
<path d="M492.023 232.399L491.689 232.112C491.307 231.778 491.26 231.205 491.546 230.823L501.995 218.031C502.329 217.649 502.902 217.601 503.284 217.887L503.618 218.174C503.999 218.508 504.047 219.081 503.761 219.463L493.311 232.255C492.977 232.637 492.405 232.685 492.023 232.399Z" fill="#F5F5F5"/>
<path d="M492.977 232.399L493.311 232.112C493.693 231.778 493.741 231.205 493.455 230.823L483.005 218.031C482.671 217.649 482.099 217.601 481.717 217.887L481.383 218.174C481.001 218.508 480.953 219.081 481.24 219.463L491.689 232.255C492.023 232.637 492.596 232.685 492.977 232.399Z" fill="#F5F5F5"/>
<path opacity="0.26" d="M349.259 223.421L154.04 291.069C141.655 291.069 131.588 281.006 131.588 268.625V172.264C131.588 159.883 141.655 149.821 154.04 149.821L349.259 82.1731C361.645 82.1731 371.712 92.2359 371.712 104.617V200.978C371.712 213.411 361.645 223.421 349.259 223.421Z" fill="#8F8DFF"/>
<path opacity="0.13" d="M337.243 217.731L142.024 285.379C129.638 285.379 119.571 275.316 119.571 262.935V166.574C119.571 154.193 129.638 144.13 142.024 144.13L337.243 76.483C349.628 76.483 359.695 86.5458 359.695 98.9268V195.287C359.642 207.721 349.628 217.731 337.243 217.731Z" fill="#8F8DFF"/>
<path opacity="0.39" d="M219.764 188.965L159.522 209.829C155.674 209.829 152.617 206.72 152.617 202.927V173.213C152.617 169.367 155.727 166.311 159.522 166.311L219.764 145.448C223.611 145.448 226.668 148.556 226.668 152.349V182.064C226.668 185.857 223.611 188.965 219.764 188.965Z" fill="white"/>
<path d="M356.322 50.0352L296.08 70.8985C292.233 70.8985 289.176 67.7901 289.176 63.9967V34.2825C289.176 30.4365 292.285 27.3807 296.08 27.3807L356.322 6.51752C360.169 6.51752 363.226 9.62593 363.226 13.4192V43.1335C363.226 46.9268 360.117 50.0352 356.322 50.0352Z" fill="#2AF3CE"/>
<path d="M333.501 42.1325L276.474 61.8893C272.837 61.8893 269.938 58.939 269.938 55.3564V27.2227C269.938 23.5874 272.89 20.6898 276.474 20.6898L333.501 0.932922C337.137 0.932922 340.036 3.88328 340.036 7.46585V35.5996C340.036 39.1822 337.085 42.1325 333.501 42.1325Z" fill="#CAF5EE"/>
<path d="M353.107 271.575L296.08 291.332C292.443 291.332 289.545 288.382 289.545 284.799V256.665C289.545 253.03 292.496 250.133 296.08 250.133L353.107 230.376C356.743 230.376 359.642 233.326 359.642 236.909V265.042C359.642 268.625 356.743 271.575 353.107 271.575Z" fill="#CAF5EE"/>
<path d="M258.502 281.111L198.26 301.974C194.412 301.974 191.355 298.866 191.355 295.073V265.358C191.355 261.512 194.465 258.457 198.26 258.457L258.502 237.594C262.349 237.594 265.406 240.702 265.406 244.495V274.21C265.406 278.056 262.296 281.111 258.502 281.111Z" fill="#2AF3CE"/>
<path opacity="0.51" d="M219.764 243.283L159.522 264.147C155.674 264.147 152.617 261.038 152.617 257.245V227.531C152.617 223.685 155.727 220.629 159.522 220.629L219.764 199.766C223.611 199.766 226.668 202.874 226.668 206.667V236.382C226.668 240.175 223.611 243.283 219.764 243.283Z" fill="white"/>
<path opacity="0.51" d="M248.698 224.844V224.844C247.223 224.844 246.01 223.632 246.01 222.157V177.269C246.01 175.794 247.223 174.582 248.698 174.582V174.582C250.174 174.582 251.386 175.794 251.386 177.269V222.157C251.386 223.632 250.174 224.844 248.698 224.844Z" fill="white"/>
<path opacity="0.51" d="M263.087 137.071V137.071C262.613 135.701 263.298 134.12 264.721 133.646L335.978 108.252C337.348 107.778 338.929 108.463 339.404 109.885V109.885C339.878 111.255 339.193 112.836 337.77 113.31L266.513 138.704C265.143 139.178 263.614 138.441 263.087 137.071Z" fill="white"/>
<path opacity="0.51" d="M263.087 146.765V146.765C262.613 145.395 263.298 143.814 264.721 143.34L335.978 117.946C337.348 117.472 338.929 118.157 339.404 119.579V119.579C339.878 120.949 339.193 122.53 337.77 123.004L266.513 148.398C265.142 148.872 263.614 148.135 263.087 146.765Z" fill="white"/>
<path opacity="0.51" d="M263.087 156.459V156.459C262.613 155.089 263.298 153.508 264.721 153.034L335.978 127.64C337.348 127.166 338.929 127.851 339.404 129.273V129.273C339.878 130.643 339.193 132.224 337.77 132.698L266.513 158.092C265.142 158.566 263.614 157.829 263.087 156.459Z" fill="white"/>
<path opacity="0.51" d="M263.087 166.153V166.153C262.613 164.783 263.298 163.202 264.721 162.728L335.978 137.334C337.348 136.86 338.929 137.545 339.404 138.967V138.967C339.878 140.337 339.193 141.918 337.77 142.392L266.513 167.786C265.142 168.26 263.614 167.575 263.087 166.153Z" fill="white"/>
<path opacity="0.51" d="M263.087 175.847V175.847C262.613 174.477 263.298 172.897 264.721 172.422L335.978 147.028C337.348 146.554 338.929 147.239 339.404 148.661V148.661C339.878 150.031 339.193 151.612 337.77 152.086L266.513 177.48C265.142 178.007 263.614 177.269 263.087 175.847Z" fill="white"/>
<path opacity="0.51" d="M263.087 185.594V185.594C262.613 184.224 263.298 182.643 264.721 182.169L335.978 156.775C337.348 156.301 338.929 156.986 339.404 158.408V158.408C339.878 159.778 339.193 161.359 337.77 161.833L266.513 187.227C265.142 187.701 263.614 186.963 263.087 185.594Z" fill="white"/>
<path opacity="0.51" d="M263.087 195.288V195.288C262.613 193.918 263.298 192.337 264.721 191.863L335.978 166.469C337.348 165.995 338.929 166.68 339.404 168.102V168.102C339.878 169.472 339.193 171.052 337.77 171.527L266.513 196.921C265.142 197.395 263.614 196.657 263.087 195.288Z" fill="white"/>
<path opacity="0.51" d="M263.087 204.982V204.982C262.613 203.612 263.298 202.031 264.721 201.557L335.978 176.163C337.348 175.689 338.929 176.374 339.404 177.796V177.796C339.878 179.166 339.193 180.747 337.77 181.221L266.513 206.615C265.142 207.089 263.614 206.351 263.087 204.982Z" fill="white"/>
<path opacity="0.51" d="M263.087 214.676V214.676C262.613 213.306 263.298 211.725 264.721 211.251L335.978 185.857C337.348 185.383 338.929 186.068 339.404 187.49V187.49C339.878 188.86 339.193 190.441 337.77 190.915L266.513 216.309C265.142 216.783 263.614 216.045 263.087 214.676Z" fill="white"/>
<path opacity="0.51" d="M263.087 224.37V224.37C262.613 223 263.298 221.419 264.721 220.945L335.978 195.551C337.348 195.077 338.929 195.762 339.404 197.184V197.184C339.878 198.554 339.193 200.135 337.77 200.609L266.513 226.003C265.142 226.477 263.614 225.739 263.087 224.37Z" fill="white"/>
<path d="M250.779 59.7293C251.464 59.3078 252.149 58.939 252.834 58.6229C262.268 54.3027 273.389 58.4649 277.711 67.8428C282.033 77.2207 277.869 88.3899 268.487 92.71L266.59 88.6006C273.758 85.3342 276.868 76.8519 273.6 69.6867C270.332 62.5216 261.847 59.4132 254.679 62.6796C254.152 62.9431 253.625 63.2065 253.098 63.5226L250.779 59.7293Z" fill="#E3E5FC"/>
<path d="M262.005 93.2369L270.332 93.9744L266.854 86.3878L262.005 93.2369Z" fill="#E3E5FC"/>
<path d="M260.424 96.2399C259.739 96.6614 259.053 97.0302 258.368 97.3463C248.934 101.666 237.813 97.5043 233.491 88.1264C229.17 78.7485 233.333 67.5793 242.715 63.2592L244.612 67.3686C237.444 70.635 234.335 79.1173 237.602 86.2825C240.87 93.4476 249.356 96.556 256.524 93.2896C257.051 93.0261 257.578 92.7627 258.105 92.4466L260.424 96.2399Z" fill="#E3E5FC"/>
<path d="M249.197 62.7323L240.87 61.9948L244.349 69.5814L249.197 62.7323Z" fill="#E3E5FC"/>
<path d="M116.944 89.6326H35.3986C26.835 89.6326 19.7969 82.638 19.7969 74.0505V56.6677C19.7969 48.1149 26.8003 41.0856 35.3986 41.0856H116.944C125.507 41.0856 132.545 48.0802 132.545 56.6677V74.0505C132.545 82.638 125.507 89.6326 116.944 89.6326Z" fill="#E3E5FC"/>
<path opacity="0.67" d="M97.1815 73.4964H15.6364C7.07279 73.4964 0.034668 66.5018 0.034668 57.9143V19.7899C0.034668 11.237 7.03812 4.20776 15.6364 4.20776H97.1815C105.745 4.20776 112.783 11.2024 112.783 19.7899V57.9143C112.749 66.5018 105.745 73.4964 97.1815 73.4964Z" fill="#8F8DFF"/>
<path d="M22.1547 53.8283C30.3716 65.1514 46.2507 67.6445 57.588 59.4379L27.7713 18.4395C16.434 26.6807 13.9377 42.5053 22.1547 53.8283Z" fill="white"/>
<path d="M30.4409 16.535L44.1011 35.3029L63.2739 21.3828C55.5077 11.1332 40.9114 8.91707 30.4409 16.535Z" fill="white"/>
<path d="M65.4927 24.43C65.3886 24.2915 65.2846 24.1876 65.1806 24.0491L46.0078 37.9691L60.2227 57.4988C70.8666 49.8116 73.2242 34.9912 65.4927 24.43Z" fill="white"/>
<path d="M100.579 32.2556H79.4997C78.4249 32.2556 77.5234 31.39 77.5234 30.2819V30.2819C77.5234 29.2085 78.3902 28.3082 79.4997 28.3082H100.579C101.654 28.3082 102.556 29.1738 102.556 30.2819V30.2819C102.556 31.3553 101.654 32.2556 100.579 32.2556Z" fill="white"/>
<path d="M100.579 38.9041H79.4997C78.4249 38.9041 77.5234 38.0384 77.5234 36.9303V36.9303C77.5234 35.8569 78.3902 34.9566 79.4997 34.9566H100.579C101.654 34.9566 102.556 35.8223 102.556 36.9303V36.9303C102.556 38.0038 101.654 38.9041 100.579 38.9041Z" fill="white"/>
<path d="M100.579 45.5178H79.4997C78.4249 45.5178 77.5234 44.6521 77.5234 43.5441V43.5441C77.5234 42.4706 78.3902 41.5703 79.4997 41.5703H100.579C101.654 41.5703 102.556 42.436 102.556 43.5441V43.5441C102.556 44.6521 101.654 45.5178 100.579 45.5178Z" fill="white"/>
<path d="M100.579 52.1662H79.4997C78.4249 52.1662 77.5234 51.3006 77.5234 50.1925V50.1925C77.5234 49.1191 78.3902 48.2188 79.4997 48.2188H100.579C101.654 48.2188 102.556 49.0844 102.556 50.1925V50.1925C102.556 51.3006 101.654 52.1662 100.579 52.1662Z" fill="white"/>
<path d="M129.886 126.809H42.1822C40.9497 126.809 39.916 125.815 39.916 124.543V119.931C39.916 118.699 40.9099 117.665 42.1822 117.665H129.886C131.118 117.665 132.152 118.659 132.152 119.931V124.543C132.152 125.815 131.158 126.809 129.886 126.809Z" fill="#E3E5FC"/>
<path d="M129.886 142.235H76.4129C75.1804 142.235 74.1467 141.241 74.1467 139.969V135.357C74.1467 134.124 75.1407 133.091 76.4129 133.091H129.886C131.118 133.091 132.152 134.085 132.152 135.357V139.969C132.152 141.241 131.158 142.235 129.886 142.235Z" fill="#E3E5FC"/>
<path d="M129.886 176.823H79.3948C78.1623 176.823 77.1287 175.829 77.1287 174.557V169.945C77.1287 168.713 78.1226 167.679 79.3948 167.679H129.886C131.119 167.679 132.152 168.673 132.152 169.945V174.557C132.152 175.79 131.158 176.823 129.886 176.823Z" fill="#E3E5FC"/>
<path d="M129.886 192.249H99.8296C98.5972 192.249 97.5635 191.255 97.5635 189.983V185.371C97.5635 184.139 98.5574 183.105 99.8296 183.105H129.886C131.118 183.105 132.152 184.099 132.152 185.371V189.983C132.152 191.215 131.158 192.249 129.886 192.249Z" fill="#E3E5FC"/>
<path d="M347.488 292.402C347.488 292.402 367.461 324.411 386.549 342.045C405.636 359.68 427.854 377.745 414.398 410.919C400.943 444.094 361.285 457.679 290.366 455.946C219.448 454.212 194.407 453.834 178.854 418.652C163.301 383.47 215.065 375.58 250.424 364.884C285.783 354.188 347.488 292.402 347.488 292.402Z" fill="#E3E5FC"/>
<path opacity="0.49" d="M350.899 362.278C350.899 362.278 360.627 399.825 325.946 408.738C291.265 417.654 226.553 416.341 202.191 398.994C177.829 381.647 350.899 362.278 350.899 362.278Z" fill="url(#paint0_linear)"/>
<path d="M441.183 427.278C444.617 425.163 446.254 420.53 444.911 416.728C442.713 410.515 437.031 412.61 432.992 409.346C428.235 405.504 433.987 399.461 433.67 394.925C433.323 389.934 428.83 385.114 427.477 380.29C424.373 369.203 436.977 377.478 440.571 376.185C442.075 375.644 443.06 374.134 443.407 372.571C444.289 368.585 442.612 365.365 444.794 361.594C446.902 357.953 450.015 356.309 449.116 351.365C448.609 348.566 446.882 346 446.925 343.154C446.938 342.339 447.169 341.424 447.88 341.026C448.422 340.722 449.096 340.806 449.681 341.01C451.622 341.691 452.898 343.502 454.461 344.841C456.025 346.181 458.537 347.009 460.036 345.6C461.035 344.661 461.132 343.144 461.336 341.788C461.7 339.343 463.417 337.646 465.548 339.059C467.87 340.599 466.981 346.662 466.631 348.836C466.076 352.284 465.234 355.865 466.26 359.205C467.953 364.73 472.583 358.541 474.601 356.71C476.254 355.21 479.017 354.311 480.604 355.878C483.764 358.995 478.683 363.16 478.015 366.113C477.694 367.52 478.108 369.203 479.358 369.925C483.016 372.043 486.106 368.268 486.66 373.903C487.041 377.765 483.547 381.446 485.715 385.308C487.609 388.682 493.912 390.115 491.42 394.848C489.89 397.754 483.303 397.624 483.65 401.76C483.877 404.455 487.929 405.678 487.933 408.384C487.936 410.422 485.564 411.624 483.53 411.728C481.496 411.831 479.351 411.357 477.477 412.152C475.349 413.054 474.117 415.669 474.775 417.888C475.349 419.815 477.143 421.569 476.578 423.5C475.9 425.821 472.683 425.905 470.295 425.534C460.534 424.007 450.082 422.988 441.183 427.278Z" fill="#2AF3CE"/>
<path d="M459.615 426.316C459.268 426.316 458.991 426.035 458.991 425.691V382.141C458.991 381.797 459.271 381.516 459.615 381.516C459.963 381.516 460.24 381.797 460.24 382.141V425.688C460.24 426.035 459.963 426.316 459.615 426.316Z" fill="white"/>
<path d="M459.615 409.366C459.475 409.366 459.338 409.319 459.221 409.226C458.954 409.009 458.91 408.614 459.131 408.344L470.552 394.264C470.773 393.993 471.167 393.956 471.434 394.173C471.701 394.391 471.745 394.785 471.524 395.055L460.103 409.136C459.976 409.286 459.799 409.366 459.615 409.366Z" fill="white"/>
<path d="M459.615 397.474C459.472 397.474 459.328 397.427 459.211 397.327L445.599 385.872C445.335 385.649 445.301 385.254 445.522 384.99C445.746 384.727 446.14 384.693 446.404 384.914L460.016 396.368C460.28 396.592 460.313 396.986 460.093 397.25C459.969 397.4 459.792 397.474 459.615 397.474Z" fill="white"/>
<path d="M439.279 421.175C441.069 433.077 442.683 445.527 445.696 457.011C445.946 457.967 446.24 458.969 446.848 459.583C447.567 460.308 448.542 460.322 449.441 460.302C454.638 460.181 459.846 460.515 465.044 460.485C469.958 460.459 474.016 460.856 474.531 452.695C474.708 449.866 475.156 421.171 477.765 421.171C477.754 421.175 439.279 421.175 439.279 421.175Z" fill="#8F8DFF"/>
<path d="M474.25 428.286H442.793C438.881 428.286 435.677 425.086 435.677 421.171V421.171C435.677 417.26 438.878 414.056 442.793 414.056H474.25C478.162 414.056 481.365 417.256 481.365 421.171V421.171C481.365 425.086 478.162 428.286 474.25 428.286Z" fill="#8F8DFF"/>
<path d="M322.612 166.994C322.612 166.994 326.734 176.153 320.294 181.792C313.853 187.431 305.098 182.968 296.6 188.132C288.101 193.297 289.017 199.417 292.915 213.042C297.552 229.25 302.616 228.766 307.169 229.939C311.722 231.114 313.082 243.798 313.596 249.671C314.11 255.543 314.882 259.535 298.657 267.522C282.433 275.509 291.285 287.726 292.912 303.559C294.712 321.074 273.931 331.175 270.327 335.404C266.722 339.633 258.221 340.338 253.584 331.412C248.948 322.487 272.508 315.916 270.45 301.589C268.389 287.261 255.809 277.621 273.58 263.527C291.352 249.434 287.841 238.163 281.918 226.655C275.995 215.147 273.163 210.684 278.053 195.886C282.944 181.087 277.796 185.55 284.233 173.805C290.677 162.063 314.114 149.142 322.612 166.994Z" fill="#9E7251"/>
<path d="M311.405 236.513L312.698 260.628L331.575 267.907C331.575 267.907 320.224 251.298 322.148 236.509C324.072 221.724 311.405 236.513 311.405 236.513Z" fill="#CC9F7E"/>
<path d="M355.151 314.743C355.151 314.743 353.899 312.449 350.144 300.663C346.389 288.878 345.033 284.495 339.819 273.091C334.604 261.687 323.754 254.561 323.754 254.561L310.195 253.83C310.195 253.83 308.525 253.933 300.705 260.4C292.881 266.868 285.372 285.33 285.372 285.33L282.035 322.046L305.505 339.359L322.094 345.339C321.296 344.273 320.651 343.144 320.25 341.948C317.471 333.687 326.784 287.936 327.098 283.867C327.412 279.799 335.292 318.602 335.292 318.602L342.117 316.621L346.8 331.543L349.73 316.307L355.151 314.743Z" fill="#F2F2F2"/>
<path d="M347.745 334.562L346.797 331.543L345.283 339.413L347.745 334.562Z" fill="url(#paint1_linear)"/>
<path d="M335.286 318.602C335.286 318.602 327.405 279.799 327.091 283.867C326.777 287.936 317.464 333.687 320.243 341.948C320.644 343.144 321.289 344.273 322.087 345.339L339.154 351.489L345.284 339.41L346.797 331.539L342.114 316.617L335.286 318.602Z" fill="#2AF3CE"/>
<path d="M335.286 318.602C335.286 318.602 327.405 279.799 327.091 283.867C326.777 287.936 317.464 333.687 320.243 341.948C320.644 343.144 321.289 344.273 322.087 345.339L339.154 351.489L345.284 339.41L346.797 331.539L342.114 316.617L335.286 318.602Z" fill="#E0E0E0"/>
<path d="M196.983 304.011L292.808 308.634L311.405 326.646L221.9 324.391L196.983 304.011Z" fill="#333333"/>
<path d="M287.343 311.54L200.831 305.697C198.493 305.878 196.465 304.304 196.302 302.177L178.868 255.403C178.704 253.279 180.464 251.408 182.799 251.228L269.311 257.073C271.65 256.893 273.677 258.466 273.841 260.594L291.275 307.368C291.442 309.489 289.678 311.36 287.343 311.54Z" fill="#E3E5FC"/>
<path d="M243.942 285.309C244.97 280.58 241.331 275.774 235.814 274.575C230.298 273.376 224.992 276.238 223.964 280.966C222.936 285.695 226.575 290.501 232.092 291.7C237.609 292.899 242.914 290.038 243.942 285.309Z" fill="#8F8DFF"/>
<path d="M157.562 387.068L133.1 422.895L144.237 432.305L167.54 393.408C167.54 393.405 162.199 387.396 157.562 387.068Z" fill="#CC9F7E"/>
<path d="M83.5572 442.878C83.5572 442.878 92.9673 446.091 110.999 447.427C129.031 448.767 149.158 449.435 152.815 446.759C156.473 444.084 158.825 421.332 152.815 421.332C146.806 421.332 144.468 430.03 133.868 422.267C124.789 415.616 117.533 428.156 101.723 431.5C85.9122 434.844 79.5085 436.187 83.5572 442.878Z" fill="#05D9B2"/>
<path d="M309.831 348.329C307.67 344.263 295.972 346.555 281.952 341.34C267.928 336.126 258.872 325.172 242.942 312.552C227.011 299.932 228.1 302.12 221.225 301.599C214.35 301.078 205.839 319.644 201.035 329.452C190.924 350.102 178.126 368.555 159.009 380.561C153.199 384.209 127.605 398.085 123.329 403.898C114.323 416.13 158.601 416.234 170.179 417.647C181.64 419.043 188.067 412.533 192.704 402.244C197.995 390.509 203.784 379.024 209.567 367.54C212.46 361.794 215.366 356.052 218.202 350.276C219.425 347.787 222.07 338.755 225.02 337.629C234.093 334.175 246.068 361.831 248.614 368.044C253.741 380.561 272.511 395.166 286.151 396.625C299.79 398.085 310.048 389.012 314.521 375.764C318.998 362.516 309.831 348.329 309.831 348.329Z" fill="#333333"/>
<path d="M204.225 389.784L179.763 425.611L190.9 435.021L214.203 396.124C214.2 396.121 208.862 390.111 204.225 389.784Z" fill="#D9AF91"/>
<path d="M130.221 445.593C130.221 445.593 139.631 448.807 157.663 450.143C175.695 451.483 195.821 452.151 199.479 449.475C203.137 446.799 205.488 424.047 199.479 424.047C193.469 424.047 191.131 432.746 180.532 424.983C171.452 418.332 164.197 430.872 148.386 434.216C132.576 437.56 126.169 438.902 130.221 445.593Z" fill="#2AF3CE"/>
<path d="M345.241 348.329C343.176 344.263 331.992 346.555 318.59 341.34C305.188 336.126 296.53 325.172 281.3 312.552C266.071 299.932 267.113 302.12 260.543 301.599C253.972 301.078 245.834 319.644 241.245 329.452C227.124 359.619 198.066 379.866 171.619 398.493C169.975 399.648 168.131 401.255 168.472 403.236C168.646 404.245 169.367 405.06 170.106 405.772C179.917 415.242 198.296 419.501 211.504 418.883C224.803 418.262 232.022 407.165 237.046 396.191C246.032 376.559 254.81 356.329 265.727 337.696C269.829 330.701 282.904 358.941 284.04 361.57C290.811 377.271 304.253 394.571 322.609 396.625C335.647 398.085 345.451 389.012 349.73 375.764C354.003 362.516 345.241 348.329 345.241 348.329Z" fill="#474448"/>
<path d="M294.538 185.179C294.538 185.179 284.457 192.615 288.469 209.318C292.481 226.02 304.957 240.284 309.992 239.279C323.911 236.499 328.792 226.662 333.619 218.22C339.538 207.868 327.786 182.614 327.786 182.614L316.686 176.628L294.538 185.179Z" fill="#D9AF91"/>
<path d="M314.628 177.8C314.628 177.8 321.633 180.149 327.79 190.013C333.946 199.877 329.908 201.488 329.908 214.713C329.908 218.577 329.183 222.386 327.088 225.679C325.568 228.071 323.4 229.955 321.827 232.3C319.84 235.26 319.205 238.6 319.365 242.131C319.703 249.597 320.895 255.797 327.526 260.013C334.695 264.569 338.038 270.656 339.922 278.88C342.177 288.728 358.412 294.3 364.078 290.541C369.743 286.783 352.843 289.292 356.194 273.087C359.541 256.879 360.69 250.001 350.903 245.498C341.115 240.995 345.792 239.806 350.943 229.942C356.094 220.077 342.815 220.198 348.057 203.028C354.106 183.208 348.624 161.121 319.004 167.228C289.384 173.334 314.628 177.8 314.628 177.8Z" fill="#9E7251"/>
<path d="M307.416 196.661C315.914 191.493 313.857 187.428 320.297 181.792C326.734 176.153 322.615 166.994 322.615 166.994C314.117 149.142 290.68 162.06 284.24 173.805C277.799 185.55 282.954 181.087 278.06 195.886C274.686 206.084 274.987 211.375 277.439 217.448L291.292 223.057C285.683 201.778 301.022 200.546 307.416 196.661Z" fill="#9E7251"/>
<path d="M341.903 333.935C341.903 333.935 341.903 339.67 339.712 338.628C337.52 337.586 316.973 324.755 314.261 321.732C311.548 318.705 305.185 307.755 304.874 305.564C304.56 303.372 305.605 303.269 301.326 303.894C297.05 304.518 289.331 306.92 290.48 308.273C291.626 309.629 294.859 308.69 294.859 308.69C294.859 308.69 291.071 311.089 292.912 311.403C294.752 311.717 300.177 310.671 300.177 312.342C300.177 314.012 299.863 319.644 301.116 322.46C302.369 325.276 303.932 326.215 308.001 327.153C312.069 328.092 312.788 327.778 316.131 331.222C319.475 334.666 338.145 351.248 340.544 352.083C342.942 352.918 343.984 354.378 346.907 349.057C349.83 343.735 351.915 339.67 352.122 331.326C352.329 322.981 351.39 314.951 351.39 314.951L342.107 316.621C342.114 316.621 342.945 326.008 341.903 333.935Z" fill="#D9AF91"/>
<defs>
<linearGradient id="paint0_linear" x1="363.036" y1="405.43" x2="361.28" y2="350.731" gradientUnits="userSpaceOnUse">
<stop stop-color="#A7ADFF"/>
<stop offset="1" stop-color="#E3E5FC"/>
</linearGradient>
<linearGradient id="paint1_linear" x1="357.939" y1="302.153" x2="315.609" y2="287.185" gradientUnits="userSpaceOnUse">
<stop stop-color="#A7ADFF"/>
<stop offset="1" stop-color="#E3E5FC"/>
</linearGradient>
</defs>
</svg>
