<svg width="400" height="300" viewBox="0 0 400 300" fill="none" xmlns="http://www.w3.org/2000/svg">
<path opacity="0.32" d="M144.584 170.12C136.887 164.848 128.896 159.858 122.11 153.367L63.2694 188.951L99.9436 209.347L153.91 177.278C150.818 174.854 147.791 172.301 144.584 170.12Z" fill="#F5F5F5"/>
<path opacity="0.32" d="M216.252 208.565C208.555 203.292 206.939 206.628 200.153 200.137L144.661 230.59L171.599 247.792L225.565 215.722C222.486 213.298 219.446 210.732 216.252 208.565Z" fill="#F5F5F5"/>
<path opacity="0.32" d="M292.345 246.291C284.649 241.018 283.032 244.354 276.247 237.863L220.78 268.316L247.718 285.517L319.116 245.008C316.038 242.571 295.539 248.458 292.345 246.291Z" fill="#F5F5F5"/>
<path opacity="0.32" d="M126.176 143.387L53.6742 186.411L17 166.015L89.2453 122.324" fill="#F5F5F5"/>
<path d="M180.257 65.5364V111.883L98.6737 159.396V104.712L180.257 65.5364Z" fill="#CBCBCB"/>
<path d="M62.7048 137.73V90.7941L98.6735 111.562V159.396" fill="#05D9B2"/>
<path d="M98.6735 159.396V111.562L62.7048 90.7941V137.73L98.6735 159.396Z" fill="#474448"/>
<path d="M98.3273 112.114L62.4355 91.397L146.315 43.691L180.257 65.5365L98.3273 112.114Z" fill="white"/>
<path d="M141.21 45.4739C135.822 45.0121 130.153 43.383 126.176 39.7015V55.6591C126.174 57.8349 126.601 59.9898 127.433 62.0004C128.264 64.0111 129.484 65.8383 131.022 67.3774C132.56 68.9166 134.386 70.1375 136.396 70.9706C138.406 71.8036 140.561 72.2324 142.737 72.2324V72.2324C147.129 72.2324 151.341 70.4876 154.447 67.3819C157.552 64.2763 159.297 60.064 159.297 55.6719V39.4321C153.64 41.7283 147.226 45.9999 141.21 45.4739Z" fill="#05D9B2"/>
<path d="M142.737 48.373C151.883 48.373 159.297 44.4447 159.297 39.5989C159.297 34.7531 151.883 30.8248 142.737 30.8248C133.59 30.8248 126.176 34.7531 126.176 39.5989C126.176 44.4447 133.59 48.373 142.737 48.373Z" fill="#5ED18D"/>
<path d="M142.736 41.0484C142.736 41.0484 131.474 39.3936 128.485 21.1655C128.485 21.204 138.093 26.5018 142.736 41.0484Z" fill="#5ED18D"/>
<path d="M144.391 38.7651C144.391 38.7651 131.474 15.5728 144.391 0C148.335 12.6208 148.335 26.1443 144.391 38.7651V38.7651Z" fill="#5ED18D"/>
<path d="M142.736 24.1929C142.736 24.1929 131.474 22.5381 128.485 4.31006C128.485 4.31006 138.093 9.60787 142.736 24.1929Z" fill="#5ED18D"/>
<path d="M144.109 31.6202C144.109 31.6202 141.287 20.5884 156.937 10.8009C156.937 10.8009 155.757 21.7044 144.109 31.6202Z" fill="#5ED18D"/>
<path d="M142.737 48.373C151.883 48.373 159.297 44.4447 159.297 39.5989C159.297 34.7531 151.883 30.8248 142.737 30.8248C133.59 30.8248 126.176 34.7531 126.176 39.5989C126.176 44.4447 133.59 48.373 142.737 48.373Z" fill="#474448"/>
<path d="M142.736 41.0484C142.736 41.0484 131.474 39.3936 128.485 21.1655C128.485 21.204 138.093 26.5018 142.736 41.0484Z" fill="#05D9B2"/>
<path d="M144.391 38.7651C144.391 38.7651 131.474 15.5728 144.391 0C148.335 12.6208 148.335 26.1443 144.391 38.7651V38.7651Z" fill="#05D9B2"/>
<path d="M142.736 24.1929C142.736 24.1929 131.474 22.5381 128.485 4.31006C128.485 4.31006 138.093 9.60787 142.736 24.1929Z" fill="#05D9B2"/>
<path d="M144.109 31.6202C144.109 31.6202 141.287 20.5884 156.937 10.8009C156.937 10.8009 155.757 21.7044 144.109 31.6202Z" fill="#05D9B2"/>
<path d="M97.7757 101.133C113.284 101.133 125.855 93.7703 125.855 84.688C125.855 75.6056 113.284 68.2429 97.7757 68.2429C82.2678 68.2429 69.696 75.6056 69.696 84.688C69.696 93.7703 82.2678 101.133 97.7757 101.133Z" fill="#474448"/>
<path d="M69.696 84.688V79.9418L72.749 83.7388L69.696 84.688Z" fill="#474448"/>
<path d="M125.843 79.9418V84.688H122.289L124.893 80.8782L125.843 79.9418Z" fill="#474448"/>
<path d="M97.7757 96.3869C113.284 96.3869 125.855 89.0242 125.855 79.9419C125.855 70.8595 113.284 63.4968 97.7757 63.4968C82.2678 63.4968 69.696 70.8595 69.696 79.9419C69.696 89.0242 82.2678 96.3869 97.7757 96.3869Z" fill="#FFC050"/>
<path d="M112.014 77.7484C112.215 78.1441 112.291 78.5914 112.232 79.0312L112.117 79.4673H106.986C107.03 79.3251 107.06 79.1791 107.076 79.0312C107.057 78.6975 106.951 78.3746 106.768 78.0948C106.47 77.5896 106.021 77.1904 105.485 76.9531C104.739 76.5653 103.914 76.3505 103.073 76.3245C102.296 76.265 101.515 76.3834 100.79 76.6709C100.072 76.9788 99.7939 77.3807 99.9564 77.8767C100.197 78.485 100.57 79.0326 101.047 79.4801C101.6 80.0426 102.118 80.638 102.599 81.2632C102.827 81.5324 102.975 81.8607 103.025 82.2102C103.075 82.5597 103.025 82.9162 102.881 83.2386C102.318 84.1688 101.432 84.8585 100.392 85.1756C98.6714 85.8913 96.8302 86.2744 94.9664 86.3045C92.9533 86.373 90.9436 86.0909 89.0272 85.4707L86.0769 86.7534L82.6262 85.073L85.4868 83.7902C84.9688 83.4323 84.5063 83.0001 84.1142 82.5075C83.8195 82.1718 83.5891 81.7848 83.4344 81.3658C83.336 81.0667 83.2757 80.7564 83.2548 80.4422C83.2203 80.2298 83.2203 80.0132 83.2548 79.8008L83.3574 79.5571H88.4885C88.4347 79.7252 88.3918 79.8966 88.3602 80.0702C88.3814 80.4908 88.524 80.8962 88.7707 81.2375C89.1797 81.8772 89.7689 82.3815 90.4639 82.6871C91.3899 83.1523 92.4045 83.4147 93.4399 83.4567C94.3762 83.5211 95.3148 83.372 96.185 83.0206C96.8948 82.7127 97.1599 82.3108 96.9804 81.8148C96.7287 81.2026 96.343 80.6547 95.8515 80.2113C95.2875 79.6555 94.7645 79.0596 94.2866 78.4283C94.0617 78.1535 93.9214 77.8194 93.8827 77.4665C93.844 77.1135 93.9085 76.757 94.0685 76.44C94.6681 75.5034 95.5752 74.8049 96.634 74.4645C98.2895 73.7961 100.057 73.4478 101.842 73.4383C103.731 73.3734 105.615 73.665 107.396 74.2978L110.334 73.015L113.554 74.7724L110.603 76.0552C111.216 76.4837 111.703 77.0683 112.014 77.7484V77.7484Z" fill="#474448"/>
<path d="M97.8141 93.9496C110.828 93.9496 121.379 87.77 121.379 80.147C121.379 72.5241 110.828 66.3445 97.8141 66.3445C84.7999 66.3445 74.2498 72.5241 74.2498 80.147C74.2498 87.77 84.7999 93.9496 97.8141 93.9496Z" stroke="#474448" stroke-width="6" stroke-miterlimit="10"/>
<path d="M97.7757 92.0768C113.284 92.0768 125.855 84.7141 125.855 75.6318C125.855 66.5495 113.284 59.1868 97.7757 59.1868C82.2678 59.1868 69.696 66.5495 69.696 75.6318C69.696 84.7141 82.2678 92.0768 97.7757 92.0768Z" fill="#474448"/>
<path d="M69.696 75.6318V70.8856L72.749 74.6826L69.696 75.6318Z" fill="#474448"/>
<path d="M125.843 70.8856V75.6318H122.289L124.893 71.822L125.843 70.8856Z" fill="#474448"/>
<path d="M97.7757 87.3305C113.284 87.3305 125.855 79.9678 125.855 70.8855C125.855 61.8031 113.284 54.4404 97.7757 54.4404C82.2678 54.4404 69.696 61.8031 69.696 70.8855C69.696 79.9678 82.2678 87.3305 97.7757 87.3305Z" fill="#FFC050"/>
<path d="M112.014 68.6792C112.215 69.0749 112.291 69.5222 112.232 69.962L112.117 70.3981H106.986C107.03 70.2559 107.06 70.1099 107.076 69.962C107.057 69.6283 106.951 69.3054 106.768 69.0255C106.47 68.5204 106.021 68.1212 105.485 67.8839C104.739 67.4961 103.914 67.2812 103.073 67.2553C102.296 67.1958 101.515 67.3142 100.79 67.6017C100.072 67.9095 99.7939 68.3115 99.9564 68.8075C100.197 69.4158 100.57 69.9633 101.047 70.4109C101.6 70.9734 102.118 71.5688 102.599 72.194C102.827 72.4632 102.975 72.7915 103.025 73.141C103.075 73.4905 103.025 73.847 102.881 74.1694C102.318 75.0996 101.432 75.7893 100.392 76.1064C98.6714 76.8221 96.8302 77.2052 94.9664 77.2352C92.9533 77.3038 90.9436 77.0217 89.0272 76.4014L86.0769 77.6842L82.6262 76.0038L85.4868 74.721C84.9688 74.3631 84.5063 73.9309 84.1142 73.4383C83.8195 73.1026 83.5891 72.7156 83.4344 72.2966C83.336 71.9975 83.2757 71.6872 83.2548 71.373C83.2203 71.1606 83.2203 70.944 83.2548 70.7316L83.3574 70.4879H88.4885C88.4347 70.656 88.3918 70.8274 88.3602 71.001C88.3814 71.4216 88.524 71.827 88.7707 72.1683C89.1797 72.808 89.7689 73.3123 90.4639 73.6178C91.3899 74.0831 92.4045 74.3455 93.4399 74.3875C94.3762 74.4519 95.3148 74.3028 96.185 73.9514C96.8948 73.6435 97.1599 73.2416 96.9804 72.7456C96.7287 72.1334 96.343 71.5855 95.8515 71.1421C95.2875 70.5863 94.7645 69.9904 94.2866 69.3591C94.0617 69.0843 93.9214 68.7502 93.8827 68.3973C93.844 68.0443 93.9085 67.6877 94.0685 67.3708C94.6681 66.4341 95.5752 65.7357 96.634 65.3953C98.2895 64.7269 100.057 64.3786 101.842 64.3691C103.731 64.3042 105.615 64.5958 107.396 65.2286L110.334 63.9458L113.554 65.7032L110.603 66.986C111.216 67.4145 111.703 67.9991 112.014 68.6792V68.6792Z" fill="#474448"/>
<path d="M97.8141 84.8805C110.828 84.8805 121.379 78.7009 121.379 71.0779C121.379 63.455 110.828 57.2754 97.8141 57.2754C84.7999 57.2754 74.2498 63.455 74.2498 71.0779C74.2498 78.7009 84.7999 84.8805 97.8141 84.8805Z" stroke="#474448" stroke-width="2" stroke-miterlimit="10"/>
<path d="M86.7952 85.1498C102.303 85.1498 114.875 77.7871 114.875 68.7048C114.875 59.6225 102.303 52.2598 86.7952 52.2598C71.2872 52.2598 58.7155 59.6225 58.7155 68.7048C58.7155 77.7871 71.2872 85.1498 86.7952 85.1498Z" fill="#474448"/>
<path d="M58.7155 68.7048V63.9586L61.7685 67.7556L58.7155 68.7048Z" fill="#474448"/>
<path d="M114.875 63.9586V68.7048H111.309L113.913 64.895L114.875 63.9586Z" fill="#474448"/>
<path d="M86.7952 80.4036C102.303 80.4036 114.875 73.0409 114.875 63.9586C114.875 54.8762 102.303 47.5135 86.7952 47.5135C71.2872 47.5135 58.7155 54.8762 58.7155 63.9586C58.7155 73.0409 71.2872 80.4036 86.7952 80.4036Z" fill="#FFC050"/>
<path d="M101.047 61.7652C101.247 62.1609 101.323 62.6082 101.265 63.048L101.149 63.4841H96.0183C96.062 63.3419 96.0921 63.1959 96.108 63.048C96.0891 62.7143 95.9829 62.3914 95.8002 62.1115C95.5022 61.6064 95.0537 61.2072 94.5174 60.9699C93.7709 60.5821 92.9467 60.3672 92.1058 60.3413C91.3283 60.2818 90.5474 60.4002 89.8225 60.6877C89.1042 60.9955 88.8262 61.3975 88.9887 61.8935C89.2295 62.5018 89.6019 63.0493 90.0791 63.4969C90.632 64.0594 91.1503 64.6548 91.6312 65.28C91.8597 65.5492 92.0074 65.8775 92.0573 66.227C92.1073 66.5765 92.0574 66.933 91.9134 67.2554C91.3839 68.1999 90.5255 68.9167 89.5018 69.2694C87.7807 69.9851 85.9395 70.3681 84.0757 70.3982C82.0626 70.4668 80.0529 70.1846 78.1365 69.5644L75.1862 70.8472L71.7355 69.1667L74.5961 67.884C74.0781 67.5261 73.6156 67.0939 73.2235 66.6012C72.9288 66.2656 72.6984 65.8786 72.5437 65.4596C72.4454 65.1604 72.385 64.8501 72.3641 64.536C72.3296 64.3236 72.3296 64.107 72.3641 63.8946L72.4667 63.6509H77.5978C77.544 63.819 77.5011 63.9903 77.4695 64.164C77.4907 64.5845 77.6333 64.99 77.88 65.3313C78.289 65.9709 78.8782 66.4752 79.5732 66.7808C80.4992 67.2461 81.5138 67.5085 82.5492 67.5505C83.4855 67.6149 84.4242 67.4657 85.2943 67.1143C86.0041 66.8065 86.2692 66.4045 86.0897 65.9085C85.838 65.2964 85.4523 64.7484 84.9608 64.3051C84.3968 63.7493 83.8738 63.1534 83.3959 62.522C83.171 62.2473 83.0307 61.9132 82.992 61.5602C82.9533 61.2073 83.0178 60.8507 83.1778 60.5338C83.7774 59.5971 84.6845 58.8986 85.7433 58.5583C87.3988 57.8898 89.166 57.5416 90.9513 57.5321C92.8403 57.4672 94.7247 57.7587 96.5057 58.3915L99.4432 57.1088L102.663 58.8662L99.7126 60.1489C100.287 60.5661 100.746 61.1222 101.047 61.7652V61.7652Z" fill="#474448"/>
<path d="M86.8466 77.9664C99.8609 77.9664 110.411 71.7868 110.411 64.1639C110.411 56.5409 99.8609 50.3613 86.8466 50.3613C73.8324 50.3613 63.2822 56.5409 63.2822 64.1639C63.2822 71.7868 73.8324 77.9664 86.8466 77.9664Z" stroke="#474448" stroke-width="2" stroke-miterlimit="10"/>
<path d="M111.578 161.32L144.93 141.515C145.608 141.113 146.381 140.901 147.168 140.901C147.956 140.901 148.729 141.113 149.407 141.515L175.768 157.164C176.427 157.557 176.971 158.116 177.347 158.785C177.722 159.454 177.916 160.21 177.908 160.977C177.9 161.744 177.691 162.496 177.302 163.157C176.913 163.818 176.358 164.366 175.691 164.745L143.84 182.82C143.182 183.19 142.44 183.385 141.685 183.385C140.93 183.385 140.187 183.19 139.53 182.82L111.681 167.157C111.164 166.87 110.732 166.451 110.428 165.944C110.124 165.437 109.958 164.859 109.948 164.268C109.938 163.677 110.083 163.094 110.369 162.576C110.655 162.059 111.072 161.626 111.578 161.32V161.32Z" fill="#474448"/>
<path d="M109.924 164.181L109.936 158.729L113.695 159.909L112.592 164.296L109.924 164.181Z" fill="#474448"/>
<path d="M177.884 160.576V155.471L174.703 156.959L176.204 159.909L177.884 160.576Z" fill="#474448"/>
<path d="M111.578 155.83L144.93 136.024C145.607 135.622 146.381 135.41 147.168 135.41C147.956 135.41 148.729 135.622 149.407 136.024L175.768 151.674C176.427 152.067 176.971 152.626 177.347 153.295C177.722 153.964 177.916 154.72 177.908 155.487C177.9 156.254 177.691 157.006 177.302 157.667C176.913 158.328 176.357 158.876 175.691 159.255L143.84 177.329C143.182 177.7 142.44 177.895 141.685 177.895C140.929 177.895 140.187 177.7 139.53 177.329L111.655 161.628C111.149 161.336 110.727 160.917 110.431 160.413C110.135 159.908 109.976 159.336 109.968 158.751C109.96 158.166 110.105 157.59 110.387 157.078C110.669 156.566 111.08 156.136 111.578 155.83V155.83Z" fill="#8F8DFF"/>
<path d="M140.081 148.929L143.84 147.325L151.78 162.577L148.021 164.181L140.081 148.929Z" fill="white"/>
<path d="M158.374 152.739C160.083 152.706 161.782 153.025 163.364 153.675C164.646 154.265 165.339 154.958 165.339 155.894C165.339 156.831 164.646 157.523 163.235 158.113C159.961 159.276 156.381 159.244 153.127 158.024C151.844 157.434 151.152 156.741 151.152 155.805C151.152 154.868 151.831 154.175 153.243 153.572C154.876 152.939 156.624 152.655 158.374 152.739ZM161.247 155.894C161.247 155.548 160.939 155.227 160.336 154.945C159.668 154.656 158.948 154.507 158.22 154.509C157.497 154.478 156.775 154.6 156.103 154.868C155.5 155.125 155.192 155.432 155.205 155.779C155.218 156.125 155.513 156.446 156.116 156.728C156.784 157.017 157.504 157.166 158.232 157.164C158.955 157.195 159.677 157.073 160.349 156.805C160.952 156.549 161.247 156.241 161.247 155.894Z" fill="white"/>
<path d="M140.736 155.702C140.736 156.587 140.043 157.331 138.632 157.921C135.352 159.084 131.766 159.047 128.511 157.819C127.228 157.216 126.548 156.536 126.535 155.599C126.522 154.663 127.241 153.983 128.639 153.38C131.913 152.213 135.495 152.245 138.747 153.47C140.068 154.086 140.736 154.817 140.736 155.702ZM131.525 156.549C132.193 156.838 132.914 156.986 133.642 156.985C134.365 157.016 135.086 156.893 135.758 156.626C136.361 156.369 136.669 156.061 136.656 155.715C136.644 155.368 136.348 155.048 135.746 154.766C134.393 154.213 132.881 154.19 131.512 154.701C130.91 154.958 130.615 155.266 130.615 155.612C130.615 155.958 130.922 156.279 131.525 156.561" fill="white"/>
<path d="M326.48 32.1461C321.167 32.4242 315.95 33.6719 311.086 35.8276C303.39 39.3553 326.48 45.6151 326.48 45.6151" fill="#FFC050"/>
<path d="M337.8 83.0727C350.335 78.6999 356.614 64.0224 351.824 50.2894C347.033 36.5564 332.988 28.9684 320.452 33.3412C307.917 37.7139 301.638 52.3914 306.428 66.1244C311.219 79.8574 325.264 87.4454 337.8 83.0727Z" fill="#474448"/>
<path d="M330.618 84.6572C343.153 80.2845 349.432 65.607 344.641 51.874C339.851 38.141 325.806 30.553 313.27 34.9257C300.734 39.2985 294.456 53.976 299.246 67.709C304.036 81.442 318.082 89.03 330.618 84.6572Z" fill="#FFC050"/>
<path d="M329.544 81.5808C340.535 77.7471 346.041 64.8838 341.844 52.8499C337.646 40.816 325.334 34.1685 314.343 38.0022C303.353 41.8359 297.846 54.6991 302.044 66.7331C306.242 78.767 318.554 85.4145 329.544 81.5808Z" stroke="#474448" stroke-miterlimit="10"/>
<path d="M326.98 47.3981C327.678 47.7335 328.326 48.1653 328.904 48.6808L329.456 49.2709L326.377 52.5933C326.24 52.4393 326.052 52.2469 325.813 52.016C325.345 51.648 324.832 51.3419 324.286 51.1053C323.545 50.7349 322.729 50.5417 321.9 50.5409C321.043 50.5045 320.2 50.7776 319.527 51.3105C319.248 51.5276 319.021 51.8057 318.866 52.1237C318.71 52.4416 318.629 52.7909 318.629 53.1449C318.64 53.5554 318.766 53.9547 318.993 54.2971C319.22 54.6396 319.538 54.9115 319.912 55.0818C320.84 55.6353 321.836 56.0664 322.875 56.3646C324.038 56.6981 325.206 57.0872 326.377 57.5319C327.556 57.9815 328.589 58.7444 329.366 59.7383C330.234 60.8546 330.687 62.2374 330.649 63.6507C330.69 65.39 330.082 67.0822 328.943 68.3969C327.676 69.7726 325.98 70.6772 324.132 70.9625V74.3105H319.643V71.0907C318.766 70.9607 317.906 70.737 317.077 70.4237C316.362 70.1676 315.675 69.8411 315.025 69.4488C314.527 69.1388 314.047 68.8004 313.588 68.4354C313.269 68.1889 312.969 67.9187 312.69 67.6273L312.408 67.2809L315.397 64.1382C315.551 64.3177 315.773 64.5486 316.064 64.8308C316.645 65.2975 317.288 65.6817 317.975 65.9725C318.94 66.4486 320.003 66.6945 321.079 66.6909C322.124 66.7482 323.155 66.4347 323.991 65.8057C324.323 65.5403 324.589 65.2021 324.769 64.8173C324.95 64.4325 325.039 64.0114 325.03 63.5866C325.019 63.1745 324.892 62.7738 324.666 62.4294C324.439 62.085 324.121 61.8106 323.747 61.6368C322.818 61.0771 321.817 60.6456 320.771 60.354C319.6 60.029 318.433 59.6442 317.27 59.1995C316.096 58.7473 315.067 57.9847 314.294 56.9932C313.426 55.8769 312.972 54.494 313.011 53.0807C313.044 51.4587 313.69 49.9095 314.819 48.745C316.036 47.4101 317.676 46.5357 319.463 46.2693V42.9597H323.953V46.3077C325.012 46.5142 326.033 46.8819 326.98 47.3981V47.3981Z" fill="#474448"/>
<path d="M332.047 165.887L342.54 171.839V126.557L350.788 131.304L337.858 101.287L324.094 116.667L332.47 121.234L332.047 165.887Z" fill="#05D9B2"/>
<path d="M364.732 186.001L375.225 191.748V110.215L383.473 114.961L370.543 84.9575L356.779 100.338L365.155 104.904L364.732 186.001Z" fill="#05D9B2"/>
<path d="M267.69 77.7625C284.92 71.1312 293.277 51.1766 286.355 33.1926C279.434 15.2087 259.855 6.00556 242.625 12.6369C225.395 19.2682 217.038 39.2228 223.959 57.2067C230.881 75.1907 250.459 84.3938 267.69 77.7625Z" fill="#474448"/>
<path d="M264.997 78.8019C281.421 72.481 289.124 52.7781 282.202 34.7941C275.281 16.8102 256.356 7.35541 239.933 13.6763C223.509 19.9971 215.806 39.7001 222.727 57.684C229.649 75.668 248.574 85.1227 264.997 78.8019Z" fill="#F5F5F5"/>
<path d="M214.186 38.765L254.221 46.1794L233.928 9.146C233.928 9.146 216.264 17.8175 214.186 38.765Z" fill="#05D9B2"/>
<path opacity="0.24" d="M254.222 46.1794L284.264 42.3312C284.264 42.3312 283.687 25.1678 264.266 14.8287C260.05 12.7209 255.401 11.6235 250.688 11.6235C245.974 11.6235 241.325 12.7209 237.109 14.8287L254.222 46.1794Z" fill="#474448"/>
<path opacity="0.53" d="M269.807 218.545L328.994 213.413C328.994 213.413 334.33 218.147 333.304 219.725L269.807 225.112C269.807 225.112 267.575 219.853 269.807 218.545Z" fill="white"/>
<path opacity="0.53" d="M272.039 230.012L334.33 225.125L332.522 227.562L274.117 232.514L272.039 230.012Z" fill="white"/>
<path d="M300.889 247.343C278.645 247.343 261.225 235.798 261.225 221.136C261.225 206.474 278.645 194.98 300.889 194.98C323.132 194.98 340.552 206.525 340.552 221.187C340.552 235.849 323.132 247.343 300.889 247.343ZM300.889 203.908C284.213 203.908 270.205 211.797 270.205 221.136C270.205 230.474 284.315 238.363 300.889 238.363C317.462 238.363 331.572 230.474 331.572 221.136C331.572 211.797 317.513 203.959 300.889 203.959V203.908Z" fill="#8F8DFF"/>
<path d="M269.435 231L220.485 260.068C213.391 264.275 219.843 275.371 226.899 271.138L275.849 242.07C282.943 237.863 276.49 226.767 269.435 231Z" fill="#8F8DFF"/>
<g opacity="0.24">
<path opacity="0.24" d="M300.889 247.343C278.645 247.343 261.225 235.798 261.225 221.136C261.225 206.474 278.645 194.98 300.889 194.98C323.132 194.98 340.552 206.525 340.552 221.187C340.552 235.849 323.132 247.343 300.889 247.343ZM300.889 203.908C284.213 203.908 270.205 211.797 270.205 221.136C270.205 230.474 284.315 238.363 300.889 238.363C317.462 238.363 331.572 230.474 331.572 221.136C331.572 211.797 317.513 203.959 300.889 203.959V203.908Z" fill="#474448"/>
<path opacity="0.24" d="M269.435 231L220.485 260.068C213.391 264.275 219.843 275.371 226.899 271.138L275.849 242.07C282.943 237.863 276.49 226.767 269.435 231Z" fill="#474448"/>
</g>
<path d="M199.614 66.7935C194.49 71.2044 190.615 76.8843 188.377 83.2642C184.426 94.1548 194.291 111.972 194.291 111.972L209.684 99.8375" fill="#F5F5F5"/>
<path d="M197.921 210.912L193.752 208.603L194.804 202.651C194.804 202.651 201.013 203.228 201.551 205.447" fill="#474448"/>
<path d="M199.486 210.822C200.423 210.245 201.41 209.745 202.372 209.219C204.784 207.936 208.26 206.538 209.735 204.088C210.032 203.592 210.172 203.019 210.138 202.442C210.104 201.865 209.896 201.312 209.543 200.855C207.349 198.213 202.59 202.549 200.14 199.573C199.653 198.995 199.435 189.823 199.435 189.823L190.148 192.389C190.148 192.389 188.57 210.81 188.749 211.951C188.929 213.093 192.123 214.183 192.123 214.183C193.071 213.997 193.978 213.645 194.804 213.144C195.779 212.439 194.894 203.793 196.087 205.011C197.28 206.23 197.87 210.951 197.87 210.951C198.412 210.976 198.955 210.933 199.486 210.822V210.822Z" fill="#333333"/>
<path d="M215.687 219.814L211.518 217.505L212.57 211.553C212.57 211.553 218.779 212.131 219.318 214.35" fill="#474448"/>
<path d="M217.265 219.725C218.202 219.147 219.189 218.647 220.151 218.121C222.563 216.838 226.039 215.44 227.514 212.99C227.811 212.494 227.951 211.921 227.917 211.344C227.883 210.768 227.675 210.215 227.322 209.758C225.128 207.115 220.369 211.451 217.919 208.475C217.432 207.898 217.214 198.726 217.214 198.726L207.927 201.291C207.927 201.291 206.349 219.712 206.528 220.854C206.708 221.995 209.902 223.086 209.902 223.086C210.85 222.899 211.757 222.548 212.583 222.046C213.558 221.341 212.673 212.695 213.866 213.914C215.059 215.132 215.649 219.853 215.649 219.853C216.191 219.879 216.734 219.836 217.265 219.725V219.725Z" fill="#333333"/>
<path d="M185.44 159.922L182.759 196.507C182.759 196.507 187.107 202.523 201.731 199.175L201.872 174.507" fill="#474448"/>
<path d="M202.385 167.17C202.065 170.325 202.385 205.075 202.385 205.075C202.385 205.075 206.426 212.644 224.038 205.075L223.795 175.572" fill="#474448"/>
<path d="M186.992 169.325C191.55 171.99 196.39 174.141 201.423 175.739H201.538C201.775 175.639 202.042 175.635 202.281 175.728C202.521 175.822 202.715 176.005 202.821 176.239C205.928 177.153 209.09 177.869 212.288 178.381C216.393 179.035 219.805 175.995 224.012 175.816C224.012 159.666 224.089 113.64 217.214 103.981L196.882 97.1821C196.792 98.8625 187.005 110.202 187.236 124.018C187.38 136.303 186.763 148.585 185.388 160.794" fill="#474448"/>
<path d="M219.061 85.2395L217.188 103.775C217.188 103.775 202 104.391 195.458 99.9272V84.1492" fill="#F5F5F5"/>
<path d="M238.405 73.0406L236.853 75.1572C237.678 73.4378 238.406 71.6734 239.034 69.8722C239.47 68.5894 237.494 68.1533 237.058 69.3719L236.827 70.0005C237.015 69.3506 237.191 68.6921 237.353 68.025C237.42 67.7631 237.379 67.4855 237.241 67.2533C237.103 67.0212 236.878 66.8535 236.616 66.7872C236.354 66.7208 236.076 66.7613 235.844 66.8996C235.612 67.0379 235.444 67.2628 235.378 67.5248C234.95 69.2384 234.436 70.9295 233.838 72.5917C234.171 71.1159 234.411 69.6207 234.557 68.1148C234.685 66.8321 232.658 66.8321 232.53 68.1148C232.366 69.847 232.061 71.563 231.619 73.2459C231.619 72.6644 231.568 72.0828 231.465 71.5013C231.451 71.3564 231.405 71.2162 231.332 71.0901C231.259 70.9641 231.16 70.855 231.042 70.7701C231.042 70.5392 230.914 70.3212 230.837 70.0903C230.755 69.8679 230.599 69.6806 230.395 69.5603C230.19 69.4401 229.951 69.3942 229.717 69.4304C229.482 69.4667 229.268 69.5829 229.11 69.7593C228.952 69.9357 228.859 70.1614 228.849 70.3981L228.72 78.0947C228.352 78.886 227.873 79.6204 227.296 80.2754C228.278 80.9625 229.224 81.6989 230.131 82.4818C230.941 83.1787 231.712 83.9195 232.44 84.701C233.09 83.8885 233.719 83.059 234.326 82.2124C234.399 82.1485 234.464 82.0752 234.518 81.9943C236.34 79.3091 238.217 76.6666 240.15 74.0668C240.945 73.0022 239.175 72.0016 238.405 73.0406Z" fill="#D9AF90"/>
<path d="M209.453 68.3456C209.453 68.3456 216.624 70.2826 219.536 74.9262C221.355 78.1202 222.958 81.4329 224.333 84.8419L229.631 76.6066C229.631 76.6066 236.045 78.582 238.61 81.7376C238.61 81.7376 230.914 98.4136 224.333 99.8503C217.753 101.287 210.633 89.973 210.633 89.973C210.633 89.973 209.171 94.6679 209.453 89.6523" fill="#F5F5F5"/>
<path d="M214.02 86.1634C211.946 84.483 210.375 82.2639 209.479 79.7495C208.619 76.8248 209.697 74.2465 210.761 71.5142C211.846 68.8139 212.479 65.9537 212.634 63.048C212.724 60.1874 212.391 57.3397 212.198 54.4919C212.17 54.3696 212.17 54.2423 212.198 54.1199C211.249 50.9002 209.273 48.1807 205.399 47.86C195.381 47.0134 194.817 58.1221 194.894 62.6118C194.971 67.1015 195.445 70.1673 192.123 72.0658C188.801 73.9643 186.402 78.8901 189.557 82.8923C192.713 86.8945 189.878 85.4579 187.774 88.9855C185.671 92.5131 186.209 96.9771 190.545 98.5805C194.881 100.184 215.046 97.1695 216.906 95.2967C217.562 94.5472 217.903 93.5724 217.855 92.5772C217.4 90.0435 216.036 87.7629 214.02 86.1634Z" fill="#474448"/>
</svg>
