<svg width="400" height="300" viewBox="0 0 400 300" fill="none" xmlns="http://www.w3.org/2000/svg">
<path style="mix-blend-mode:multiply" d="M309.225 187.436C295.779 195.281 286.166 200.54 265.495 212.351C281.15 221.864 293.282 230.614 295.038 231.653L341.509 204.374C337.896 202.473 325.963 195.667 309.225 187.436Z" fill="#F5F5F5"/>
<path style="mix-blend-mode:multiply" d="M104.528 227.377L144.049 204.241C141.044 202.661 135.133 197.181 124.029 191.381C124.008 191.459 123.97 191.532 123.919 191.595C123.868 191.658 123.803 191.709 123.731 191.745C113.051 197.638 102.396 203.53 91.7674 209.423C89.2704 210.826 85.4587 213.456 83.0059 214.947C90.1322 218.869 95.5129 222.803 104.528 227.377Z" fill="#F5F5F5"/>
<path style="mix-blend-mode:multiply" d="M167.141 263.914C170.245 266.024 174.212 267.87 177.261 269.991L197.623 258.036C194.464 256.368 184.012 250.457 169.35 243.209C162.821 247.021 157.318 250.137 150.634 253.915C156.214 257.053 161.815 260.301 167.141 263.914Z" fill="#F5F5F5"/>
<path d="M35.0001 57.9033L35.8398 104.208C35.8503 104.698 35.9844 105.179 36.2298 105.604C36.4753 106.029 36.824 106.385 37.2437 106.64C37.6635 106.894 38.1407 107.039 38.6311 107.06C39.1215 107.081 39.6093 106.978 40.0493 106.76L79.3931 87.1598C80.0454 86.834 80.592 86.33 80.9694 85.7062C81.3468 85.0823 81.5397 84.3643 81.5255 83.6353L80.6858 37.3088C80.6772 36.7737 80.5323 36.2497 80.2649 35.7861C79.9975 35.3226 79.6163 34.9349 79.1575 34.6595C78.6986 34.3842 78.1771 34.2304 77.6423 34.2126C77.1074 34.1947 76.5769 34.3135 76.1007 34.5577L37.0883 54.4451C36.4545 54.772 35.9237 55.2683 35.5551 55.8788C35.1864 56.4893 34.9943 57.1901 35.0001 57.9033V57.9033Z" fill="#8F8DFF"/>
<path d="M74.6975 64.9191C67.2066 67.0293 69.792 75.3489 64.4113 79.7683C57.8596 85.1821 55.3516 69.8799 47.3524 70.819C37.707 71.9238 35.8398 104.186 35.8398 104.186C37.3645 107.843 40.0493 106.738 40.0493 106.738L81.5808 86.0439L81.2604 68.2226C79.5147 66.2228 77.3602 64.6539 74.6975 64.9191Z" fill="#474448"/>
<path opacity="0.3" d="M74.6975 64.9191C67.2066 67.0293 69.792 75.3489 64.4113 79.7683C57.8596 85.1821 55.3516 69.8799 47.3524 70.819C37.707 71.9238 35.8398 104.186 35.8398 104.186C37.3645 107.843 40.0493 106.738 40.0493 106.738L81.5808 86.0439L81.2604 68.2226C79.5147 66.2228 77.3602 64.6539 74.6975 64.9191Z" fill="#8F8DFF"/>
<path d="M273.295 166.941C272.047 166.941 270.29 168.267 269.152 168.819L266.014 170.256C266.014 170.256 263.926 177.99 262.699 180.873C261.473 183.757 257.175 189.944 258.7 192.264C259.726 193.683 261.249 194.662 262.966 195.007C264.682 195.351 266.465 195.034 267.959 194.121C271.903 191.911 271.792 184.751 273.218 181.967C274.4 179.647 273.847 174.719 273.847 173.659C273.942 171.405 273.756 169.149 273.295 166.941V166.941Z" fill="#2B2A30"/>
<path d="M240.901 152.821C239.652 152.821 237.895 154.147 236.757 154.699L233.62 156.235C233.62 156.235 232.515 164.698 230.305 166.853C228.095 169.007 219.754 173.559 221.245 175.88C222.197 177.327 223.669 178.351 225.356 178.74C227.044 179.129 228.816 178.852 230.305 177.968C234.249 175.758 236.824 171.339 239.641 170.234C242.061 169.272 241.033 162.997 241.133 160.887C241.422 158.2 241.344 155.487 240.901 152.821V152.821Z" fill="#2B2A30"/>
<path d="M235.266 73.6363C235.266 73.6363 229.896 102.252 230.382 117.941C230.869 133.63 231.145 152.843 232.338 161.351C232.338 161.351 242.735 162.798 246.27 159.682C246.27 159.682 247.32 104.683 247.375 104.992C248.966 112.229 256.435 149.297 257.23 151.716C258.026 154.136 261.86 173.681 261.86 173.681C264.364 174.305 266.97 174.407 269.516 173.979C272.061 173.551 274.491 172.603 276.654 171.195C276.654 171.195 275.361 143.054 272.952 135.143C270.544 127.233 262.147 77.5143 258.059 73.6252" fill="#474448"/>
<path d="M257.794 75.9345C257.794 75.9345 266.997 49.186 263.318 43.0651C259.639 36.9442 244.701 32.127 237.553 32.7457C230.405 33.3645 234.99 75.6251 236.117 75.9345C237.244 76.2438 247.762 83.4917 257.794 75.9345Z" fill="#F4F4F4"/>
<path d="M260.854 40.314L249.695 35.6846C247.67 45.4957 245.57 55.2884 243.398 65.0627L258.987 67.8027C258.987 67.8027 268.268 62.6983 269.704 54.5445C271.14 46.3907 261.252 40.6896 260.854 40.314Z" fill="#F4F4F4"/>
<path d="M238.326 48.8545C238.326 48.8545 236.835 34.2373 236.835 32.9556C232.492 34.1981 228.431 36.2732 224.88 39.0655C223.065 40.4695 221.375 42.0296 219.831 43.728C218.771 44.7252 217.893 45.8991 217.235 47.1972C216.777 48.7384 216.731 50.3727 217.102 51.937C217.792 55.5666 219.025 59.0715 220.759 62.3337C222.58 66.1426 224.83 69.7309 227.466 73.0287C228.283 74.0341 230.913 77.7574 232.636 77.1608C236.083 75.9565 237.509 71.9459 237.509 71.9459C237.509 71.9459 235.918 68.8192 234.194 64.9411C233.178 62.6541 228.604 57.4502 227.985 53.8926C228.437 53.2801 228.928 52.697 229.454 52.1469C231.73 49.9151 235.498 50.3239 238.326 48.8545Z" fill="#F4F4F4"/>
<path d="M239.63 33.7732L241.84 45.2858L245.022 41.5845L247.43 46.2028L253.883 37.4524C253.883 37.4524 243.994 32.8341 239.63 33.7732Z" fill="#F5F5F5"/>
<path d="M252.016 28.6357C250.347 30.4918 247.121 29.6522 245 29.1771C242.425 28.5915 239.475 27.0337 239.696 23.9622C239.696 23.4981 239.011 23.4981 238.978 23.9622C238.746 27.1552 241.641 29.0776 244.403 29.7737C246.856 30.3924 250.568 31.3094 252.524 29.1439C252.866 28.8346 252.358 28.2932 252.016 28.6357Z" fill="#474448"/>
<path d="M238.326 22.0397C238.326 22.0397 238.326 37.6623 244.06 38.6788C250.358 39.7836 253.894 32.6463 253.894 32.6463C253.894 32.6463 254.7 18.8466 248.447 17.6313C242.193 16.416 238.503 19.9957 238.326 22.0397Z" fill="#F4DBBD"/>
<path d="M249.452 31.0443C249.452 31.0443 250.966 25.0449 252.645 27.0226C254.325 29.0003 249.927 33.3092 249.927 33.3092" fill="#F4DBBD"/>
<path d="M250.977 15.6758C250.977 15.6758 256.567 16.2834 258.203 20.736C259.838 25.1886 255.65 33.9943 252.678 35.4306L256.313 27.6966L256.137 22.4043L250.977 15.6758Z" fill="#EDC868"/>
<path d="M258.103 22.7247C257.65 19.609 255.584 18.0954 252.877 16.4933L252.203 16.1287C252.722 15.7047 253.138 15.1682 253.419 14.5598C253.456 14.4976 253.476 14.4266 253.477 14.354C253.477 14.2815 253.459 14.2101 253.423 14.1471C253.387 14.0841 253.335 14.0318 253.272 13.9956C253.209 13.9594 253.138 13.9406 253.065 13.9411C252.713 13.9552 252.367 14.042 252.049 14.196C251.732 14.35 251.449 14.5679 251.22 14.836C250.905 14.1916 250.479 13.608 249.961 13.1125C249.909 13.0645 249.846 13.0302 249.778 13.0129C249.709 12.9956 249.638 12.9957 249.57 13.0133C249.501 13.0309 249.439 13.0654 249.387 13.1137C249.336 13.1619 249.297 13.2223 249.275 13.2892C249.153 13.5904 249.098 13.9148 249.115 14.2395C249.133 14.5641 249.221 14.881 249.375 15.1675C246.562 14.5758 243.63 15.0232 241.122 16.427C240.204 16.9764 239.429 17.7332 238.857 18.6367C238.097 18.5599 237.332 18.6977 236.647 19.0345C235.908 19.3781 235.302 19.9539 234.921 20.674C234.54 21.3941 234.405 22.219 234.537 23.023C234.946 24.9013 236.934 25.52 238.625 25.2327C239.494 25.0722 240.308 24.6918 240.989 24.1279C240.481 24.9786 240.227 26.0724 241.873 26.4481C244.735 27.0999 246.105 25.3984 246.292 26.8237C246.436 27.9838 248.049 28.6357 249.22 28.6578C249.309 28.8345 249.519 29.3096 249.773 29.9615C250.35 29.7716 250.968 29.7373 251.563 29.862C251.609 29.8106 251.666 29.7708 251.73 29.7456C251.795 29.7204 251.864 29.7107 251.933 29.7171C252.002 29.7236 252.068 29.746 252.126 29.7827C252.185 29.8194 252.234 29.8693 252.27 29.9283C253.264 31.6298 253.032 33.486 252.645 35.4526C254.194 34.1238 255.47 32.5065 256.402 30.6907C257.743 28.2616 258.335 25.4898 258.103 22.7247V22.7247ZM249.972 14.3499L250.093 14.5267C250.086 14.5706 250.086 14.6154 250.093 14.6593C250.093 14.7918 250.193 14.9244 250.248 15.046C250.1 14.8442 250.005 14.6087 249.972 14.361V14.3499Z" fill="#EDC868"/>
<path d="M242.724 44.3025L244.414 47.584L246.778 44.866L245.066 41.5846L242.724 44.3025Z" fill="#474448"/>
<path d="M244.414 47.6171C244.414 47.6171 246.778 64.1899 248.833 75.0064L245.828 80.7627L241.884 75.8682C241.884 75.8682 240.271 64.5434 244.414 47.6171Z" fill="#474448"/>
<path d="M244.757 75.9013L242.525 51.7382L225.897 52.1249L228.228 75.9013H244.757Z" fill="#8F8DFF"/>
<path d="M250.413 66.3996L243.177 60.9858V63.0187C243.177 63.0187 236.636 60.0908 236.315 61.3725C235.995 62.6541 237.166 66.8967 238.271 67.3055C239.376 67.7143 243.994 69.1727 243.994 69.1727L247.64 70.2776L250.413 66.3996Z" fill="#F4DBBD"/>
<path d="M269.693 51.7382C269.693 51.7382 274.4 69.9019 271.163 73.6253C267.925 77.3486 246.933 73.3159 246.734 71.4156C246.535 69.5152 249.408 63.4275 249.408 63.4275L261.13 64.7091" fill="#F4F4F4"/>
<path d="M233.94 75.9013C233.94 75.9013 238.359 75.161 239.21 77.5917C239.685 78.8733 236.293 77.5917 236.293 77.5917L233.896 84.718C233.185 83.8134 232.796 82.6976 232.791 81.5471C232.775 79.9159 232.923 78.2873 233.233 76.6857L233.94 75.9013Z" fill="#F4DBBD"/>
<path d="M103.844 194.408C106.263 196.01 108.075 196.949 108.075 196.949C109.998 196.949 113.599 197.369 112.495 194.85C113.771 196.95 115.371 198.837 117.234 200.44C119.323 202.241 131.045 203.921 127.023 210.892C124.946 214.483 104.606 204.186 104.098 201.744C103.788 199.312 103.703 196.856 103.844 194.408V194.408Z" fill="#2B2A30"/>
<path d="M112.627 182.553C112.068 186.038 111.967 189.582 112.329 193.093C112.439 193.855 112.539 194.673 112.693 195.491L103.777 193.988V182.553H112.627Z" fill="#F4F4F4"/>
<path d="M103.843 191.944C106.263 193.546 108.075 194.485 108.075 194.485C109.998 194.485 113.599 194.905 112.494 192.386C113.771 194.487 115.371 196.373 117.234 197.977C119.322 199.777 131.1 205.567 126.184 208.627C122.527 210.903 104.606 201.722 104.087 199.28C103.78 196.848 103.699 194.392 103.843 191.944V191.944Z" fill="#474448"/>
<path d="M107.622 194.64C107.534 193.988 106.23 190.74 107.291 189.989C108.351 189.237 112.815 188.121 113.29 189.392C113.765 190.662 113.29 195.093 113.29 195.093" fill="#474448"/>
<path d="M120.881 187.757C123.3 189.359 125.112 190.298 125.112 190.298C127.035 190.298 130.636 190.718 129.532 188.199C130.808 190.299 132.408 192.186 134.271 193.789C136.359 195.59 148.082 197.27 144.06 204.241C141.983 207.832 121.643 197.535 121.135 195.093C120.825 192.661 120.74 190.205 120.881 187.757V187.757Z" fill="#2B2A30"/>
<path d="M129.664 175.902C129.105 179.387 129.004 182.931 129.366 186.442C129.476 187.204 129.576 188.022 129.73 188.839L120.814 187.337V175.902H129.664Z" fill="#F4F4F4"/>
<path d="M120.88 185.293C123.3 186.895 125.112 187.834 125.112 187.834C127.034 187.834 130.636 188.254 129.531 185.735C130.808 187.835 132.408 189.722 134.271 191.325C136.359 193.126 148.137 198.916 143.221 201.976C139.563 204.252 121.643 195.071 121.123 192.629C120.817 190.196 120.736 187.741 120.88 185.293V185.293Z" fill="#474448"/>
<path d="M124.659 187.933C124.571 187.282 123.267 184.033 124.328 183.282C125.388 182.531 129.852 181.415 130.327 182.685C130.802 183.956 130.327 188.386 130.327 188.386" fill="#474448"/>
<path d="M135.63 84.1545C135.63 84.1545 138.425 151.628 132.901 179.99C132.901 179.99 131.796 183.149 118.615 181.315L117.731 187.215C117.731 187.215 108.473 189.734 99.7113 186.11C99.7113 186.11 96.0542 120.571 107.036 82.4862" fill="#474448"/>
<path d="M134.658 61.0079C136.945 60.2787 132.448 48.2137 132.05 46.7C131.842 45.7611 131.468 44.8669 130.946 44.0594C129.377 41.916 126.294 42.9546 124.096 42.9546C121.185 42.9832 118.281 43.2418 115.411 43.728C113.796 44.0251 112.242 44.5929 110.815 45.4073C106.307 51.7271 104.738 59.6047 104.263 67.2724C103.998 71.4929 104.02 75.7466 104.042 79.9782C104.021 82.6699 104.172 85.3602 104.495 88.0326C104.537 88.3475 104.65 88.6487 104.826 88.9131C105.003 89.1774 105.237 89.3978 105.512 89.5573C107.109 90.515 108.912 91.0757 110.771 91.1925C118.715 91.5129 128.338 91.1925 134.547 86.0217C134.946 85.4822 135.314 84.9216 135.652 84.3424L134.636 61.0079H134.658Z" fill="#F4F4F4"/>
<path d="M127.101 71.725V62.7647L145.231 55.1191L150.369 57.141V82.3869L130.769 91.4356L126.615 88.8061" fill="#05D9B2"/>
<path d="M104.054 80.0003C99.38 76.1002 96.5847 72.7304 100.827 57.7375C104.44 44.9433 115.411 43.7611 115.411 43.7611" fill="#F4F4F4"/>
<path d="M128.681 30.6796C128.681 30.6796 132.172 43.4407 126.405 46.236C120.637 49.0313 116.583 44.866 114.837 41.0542C113.091 37.2425 113.732 28.3152 121.212 27.4093C127.697 26.6248 128.681 30.6796 128.681 30.6796Z" fill="#FFCEA9"/>
<path d="M129.808 28.26C130.415 26.7022 130.669 23.9179 128.846 23.0562C128.159 22.7878 127.411 22.716 126.685 22.8487C125.959 22.9814 125.284 23.3133 124.736 23.8075C124.085 23.3012 123.331 22.943 122.527 22.7579C121.081 22.33 119.552 22.2728 118.078 22.5914C116.605 22.9099 115.236 23.5941 114.097 24.5809C113.997 24.6803 113.881 24.7625 113.754 24.8239C113.579 24.8794 113.396 24.9018 113.213 24.8902C108.683 24.9676 107.688 30.1051 108.484 33.5965C109.28 37.2347 111.215 40.5244 114.008 42.9877C115.213 43.9696 116.615 44.6817 118.118 45.0759C118.171 45.0901 118.226 45.0915 118.279 45.08C118.333 45.0686 118.383 45.0446 118.425 45.01C118.467 44.9754 118.5 44.9313 118.522 44.8812C118.543 44.8312 118.553 44.7767 118.549 44.7223C118.598 44.6931 118.641 44.654 118.675 44.6077C118.708 44.5613 118.732 44.5085 118.744 44.4527C118.757 44.3968 118.758 44.339 118.747 44.2827C118.736 44.2265 118.714 44.1731 118.682 44.1257C118.297 43.3616 118.162 42.4959 118.295 41.6509C118.305 41.5908 118.3 41.5292 118.281 41.4715C118.261 41.4138 118.228 41.3616 118.185 41.3194C118.24 41.2591 118.277 41.1833 118.289 41.1021C118.301 41.0209 118.288 40.9379 118.252 40.8639C118.216 40.79 118.159 40.7286 118.088 40.6876C118.017 40.6467 117.935 40.6281 117.853 40.6344C117.368 40.6939 116.875 40.6411 116.414 40.4802C115.952 40.3193 115.534 40.0545 115.19 39.7063C114.771 39.2644 114.417 38.4026 115.246 38.1927C115.403 38.1564 115.567 38.1597 115.724 38.2021C115.88 38.2445 116.023 38.3247 116.141 38.4357C116.262 38.6461 116.407 38.8425 116.571 39.0213C116.633 39.0862 116.715 39.1289 116.803 39.1428C117.113 39.2423 117.511 38.9882 117.312 38.6457C117.175 38.4009 117.008 38.1744 116.815 37.9717C116.538 37.5086 116.431 36.9645 116.509 36.4311C116.588 35.8977 116.848 35.4077 117.245 35.0438C118.35 34.1047 119.289 34.6129 120.56 34.6682C120.929 34.7176 121.303 34.6333 121.615 34.4307C121.927 34.228 122.157 33.9203 122.261 33.5633C122.265 33.0527 122.202 32.5438 122.074 32.0497C122.051 31.6725 122.145 31.2975 122.343 30.9754C122.54 30.6533 122.832 30.3997 123.178 30.2488C124.471 29.7516 125.311 30.8343 126.261 31.4972C126.654 31.7916 127.108 31.9949 127.59 32.0924C128.071 32.1898 128.568 32.179 129.045 32.0607C129.416 31.9659 129.757 31.7802 130.037 31.5205C130.318 31.2607 130.529 30.935 130.652 30.5729C130.775 30.2109 130.805 29.8239 130.741 29.4471C130.676 29.0702 130.519 28.7154 130.283 28.4147C130.233 28.3385 130.159 28.2816 130.072 28.2535C129.986 28.2253 129.893 28.2276 129.808 28.26V28.26ZM121.963 30.072C122.105 29.8449 122.313 29.6673 122.56 29.5638C122.643 29.5256 122.721 29.4774 122.792 29.4201H122.869L122.991 29.4754C122.609 29.5914 122.258 29.7915 121.963 30.0609V30.072ZM129.266 27.3761H129.211C129.271 27.2395 129.323 27.0993 129.366 26.9563C129.377 27.0668 129.299 27.2215 129.266 27.3651V27.3761Z" fill="#474448"/>
<path d="M119.941 181.304C121.326 163.082 122.394 144.84 123.145 126.581C123.41 119.952 123.635 113.345 123.819 106.76C123.819 106.643 123.773 106.53 123.69 106.447C123.607 106.364 123.495 106.318 123.377 106.318C123.26 106.318 123.148 106.364 123.065 106.447C122.982 106.53 122.935 106.643 122.935 106.76C122.28 130.286 121.09 153.786 119.367 177.261C119.267 178.586 119.146 179.923 119.046 181.249L119.941 181.304Z" fill="white"/>
<path d="M136.669 76.1775C136.669 76.1775 137.508 74.1556 136.116 73.3822C134.724 72.6088 128.239 73.3822 128.239 73.3822L129.487 71.1725C129.642 70.7416 129.421 70.5206 128.879 70.4323C127.388 70.1671 126.195 71.968 125.565 73.0728C125.314 73.4789 125.141 73.9287 125.057 74.3987C125.057 74.7522 125.057 75.3047 124.714 75.5035C124.357 75.509 124.003 75.4374 123.676 75.2936C123.189 77.669 122.626 80.0224 122.151 82.3868L124.924 83.1381C124.924 83.1381 133.907 85.9996 134.813 85.171C135.395 84.5627 135.78 83.7924 135.917 82.9613L137.022 81.9669C138.127 80.9725 136.525 79.5031 136.525 79.5031C136.959 79.4705 137.373 79.3059 137.71 79.0314C138.048 78.7568 138.294 78.3856 138.414 77.9674C138.934 76.4648 136.669 76.1775 136.669 76.1775Z" fill="#FFCEA9"/>
<path d="M129.067 75.2384C131.625 75.6481 134.211 75.8513 136.801 75.8461C137.066 75.8461 137.022 76.2548 136.801 76.2659C134.211 76.2711 131.625 76.0679 129.067 75.6582C128.769 75.6361 128.802 75.2384 129.067 75.2384Z" fill="#42210B"/>
<path d="M128.438 77.9785C131.169 78.8654 133.994 79.429 136.857 79.6579C136.912 79.6579 136.966 79.68 137.005 79.7194C137.044 79.7587 137.067 79.8121 137.067 79.8678C137.067 79.9235 137.044 79.9769 137.005 80.0162C136.966 80.0556 136.912 80.0777 136.857 80.0777C133.938 79.8465 131.056 79.2717 128.272 78.3652C128.04 78.2879 128.183 77.9012 128.438 77.9785Z" fill="#42210B"/>
<path d="M128.57 80.9063C130.977 81.7831 133.459 82.4413 135.984 82.873C136.039 82.873 136.093 82.8951 136.132 82.9345C136.172 82.9738 136.194 83.0272 136.194 83.0829C136.194 83.1386 136.172 83.192 136.132 83.2313C136.093 83.2707 136.039 83.2928 135.984 83.2928C133.421 82.8582 130.903 82.1926 128.46 81.3041C128.172 81.2268 128.272 80.8401 128.57 80.9063Z" fill="#42210B"/>
<path d="M124.604 71.6586C120.707 70.964 116.935 69.6943 113.412 67.8911C113.505 67.8466 113.584 67.7761 113.639 67.6879C113.694 67.5998 113.722 67.4977 113.721 67.3939C113.748 65.3641 113.985 63.3426 114.428 61.3614C114.594 60.6212 113.456 60.2566 113.323 61.0521C112.856 63.1346 112.604 65.2598 112.572 67.3939C112.572 67.3939 112.572 67.3939 112.572 67.3939L111.942 67.0514C111.81 66.9995 111.663 66.9965 111.529 67.0429C111.395 67.0894 111.281 67.1822 111.209 67.3048C111.138 67.4273 111.112 67.5715 111.137 67.7114C111.162 67.8513 111.236 67.9777 111.345 68.0679C115.222 70.2653 119.432 71.8141 123.808 72.653C123.256 76.3359 122.633 79.9782 121.941 83.58C121.923 83.6617 121.922 83.7464 121.939 83.8283C121.956 83.9103 121.991 83.9876 122.04 84.0551C119.831 83.9115 111.169 83.1602 104.087 79.9561L104.54 88.0105C104.54 88.0105 115.113 88.9165 122.295 84.254C122.367 84.3011 122.45 84.3293 122.536 84.3361C122.623 84.3429 122.709 84.3281 122.788 84.2929C122.867 84.2578 122.936 84.2035 122.989 84.135C123.042 84.0664 123.076 83.9858 123.09 83.9004C123.827 80.0629 124.482 76.2106 125.057 72.3437C125.083 72.1932 125.051 72.0383 124.967 71.9108C124.883 71.7834 124.753 71.6931 124.604 71.6586V71.6586Z" fill="#474448"/>
<path d="M239.254 99.0149C239.247 98.7375 239.153 98.4695 238.984 98.2492C238.815 98.029 238.581 97.8677 238.315 97.7885C237.909 97.6685 237.49 97.598 237.067 97.5786C237.719 97.1366 237.94 96.6505 237.487 96.1312C235.133 93.3801 221.742 99.3684 220.406 96.9267C220.251 96.6395 220.074 96.3522 219.897 96.0649C219.721 95.7777 219.643 95.4573 219.489 95.17C219.147 94.1455 218.479 93.2608 217.588 92.6509C217.369 92.5305 217.119 92.4765 216.869 92.4954C216.619 92.5143 216.38 92.6054 216.181 92.7575C215.982 92.9097 215.832 93.1163 215.748 93.3524C215.665 93.5885 215.651 93.8438 215.71 94.0872C216.19 96.1157 216.906 98.0809 217.842 99.943C217.49 102.867 216.865 105.753 215.975 108.561C215.478 110.13 217.942 110.771 218.439 109.235C218.594 109.388 218.783 109.501 218.991 109.566C219.173 109.751 219.405 109.878 219.659 109.931C219.912 109.984 220.176 109.961 220.417 109.865C220.426 110.165 220.541 110.453 220.741 110.678C220.942 110.902 221.215 111.049 221.512 111.092C221.81 111.136 222.114 111.073 222.37 110.915C222.626 110.758 222.818 110.515 222.914 110.229C223.753 107.611 224.869 104.705 227.333 103.368H228.504C231.134 103.368 233.763 103.28 236.393 103.114C236.626 103.093 236.851 103.011 237.043 102.877C237.235 102.743 237.389 102.56 237.49 102.348C237.59 102.136 237.634 101.902 237.616 101.668C237.598 101.434 237.519 101.209 237.387 101.015C238.404 100.783 239.265 100.274 239.254 99.0149Z" fill="#9E7251"/>
<path d="M183.868 248.115C183.769 244.391 179.57 244.193 178.432 241.64C178.094 240.635 177.999 239.563 178.156 238.514C177.934 238.513 177.715 238.466 177.511 238.377C177.308 238.288 177.125 238.158 176.974 237.995C176.823 237.833 176.706 237.641 176.632 237.432C176.558 237.223 176.528 237 176.543 236.779C176.652 234.895 177.024 233.036 177.648 231.255L171.847 225.896C171.847 225.896 167.196 233.321 166.765 234.934C166.334 236.547 166.003 248.921 166.378 250.115C166.754 251.308 168.842 251.021 169.892 250.755C170.941 250.49 169.892 241.033 170.897 241.53C171.902 242.027 172.51 250.148 173.847 251.96C175.184 253.772 183.327 252.998 183.327 252.998C183.327 252.998 183.967 251.838 183.868 248.115Z" fill="#273238"/>
<path d="M177.99 237.099C176.974 230.084 179.371 217.555 179.371 217.555L169.77 218.284L168.234 232.326C168.417 232.559 168.528 232.839 168.555 233.133C168.548 233.195 168.548 233.258 168.555 233.321L168.732 233.619C169.35 234.326 171.041 234.415 171.803 234.823C173.483 235.74 173.847 237.265 174.013 238.978C174.411 242.082 174.411 246.822 182.852 245.54C182.841 245.54 178.963 244.104 177.99 237.099Z" fill="#9E7251"/>
<path d="M197.679 253.849C197.392 250.137 193.193 250.137 191.945 247.64C191.557 246.654 191.41 245.59 191.514 244.535C191.291 244.546 191.069 244.511 190.861 244.432C190.652 244.353 190.462 244.232 190.303 244.076C190.143 243.921 190.017 243.734 189.933 243.528C189.848 243.322 189.807 243.101 189.812 242.878C189.836 241.006 190.118 239.147 190.652 237.354L184.619 232.293C184.619 232.293 180.333 239.928 179.979 241.563C179.625 243.198 179.891 255.573 180.333 256.744C180.775 257.915 182.83 257.528 183.868 257.219C184.907 256.909 183.437 247.507 184.432 247.949C185.426 248.391 186.465 256.479 187.89 258.224C189.315 259.97 197.414 258.799 197.414 258.799C197.414 258.799 197.966 257.539 197.679 253.849Z" fill="#273238"/>
<path d="M191.248 243.176C189.901 236.227 191.679 223.587 191.679 223.587L182.122 224.78L181.305 238.845C181.5 239.066 181.626 239.338 181.669 239.63C181.663 239.688 181.663 239.748 181.669 239.806L181.868 240.094C182.52 240.768 184.211 240.779 184.995 241.198C186.719 242.027 187.205 243.541 187.382 245.242C187.934 248.325 188.155 253.065 196.53 251.363C196.53 251.33 192.585 250.081 191.248 243.176Z" fill="#9E7251"/>
<path d="M169.947 95.9323C169.947 95.9323 164.423 97.5564 161.848 111.124C159.274 124.692 157.805 132.315 160.655 136.359C163.506 140.403 173.427 147.076 173.427 147.076L185.117 131.387" fill="#F4F4F4"/>
<path d="M172.554 128.393C172.554 128.393 159.296 100.672 169.947 95.9323C180.598 91.1925 193.79 98.142 195.988 105.147C198.187 112.152 194.983 133.199 194.983 133.199C194.983 133.199 180.962 133.597 172.554 128.393Z" fill="#F4F4F4"/>
<path d="M194.187 101.899C194.187 101.899 203.391 117.366 210.473 115.234L216.494 101.556C216.494 101.556 228.648 105.324 227.543 112.759C227.543 112.759 216.682 131.365 208.893 132.426C201.104 133.486 191.48 123.587 191.48 123.587" fill="#F4F4F4"/>
<path d="M168.964 226.791C179.349 232.128 185.293 237.32 196.762 234.669C200.01 233.884 202.916 187.447 202.927 185.072C203.004 169.792 205.059 160.047 201.192 145.231C200.651 143.165 197.579 131.685 195.248 131.387L172.554 128.382C172.554 128.382 168.135 136.116 167.914 152.799C167.781 163.925 169.339 174.974 169.582 186.077C169.583 192.528 168.928 198.962 167.627 205.28C167.03 208.517 165.936 212.119 165.163 215.665C164.698 218.387 164.421 221.137 164.334 223.896C165.797 224.984 167.345 225.952 168.964 226.791V226.791Z" fill="#474448"/>
<path d="M173.372 98.0316C172.919 97.7885 170.698 93.6122 173.681 92.5073C176.664 91.4025 186.487 92.5073 186.42 94.2972C186.354 96.087 186.42 98.816 186.42 98.816C184.305 99.571 182.058 99.8907 179.816 99.7559C177.574 99.6211 175.382 99.0346 173.372 98.0316V98.0316Z" fill="#F5F5F5"/>
<path d="M172.853 127.288C169.844 120.247 168.133 112.72 167.804 105.069C167.804 104.252 166.489 104.252 166.533 105.069C166.875 112.957 168.646 120.717 171.759 127.973C172.079 128.68 173.173 128.028 172.853 127.288Z" fill="#474448"/>
<path d="M162.014 86.5963C159.362 91.1925 165.605 100.44 159.384 103.025C157.962 103.507 156.467 103.739 154.965 103.71C153.399 103.694 151.848 104.01 150.413 104.639C148.979 105.268 147.695 106.194 146.645 107.357C143.331 111.301 143.563 117.797 146.546 121.896C149.949 126.57 155.738 127.178 160.721 124.957C172.499 119.72 164.975 97.3355 173.847 91.3361L174.278 81.2599C174.278 81.2599 165.395 80.7627 162.014 86.5963Z" fill="#474448"/>
<path d="M189.624 78.6524C189.624 78.6524 189.392 93.1481 186.553 94.9711C183.714 96.7941 175.869 94.0872 175.504 90.0655C175.14 86.0439 189.624 78.6524 189.624 78.6524Z" fill="#9E7251"/>
<path d="M181.625 71.7029C181.625 71.7029 176.62 69.7362 169.339 73.9126C162.058 78.0889 164.445 91.5902 172.941 94.3524C181.437 97.1145 183.603 88.8281 185.205 85.5135C186.807 82.199 189.624 80.9947 189.569 79.4479C189.514 77.9011 189.403 71.4708 181.625 71.7029Z" fill="#474448"/>
<path d="M327.832 86.3831C335.315 85.5503 340.33 75.4213 339.032 63.7592C337.734 52.0972 330.615 43.3184 323.132 44.1512C315.648 44.984 310.634 55.1131 311.931 66.7751C313.229 78.4371 320.348 87.2159 327.832 86.3831Z" fill="#8F8DFF"/>
<path d="M321.257 62.2122L324.14 65.0959V52.6C324.14 52.1692 324.311 51.7561 324.616 51.4515C324.921 51.1469 325.334 50.9758 325.764 50.9758C326.195 50.9758 326.608 51.1469 326.913 51.4515C327.217 51.7561 327.389 52.1692 327.389 52.6V69.0954C327.363 69.398 327.254 69.6875 327.074 69.932C326.894 70.1765 326.649 70.3665 326.368 70.4808C326.087 70.5952 325.779 70.6295 325.48 70.58C325.18 70.5305 324.9 70.3991 324.671 70.2003V70.2003L319.014 64.5434C318.748 64.2372 318.607 63.8427 318.617 63.4375C318.628 63.0323 318.79 62.6456 319.071 62.3535C319.352 62.0614 319.732 61.885 320.136 61.8588C320.541 61.8327 320.94 61.9587 321.257 62.2122V62.2122Z" fill="#474448"/>
<path d="M303.502 158.102V199.987C303.502 199.987 343.752 202.197 343.752 199.987V158.102" fill="#474448"/>
<path d="M323.632 208.826C334.75 208.826 343.763 204.711 343.763 199.634C343.763 194.557 334.75 190.441 323.632 190.441C312.514 190.441 303.502 194.557 303.502 199.634C303.502 204.711 312.514 208.826 323.632 208.826Z" fill="#474448"/>
<path d="M323.632 167.306C334.75 167.306 343.763 163.19 343.763 158.113C343.763 153.037 334.75 148.921 323.632 148.921C312.514 148.921 303.502 153.037 303.502 158.113C303.502 163.19 312.514 167.306 323.632 167.306Z" fill="#474448"/>
<path d="M311.081 165.262L311.225 165.339C311.998 165.604 312.782 165.847 313.578 166.057L308.054 120.195C307.583 120.017 307.073 119.971 306.578 120.062C306.083 120.154 305.623 120.379 305.247 120.714L310.86 165.185L311.081 165.262Z" fill="#E9EAF2"/>
<path d="M317.334 166.687L319.036 123.598C318.6 123.347 318.104 123.221 317.601 123.233C317.099 123.245 316.609 123.394 316.185 123.664L314.793 166.278C315.632 166.463 316.48 166.599 317.334 166.687Z" fill="#E9EAF2"/>
<path d="M323.632 167.306L329.156 122.427L340.404 128.349L335.874 166.046C331.903 167.202 327.755 167.629 323.632 167.306V167.306Z" fill="#05D9B2"/>
<path style="mix-blend-mode:multiply" d="M273.891 179.548C266.865 175.714 249.883 173.018 235.774 166.046C219.5 175.537 207.865 181.912 182.829 196.209C201.778 207.721 216.461 218.306 218.594 219.565L267.992 194.154C267.947 191.657 273.847 182.067 273.891 179.548Z" fill="#F5F5F5"/>
</svg>
