<svg width="400" height="300" viewBox="0 0 400 300" fill="none" xmlns="http://www.w3.org/2000/svg">
<g clip-path="url(#clip0)">
<path style="mix-blend-mode:multiply" d="M153.773 179.896C131.71 189.803 129.359 192.177 107.765 204.618L124.2 212.025L169.957 187.977C163.805 185.032 158.601 184.678 153.773 179.896Z" fill="#F5F5F5"/>
<path style="mix-blend-mode:multiply" d="M267.428 256.332C246.245 263.489 239.283 266.935 217.7 279.376L237.856 288.507L283.613 264.459C277.45 261.468 272.256 261.103 267.428 256.332Z" fill="#F5F5F5"/>
<path d="M86.2961 91.6467C86.1364 91.2016 85.4744 91.5097 85.6342 91.9434C86.1021 93.2446 86.1478 95.2306 84.9265 96.1665C84.8387 96.2349 84.7429 96.2924 84.6412 96.3377C84.6838 96.1614 84.6838 95.9775 84.6412 95.8012C84.5592 95.438 84.3952 95.0984 84.1618 94.8082C84.0034 94.6129 83.8585 94.407 83.7281 94.1919C83.948 93.8977 84.1883 93.6193 84.4472 93.3587C84.7667 93.0277 84.3102 92.4571 83.9906 92.7995L83.5797 93.2446C83.536 93.2079 83.4843 93.1821 83.4287 93.169C83.3732 93.1559 83.3154 93.1561 83.2599 93.1694C83.2044 93.1827 83.1528 93.2088 83.1093 93.2457C83.0657 93.2825 83.0314 93.3291 83.009 93.3816C82.909 93.6075 82.885 93.8598 82.9406 94.1006C82.7623 94.3946 82.6421 94.72 82.5867 95.0593C81.7536 95.8012 82.2672 97.5475 83.6254 97.2165L83.7966 97.1594C83.9216 97.1756 84.0482 97.1756 84.1732 97.1594C84.6428 97.0948 85.0851 96.9002 85.4501 96.5977C85.8151 96.2953 86.0883 95.8968 86.2391 95.4474C86.7278 94.2312 86.7481 92.877 86.2961 91.6467V91.6467ZM83.34 95.4817C83.3987 95.4693 83.4516 95.438 83.4908 95.3927C83.53 95.3473 83.5532 95.2904 83.5569 95.2306L83.6825 95.4246C83.7813 95.5553 83.8421 95.7108 83.8583 95.874C83.8744 96.0371 83.8451 96.2015 83.7738 96.3491C83.6349 96.2521 83.5224 96.122 83.4467 95.9705C83.3709 95.819 83.3343 95.6509 83.34 95.4817V95.4817Z" fill="#FF413B"/>
<path d="M82.7809 73.9672C83.1005 73.6248 82.5069 73.1911 82.1988 73.5449C81.9703 73.8089 81.797 74.1161 81.6891 74.4482C81.5812 74.7803 81.541 75.1306 81.5708 75.4785C81.6006 75.8264 81.6998 76.1648 81.8625 76.4737C82.0253 76.7827 82.2483 77.0559 82.5184 77.2772C82.8836 77.5739 83.3059 76.9804 82.9407 76.6951C82.7452 76.5303 82.5854 76.3274 82.4709 76.0988C82.3564 75.8702 82.2896 75.6207 82.2747 75.3655C82.2597 75.1103 82.2969 74.8547 82.3839 74.6143C82.4709 74.3739 82.606 74.1537 82.7809 73.9672Z" fill="#FF413B"/>
<path d="M99.8097 79.5828H99.433L98.9879 79.1377C98.6569 78.8181 98.0863 79.2746 98.4287 79.5942L98.5314 79.6855C97.5091 79.8394 96.5065 80.1035 95.541 80.473C95.1073 80.6442 95.4041 81.3062 95.8378 81.135C96.5779 80.8536 97.3419 80.6396 98.1205 80.4959C97.7891 80.9756 97.6468 81.561 97.721 82.1394C97.7827 82.4378 97.9536 82.7025 98.2004 82.8813C98.2003 82.957 98.2238 83.0309 98.2676 83.0927C98.3113 83.1545 98.3732 83.2011 98.4447 83.2262C98.5162 83.2513 98.5936 83.2535 98.6664 83.2326C98.7392 83.2117 98.8037 83.1687 98.851 83.1096C98.9495 83.1225 99.0492 83.1225 99.1477 83.1096C99.4828 83.0112 99.78 82.8134 100 82.5423C100.22 82.2712 100.353 81.9397 100.38 81.5916C100.392 81.189 100.285 80.792 100.072 80.4502L100.232 80.0964C100.263 80.0334 100.275 79.9629 100.267 79.8933C100.259 79.8236 100.231 79.7578 100.186 79.7036C100.142 79.6495 100.082 79.6093 100.016 79.5879C99.9489 79.5664 99.8774 79.5647 99.8097 79.5828V79.5828ZM98.5086 82.1394C98.4364 81.9247 98.4364 81.6922 98.5086 81.4774C98.6332 81.0586 98.843 80.67 99.1249 80.3361V80.3361L99.2162 80.4616L98.5086 82.1394Z" fill="#FF413B"/>
<path d="M67.7492 117.133C67.3041 116.985 67.0416 117.658 67.4867 117.806C68.4454 118.126 69.9406 118.617 69.7694 119.884C69.7009 120.534 69.1987 120.911 68.628 120.569C68.2017 120.234 67.8775 119.788 67.6921 119.279C67.4867 118.856 66.8247 119.153 67.0301 119.576C67.3046 120.351 67.8693 120.989 68.6052 121.356C68.928 121.47 69.2813 121.462 69.5987 121.334C69.916 121.206 70.1757 120.966 70.3287 120.66C71.3102 118.799 69.1987 117.624 67.7492 117.133Z" fill="#FF413B"/>
<path d="M66.6306 86.0884C66.3111 85.7574 65.7404 86.214 66.0714 86.5449C66.294 86.7639 66.4678 87.0274 66.5813 87.3182C66.6949 87.609 66.7457 87.9206 66.7303 88.2324C66.715 88.5442 66.6339 88.8493 66.4923 89.1275C66.3508 89.4058 66.152 89.651 65.909 89.847C65.666 90.043 65.3843 90.1854 65.0824 90.2649C64.7804 90.3444 64.4651 90.3591 64.1571 90.3081C63.8491 90.2571 63.5554 90.1416 63.2952 89.969C63.035 89.7965 62.8142 89.5709 62.6473 89.307C62.3848 88.9189 61.8256 89.3755 62.0881 89.7635C62.3226 90.0827 62.6194 90.3511 62.9604 90.5524C63.3015 90.7538 63.6798 90.884 64.0726 90.9352C64.4653 90.9864 64.8644 90.9576 65.2456 90.8504C65.6269 90.7432 65.9826 90.5598 66.2911 90.3115C66.5996 90.0631 66.8547 89.7548 67.0408 89.4052C67.227 89.0556 67.3404 88.672 67.3743 88.2773C67.4081 87.8827 67.3617 87.4853 67.2378 87.1091C67.114 86.7329 66.9152 86.3857 66.6535 86.0884H66.6306Z" fill="#FF413B"/>
<path d="M92.2882 59.0041C103.599 64.163 106.11 82.9725 97.8923 100.972C89.6745 118.971 73.8326 129.403 62.5104 124.244C51.1882 119.085 47.1136 97.6845 55.3313 79.674C63.549 61.6635 80.9774 53.8452 92.2882 59.0041Z" fill="#8F8DFF"/>
<path opacity="0.13" d="M92.2882 59.0041C103.599 64.163 106.11 82.9725 97.8923 100.972C89.6745 118.971 73.8326 129.403 62.5104 124.244C51.1882 119.085 47.1136 97.6845 55.3313 79.674C63.549 61.6635 80.9774 53.8452 92.2882 59.0041Z" fill="black"/>
<path d="M89.5148 66.7654C98.5885 70.9085 100.803 85.5292 94.4682 99.4194C88.1337 113.31 75.6359 121.219 66.5622 117.076C57.4885 112.933 53.916 96.9997 60.262 83.0981C66.6079 69.1964 80.441 62.6223 89.5148 66.7654Z" fill="white"/>
<path d="M84.6411 70.8969L77.1539 93.644L79.2654 92.5027L68.7193 90.083C66.5735 89.6036 65.6605 92.9021 67.8062 93.3815L78.3409 95.7555C78.7719 95.8683 79.2298 95.8132 79.6218 95.6013C80.0138 95.3895 80.3106 95.0366 80.4524 94.6141L87.9054 71.81C88.5902 69.7099 85.2917 68.8082 84.6069 70.8969H84.6411Z" fill="#474448"/>
<path d="M77.1996 70.9655C77.0265 70.994 76.8606 71.0563 76.7116 71.1488C76.5626 71.2414 76.4332 71.3624 76.3309 71.5049C76.2287 71.6475 76.1555 71.8088 76.1155 71.9796C76.0756 72.1504 76.0697 72.3275 76.0982 72.5006C76.1266 72.6737 76.1889 72.8395 76.2815 72.9886C76.3741 73.1376 76.4951 73.2669 76.6376 73.3692C76.7802 73.4715 76.9415 73.5447 77.1123 73.5846C77.2831 73.6246 77.4602 73.6305 77.6333 73.602C77.9829 73.5445 78.2954 73.3504 78.5019 73.0625C78.7085 72.7747 78.7922 72.4165 78.7347 72.0669C78.6772 71.7173 78.4831 71.4048 78.1952 71.1982C77.9073 70.9917 77.5492 70.908 77.1996 70.9655V70.9655Z" fill="#606060"/>
<path d="M80.053 111.027C79.7153 111.094 79.4167 111.29 79.2196 111.572C79.0225 111.854 78.942 112.202 78.9951 112.542C79.0481 112.882 79.2305 113.189 79.5042 113.398C79.7779 113.607 80.1217 113.702 80.4639 113.663C80.8015 113.596 81.1001 113.401 81.2972 113.118C81.4943 112.836 81.5748 112.488 81.5218 112.148C81.4687 111.808 81.2863 111.501 81.0126 111.292C80.739 111.083 80.3951 110.988 80.053 111.027V111.027Z" fill="#606060"/>
<path d="M94.6736 86.191C94.3359 86.2584 94.0373 86.4537 93.8402 86.736C93.6431 87.0184 93.5626 87.3659 93.6157 87.7062C93.6687 88.0464 93.8511 88.353 94.1248 88.5619C94.3985 88.7709 94.7423 88.8661 95.0845 88.8275C95.4221 88.7601 95.7207 88.5648 95.9178 88.2825C96.1149 88.0002 96.1954 87.6526 96.1424 87.3124C96.0893 86.9722 95.9069 86.6656 95.6333 86.4566C95.3596 86.2477 95.0157 86.1525 94.6736 86.191Z" fill="#606060"/>
<path d="M61.6544 95.4018C61.3167 95.4693 61.0182 95.6645 60.821 95.9468C60.6239 96.2292 60.5435 96.5767 60.5965 96.917C60.6495 97.2572 60.8319 97.5638 61.1056 97.7727C61.3793 97.9817 61.7231 98.0768 62.0653 98.0383C62.403 97.9709 62.7015 97.7756 62.8987 97.4933C63.0958 97.211 63.1762 96.8634 63.1232 96.5232C63.0702 96.183 62.8878 95.8764 62.6141 95.6674C62.3404 95.4585 61.9966 95.3633 61.6544 95.4018Z" fill="#606060"/>
<path opacity="0.37" d="M78.7746 94.0778C78.7746 94.0778 68.765 73.5335 68.7421 73.6134C68.7193 73.6933 61.9511 81.2947 59.4515 90.1402L78.7746 94.0778Z" fill="#8F8DFF"/>
<path d="M331.435 199.39C331.975 199.619 332.573 199.668 333.143 199.531C333.712 199.393 334.222 199.076 334.597 198.626C334.597 198.626 335.156 198.523 335.156 196.092V83.5203C335.128 82.5459 334.894 81.5885 334.469 80.7111C334.044 79.8337 333.438 79.0563 332.691 78.4299C329.93 76.4955 327.052 74.7344 324.074 73.1568L198.982 0.943581L197.578 0.224531C197.104 -0.00681456 196.563 -0.0615009 196.053 0.0703117C195.542 0.202124 195.095 0.511783 194.793 0.943581C194.426 1.56509 194.215 2.26593 194.177 2.9866C194.177 4.12795 194.177 15.5415 194.177 15.5415V116.825C194.177 117.798 194.381 118.76 194.774 119.65C195.167 120.541 195.741 121.339 196.459 121.995L331.435 199.39Z" fill="#474448"/>
<path d="M332.862 182.327V85.1981C332.862 81.968 332.417 80.1647 329.929 78.8179L197.966 2.3474C197.702 2.15528 197.39 2.04095 197.064 2.01738C196.738 1.99381 196.413 2.06195 196.124 2.21406C195.835 2.36617 195.595 2.59617 195.43 2.87797C195.266 3.15976 195.183 3.48207 195.192 3.80833L195.512 103.688L332.862 182.327Z" fill="#F5F6FF"/>
<path d="M204.129 93.2332V93.3017C204.13 93.6784 204.229 94.0485 204.418 94.3749C204.606 94.7013 204.876 94.9727 205.202 95.162L227.207 107.865C227.468 108.018 227.765 108.1 228.067 108.101C228.369 108.103 228.666 108.024 228.928 107.873C229.191 107.723 229.408 107.505 229.559 107.243C229.71 106.981 229.788 106.684 229.787 106.382V106.382C229.786 105.981 229.681 105.588 229.48 105.242C229.28 104.895 228.992 104.607 228.645 104.407L206.72 91.7951C206.462 91.6445 206.169 91.5637 205.87 91.5605C205.571 91.5574 205.277 91.632 205.016 91.777C204.754 91.922 204.535 92.1325 204.38 92.3878C204.224 92.6431 204.138 92.9344 204.129 93.2332V93.2332Z" fill="#474448"/>
<path d="M243.449 113.275V113.344C243.45 113.721 243.549 114.091 243.737 114.417C243.925 114.743 244.196 115.015 244.522 115.204L266.527 127.907C266.787 128.061 267.084 128.142 267.386 128.143C267.689 128.145 267.986 128.066 268.248 127.915C268.51 127.765 268.727 127.547 268.878 127.285C269.029 127.023 269.108 126.726 269.106 126.424C269.106 126.023 269 125.63 268.8 125.284C268.6 124.937 268.312 124.649 267.965 124.449L246.04 111.78C245.777 111.627 245.479 111.547 245.176 111.546C244.872 111.545 244.574 111.625 244.311 111.777C244.048 111.928 243.83 112.147 243.678 112.41C243.527 112.673 243.448 112.972 243.449 113.275V113.275Z" fill="#474448"/>
<path d="M289.491 136.376V136.445C289.492 136.821 289.591 137.192 289.779 137.518C289.967 137.844 290.238 138.116 290.564 138.305L312.569 151.008C312.829 151.162 313.126 151.243 313.428 151.244C313.731 151.246 314.028 151.167 314.29 151.016C314.552 150.866 314.769 150.648 314.92 150.386C315.071 150.124 315.15 149.827 315.148 149.525C315.148 149.124 315.042 148.731 314.842 148.385C314.642 148.038 314.354 147.75 314.007 147.55L292.082 134.881C291.819 134.728 291.521 134.647 291.218 134.647C290.914 134.646 290.616 134.726 290.353 134.878C290.09 135.029 289.872 135.248 289.72 135.511C289.569 135.774 289.49 136.073 289.491 136.376V136.376Z" fill="#474448"/>
<path d="M230.33 77.4593C238.956 74.5515 242.841 62.9795 239.009 51.6125C235.177 40.2455 225.079 33.3879 216.453 36.2957C207.828 39.2035 203.942 50.7755 207.774 62.1425C211.606 73.5095 221.705 80.3671 230.33 77.4593Z" fill="white"/>
<path d="M222.242 57.2806L219.96 35.652C219.96 35.652 210.989 34.9901 207.736 45.1138L222.242 57.2806Z" fill="#474448"/>
<path d="M222.242 57.2807C222.242 57.2807 213.454 71.9242 212.883 71.2508C212.313 70.5774 202.212 60.0656 207.747 45.1139L222.242 57.2807Z" fill="#05D9B2"/>
<path d="M271.593 99.0972C280.219 96.1895 284.104 84.6175 280.272 73.2505C276.44 61.8834 266.341 55.0259 257.716 57.9336C249.091 60.8414 245.205 72.4134 249.037 83.7804C252.869 95.1474 262.968 102.005 271.593 99.0972Z" fill="white"/>
<path d="M263.502 78.9206L252.328 60.9786C252.328 60.9786 249.053 64.9733 249.053 66.6853L263.502 78.9206Z" fill="#474448"/>
<path d="M263.502 78.9207C263.502 78.9207 254.725 93.5642 254.155 92.868C253.584 92.1718 243.483 81.7056 249.053 66.7539L263.502 78.9207Z" fill="#05D9B2"/>
<path d="M314.938 122.99C323.563 120.082 327.449 108.51 323.617 97.143C319.785 85.776 309.686 78.9185 301.061 81.8262C292.435 84.734 288.55 96.306 292.382 107.673C296.214 119.04 306.312 125.898 314.938 122.99Z" fill="white"/>
<path d="M306.839 102.809L304.557 81.1806C304.557 81.1806 295.631 80.53 292.39 90.6538L306.839 102.809Z" fill="#474448"/>
<path d="M306.839 102.809C306.839 102.809 291.248 102.809 291.077 101.93C290.347 98.0383 291.42 92.2174 292.39 90.6423L306.839 102.809Z" fill="#05D9B2"/>
<path d="M253.926 157.514C251.438 156.251 248.988 154.919 246.576 153.519C246.148 152.593 245.671 151.691 245.149 150.814C244.801 150.112 244.242 149.536 243.55 149.168C242.858 148.8 242.068 148.657 241.291 148.76C240.995 148.826 240.731 148.994 240.546 149.234C240.36 149.475 240.264 149.773 240.275 150.076C240.286 150.38 240.403 150.67 240.605 150.896C240.807 151.123 241.082 151.272 241.383 151.316L241.588 151.556C238.586 151.693 233.188 152.138 234.409 155.083C234.297 155.172 234.194 155.271 234.101 155.38C233.792 155.754 233.639 156.233 233.673 156.717C233.707 157.201 233.926 157.654 234.284 157.982C234.55 158.238 234.877 158.423 235.235 158.519C235.592 158.615 235.968 158.618 236.327 158.53C236.559 158.998 236.961 159.36 237.451 159.543C237.94 159.725 238.481 159.714 238.963 159.511L239.694 159.283C239.663 159.47 239.68 159.661 239.742 159.839C239.804 160.018 239.909 160.178 240.048 160.306C240.187 160.434 240.356 160.525 240.539 160.572C240.722 160.618 240.914 160.619 241.097 160.573L243.574 160.093C249.19 161.885 251.986 162.536 254.097 163.974C254.976 164.568 254.097 164.796 254.097 163.974C254.2 163.849 254.275 163.703 254.317 163.547C254.359 163.391 254.367 163.227 254.341 163.068C254.316 162.908 254.256 162.756 254.167 162.621C254.077 162.486 253.96 162.371 253.823 162.285L253.584 162.114C253.723 162.022 253.84 161.902 253.928 161.76C254.015 161.618 254.071 161.459 254.09 161.294C254.11 161.129 254.093 160.961 254.041 160.803C253.989 160.645 253.903 160.5 253.789 160.379L253.493 160.036C253.778 160.002 254.045 159.877 254.253 159.678C254.462 159.48 254.601 159.22 254.649 158.937C254.698 158.653 254.654 158.362 254.524 158.106C254.393 157.849 254.184 157.642 253.926 157.514V157.514Z" fill="#F4DBBD"/>
<path d="M282.7 243.812L284.069 263.135L281.65 265.223L278.968 264.527C278.968 264.527 279.31 259.414 278.374 258.295C277.438 257.177 275.817 262.724 274.95 262.701C274.083 262.678 263.08 259.745 262.932 258.41C262.726 256.629 265.214 254.586 269.78 255.716C274.802 256.937 275.68 251.276 276.479 245.843" fill="#333333"/>
<path d="M274.847 247.669C274.847 247.669 279.618 249.69 287.813 244.451C287.813 244.451 284.982 218.827 285.222 214.41C285.462 209.993 290.392 178.138 284.309 171.108C278.226 164.077 267.303 231.599 267.817 232.021" fill="#474448"/>
<path d="M278.819 259.037L278.363 258.295C278.017 257.961 277.588 257.726 277.12 257.613C276.653 257.501 276.163 257.516 275.703 257.656C274.379 258.273 274.562 262.849 274.562 262.849L279.127 261.149C279.179 260.431 279.073 259.711 278.819 259.037Z" fill="#474448"/>
<path d="M267.817 253.285L267.337 272.688L264.735 274.537L262.133 273.589C262.133 273.589 262.966 268.533 262.133 267.323C261.299 266.114 259.165 271.489 258.263 271.375C257.362 271.261 246.736 267.312 246.702 265.954C246.702 264.15 249.304 262.359 253.824 263.922C258.709 265.611 260.124 260.064 261.425 254.734" fill="#2B2A30"/>
<path d="M262.532 268.065L262.144 267.278C261.83 266.913 261.424 266.639 260.968 266.485C260.513 266.33 260.024 266.301 259.553 266.399C258.184 266.878 257.944 271.467 257.944 271.467L262.646 270.2C262.763 269.488 262.724 268.76 262.532 268.065V268.065Z" fill="#474448"/>
<path d="M266.23 178.675C266.23 178.675 258.127 200.532 256.289 209.993C254.451 219.455 254.383 254.951 255.033 255.91C255.684 256.869 263.571 258.546 268.878 258.455C274.185 258.364 273.443 216.499 273.443 216.499C273.443 216.499 287.916 179.827 284.047 175.81C280.177 171.792 266.23 178.675 266.23 178.675Z" fill="#474448"/>
<path d="M265.956 179.086C273.306 181.368 282.654 178.629 287.151 172.306C286.306 161.965 284.526 144.913 281.878 142.3C278.043 138.59 269.723 143.863 266.721 149.034C265.169 151.705 262.235 161.212 262.235 161.212L250.913 154.763L247.489 162.821C247.489 162.821 255.25 177.442 265.751 174.109L265.956 179.086Z" fill="#F5F5F5"/>
<path d="M272.987 160.105C272.987 159.99 272.941 159.88 272.86 159.798C272.779 159.717 272.668 159.671 272.553 159.671C272.438 159.671 272.328 159.717 272.247 159.798C272.165 159.88 272.119 159.99 272.119 160.105C272.119 163.392 272.017 166.953 270.43 169.863C269.822 171.114 268.906 172.189 267.768 172.988C266.63 173.786 265.307 174.282 263.925 174.429C263.365 174.429 263.365 175.319 263.925 175.296C265.402 175.158 266.822 174.655 268.058 173.832C269.293 173.009 270.304 171.893 271.001 170.582C272.804 167.467 273.01 163.7 272.987 160.105Z" fill="white"/>
<path d="M269.026 123.502C268.433 123.627 267.474 124.575 266.036 127.953C264.598 131.332 268.033 135.634 269.529 136.536C271.024 137.438 273.192 140.953 273.192 140.953C273.192 140.953 278.682 142.288 282.323 135.555C285.964 128.821 277.94 121.55 269.026 123.502Z" fill="#EDC868"/>
<path d="M267.474 127.257C267.474 127.257 264.712 138.499 268.787 141.067C272.861 143.635 278.363 136.821 278.888 134.093C279.413 131.366 276.434 125.476 267.474 127.257Z" fill="#F4DBBD"/>
<path d="M267.474 127.257C267.474 127.257 266.789 134.607 270.59 136.216C274.391 137.826 274.471 140.131 274.471 140.131C274.471 140.131 281.433 136.41 282.152 133.123C282.871 129.836 272.804 124.312 267.474 127.257Z" fill="#EDC868"/>
<path d="M280.257 136.079C278.876 147.082 281.65 161.189 277.073 171.518C276.788 172.146 276.183 175.022 275.715 175.011L286.82 168.962C291.271 166.2 294.513 164.396 292.926 157.434C291.34 150.472 282.38 135.554 282.38 135.554L280.257 136.079Z" fill="#EDC868"/>
<path d="M263.308 155.711C262.604 158.632 262.055 161.588 261.665 164.568C261.596 165.115 262.464 165.115 262.532 164.568C262.915 161.665 263.453 158.785 264.141 155.939C264.29 155.391 263.445 155.151 263.308 155.711Z" fill="white"/>
<path d="M278.945 141.056L277.906 138.773C275.854 139.83 273.729 140.742 271.549 141.501C268.935 142.3 269.666 145.313 269.666 145.313C269.666 145.313 275.749 145.37 278.945 141.056Z" fill="#F5F5F5"/>
<path d="M283.453 178.036C283.385 177.305 282.243 177.305 282.312 178.036C283.453 191.116 277.746 203.145 274.608 215.552C271.446 228.198 271.355 241.689 270.316 254.632C270.259 255.362 271.4 255.362 271.458 254.632C272.542 241.107 272.599 227.045 276.217 213.897C279.413 202.095 284.56 190.522 283.453 178.036Z" fill="#333333"/>
<path d="M185.137 68.523L182.843 57.7829L197.566 54.9523L201.938 77.1174L186.598 80.0963" fill="#F5F5F5"/>
<path d="M180.252 76.0445C180.252 76.0445 181.005 71.4791 181.302 70.2807C181.599 69.0822 183.585 66.8566 184.544 66.0691C185.685 65.1103 188.401 63.5239 188.481 64.5168C188.561 65.5098 185.719 68.4431 185.719 68.4431C185.719 68.4431 186.644 73.077 186.039 75.2912C185.695 76.5844 185.102 77.7979 184.293 78.8636" fill="#FFCEA9"/>
<path d="M179.042 75.7363C176.851 78.293 173.119 83.7258 173.119 83.7258C170.982 79.7844 169.146 75.6866 167.629 71.4677C165.78 65.8522 161.271 65.7609 161.271 65.7609L164.376 91.0304C165.498 92.5434 167.099 93.6327 168.918 94.1216C170.737 94.6106 172.668 94.4705 174.397 93.724C179.727 91.7153 184.749 82.6301 185.731 78.4413C183.654 77.2008 181.398 76.2884 179.042 75.7363V75.7363Z" fill="#F5F5F5"/>
<path d="M165.46 140.052L161.739 176.575L153.396 171.165L153.179 128.969" fill="#FFCEA9"/>
<path d="M170.083 187.669C169.261 186.151 167.526 184.975 166.248 183.868C164.781 182.795 163.669 181.308 163.052 179.599C162.732 178.698 162.458 167.044 162.744 167.044H162.561C161.268 168.139 159.714 168.879 158.05 169.193C156.385 169.507 154.668 169.384 153.065 168.836C152.631 174.863 152.221 182.259 152.563 182.749C153.492 183.543 154.55 184.172 155.69 184.61V177.693L156.717 184.347C156.966 184.89 157.328 185.372 157.779 185.763C158.527 186.307 159.36 186.724 160.244 186.995C161.887 187.78 163.614 188.374 165.392 188.764C166.647 188.993 169.603 189.346 170.197 187.783L170.083 187.669Z" fill="#333333"/>
<path d="M155.051 142.505L151.319 179.04L142.964 170.446L142.77 131.423" fill="#FFCEA9"/>
<path d="M152.837 170.469C153.232 165.903 153.571 161.311 153.853 156.692C157.906 155.949 161.754 154.35 165.141 152.001C167.903 139.937 166.43 103.597 166.43 103.597L142.861 105.628C137.155 122.395 141.994 155.951 141.994 155.951C145.442 157.068 149.1 157.385 152.688 156.875C152.43 161.113 152.122 165.348 151.764 169.578C150.391 170.344 148.857 170.775 147.287 170.836C145.716 170.898 144.153 170.588 142.724 169.932C142.256 176.141 141.754 184.656 142.12 185.181C143.049 185.974 144.106 186.603 145.247 187.041V180.124L146.274 186.778C146.522 187.321 146.884 187.803 147.336 188.194C148.083 188.738 148.916 189.155 149.801 189.426C151.443 190.212 153.17 190.805 154.948 191.195C156.204 191.424 159.16 191.778 159.753 190.214L159.685 190.077C158.863 188.559 157.128 187.383 155.85 186.276C154.384 185.203 153.271 183.717 152.654 182.008C152.314 178.354 152.173 174.685 152.232 171.016C152.384 171.02 152.531 170.965 152.643 170.863C152.756 170.761 152.825 170.62 152.837 170.469V170.469Z" fill="#474448"/>
<path d="M166.465 80.9067C166.191 73.602 165.917 62.8847 155.69 65.293C155.474 65.3528 155.245 65.3528 155.028 65.293C151.863 66.6325 149.068 68.7153 146.879 71.365C141.926 77.6538 142.862 105.605 142.862 105.605C146.694 107.041 150.798 107.604 154.876 107.253C158.953 106.901 162.9 105.645 166.43 103.574C166.533 96.0296 166.75 88.4738 166.465 80.9067Z" fill="#F5F5F5"/>
<path d="M143.067 116.505C143.067 116.505 143.957 124.072 143.067 125.568C142.645 126.23 142.097 122.36 142.097 122.36C142.097 122.36 141.309 127.154 140.704 127.953C140.099 128.752 137.28 126.64 136.79 124.529C136.299 122.417 139.072 115.295 139.072 115.295L143.067 116.505Z" fill="#FFCEA9"/>
<path d="M149.185 90.4826C149.561 95.2192 145.121 117.361 145.121 117.361C141.572 118.503 137.885 117.487 137.132 116.722C136.379 115.957 139.164 89.6836 140.944 81.5572C142.725 73.4308 146.89 71.285 146.89 71.285" fill="#F5F5F5"/>
<path d="M161.02 54.4273C161.02 54.4273 165.586 66.6169 160.621 69.0594C156.489 71.1138 152.734 66.9251 151.684 64.1516C150.44 60.8759 152.437 56.3105 154.709 53.7311C156.717 51.4369 159.81 51.1402 161.02 54.4273Z" fill="#FFCEA9"/>
<path d="M157.459 49.6679C153.796 49.3483 150.394 50.3755 148.329 53.4001C145.805 56.9839 144.507 61.2879 144.631 65.6696C144.715 66.6266 145.04 67.5467 145.574 68.3448C146.109 69.1428 146.837 69.793 147.689 70.235C148.112 70.478 148.559 70.6733 149.025 70.8171C150.68 71.3193 153.191 71.9585 154.732 70.8171C153.59 67.5985 153.693 63.2386 155.291 61.264C155.291 61.264 155.051 58.7645 155.531 59.1297C156.01 59.4949 155.416 61.3439 156.82 61.264C158.224 61.1841 162.059 60.739 163.897 57.84C165.027 56.0595 162.344 50.0902 157.459 49.6679Z" fill="#474448"/>
<path d="M154.766 63.7749C154.766 63.7749 154.538 61.6977 153.271 62.1086C152.004 62.5194 152.78 65.2587 154.344 65.9207" fill="#FFCEA9"/>
<path d="M165.688 80.4501C166.497 88.1374 166.745 95.8733 166.43 103.597C166.43 103.597 165.46 92.3886 165.46 90.9619C165.46 89.5352 165.688 80.4501 165.688 80.4501Z" fill="#F5F5F5"/>
<path d="M147.096 106.85L149.207 85.495L149.949 107.375L147.096 106.85Z" fill="#F5F5F5"/>
</g>
<defs>
<clipPath id="clip0">
<rect width="400" height="300" fill="white"/>
</clipPath>
</defs>
</svg>
