<svg width="412" height="367" viewBox="0 0 412 367" fill="none" xmlns="http://www.w3.org/2000/svg">
<g clip-path="url(#clip0)">
<path opacity="0.67" d="M259.846 363.112H210.452C200.903 363.112 193.092 355.301 193.092 345.752V257.367C193.092 247.818 200.903 240.006 210.452 240.006H259.842C269.391 240.006 277.202 247.818 277.202 257.367V345.752C277.206 355.301 269.395 363.112 259.846 363.112Z" fill="#A7ADFF"/>
<path d="M348.887 363.112H299.497C289.948 363.112 282.137 355.301 282.137 345.752V187.323C282.137 177.774 289.948 169.963 299.497 169.963H348.887C358.436 169.963 366.248 177.774 366.248 187.323V345.752C366.251 355.301 358.436 363.112 348.887 363.112Z" fill="#A7ADFF"/>
<path d="M170.963 363.112H121.573C112.024 363.112 104.212 355.301 104.212 345.752V292.068C104.212 282.519 112.024 274.708 121.573 274.708H170.963C180.512 274.708 188.323 282.519 188.323 292.068V345.752C188.327 355.301 180.512 363.112 170.963 363.112Z" fill="#E3E5FC"/>
<path d="M394.493 123.198H303.679C294.13 123.198 286.319 115.387 286.319 105.838V86.4505C286.319 76.9015 294.13 69.0901 303.679 69.0901H394.493C404.042 69.0901 411.853 76.9015 411.853 86.4505V105.838C411.853 115.387 404.042 123.198 394.493 123.198Z" fill="#E3E5FC"/>
<path opacity="0.67" d="M372.464 105.205H281.65C272.101 105.205 264.29 97.3934 264.29 87.8444V45.3354C264.29 35.7865 272.101 27.9751 281.65 27.9751H372.464C382.013 27.9751 389.825 35.7865 389.825 45.3354V87.8444C389.828 97.3934 382.013 105.205 372.464 105.205Z" fill="#A7ADFF"/>
<path d="M288.933 83.2765C298.103 95.8991 315.769 98.6985 328.387 89.5279L295.184 43.8218C282.561 52.9885 279.762 70.6539 288.933 83.2765Z" fill="white"/>
<path d="M298.153 41.6633L313.367 62.6031L334.712 47.0962C326.055 35.659 309.811 33.1917 298.153 41.6633Z" fill="white"/>
<path d="M337.203 50.4748C337.098 50.332 336.979 50.2045 336.871 50.0617L315.525 65.5686L331.361 87.3656C343.161 78.7935 345.779 62.2788 337.203 50.4748Z" fill="white"/>
<path d="M376.276 59.1975H352.803C351.602 59.1975 350.621 58.2167 350.621 57.0159V57.0159C350.621 55.815 351.602 54.8342 352.803 54.8342H376.276C377.476 54.8342 378.457 55.815 378.457 57.0159V57.0159C378.457 58.2167 377.476 59.1975 376.276 59.1975Z" fill="white"/>
<path d="M376.275 66.6073H352.802C351.602 66.6073 350.621 65.6265 350.621 64.4257V64.4257C350.621 63.2248 351.602 62.244 352.802 62.244H376.275C377.476 62.244 378.457 63.2248 378.457 64.4257V64.4257C378.457 65.6227 377.476 66.6073 376.275 66.6073Z" fill="white"/>
<path d="M376.275 74.0133H352.802C351.602 74.0133 350.621 73.0325 350.621 71.8316V71.8316C350.621 70.6308 351.602 69.65 352.802 69.65H376.275C377.476 69.65 378.457 70.6308 378.457 71.8316V71.8316C378.457 73.0325 377.476 74.0133 376.275 74.0133Z" fill="white"/>
<path d="M376.275 81.4192H352.802C351.602 81.4192 350.621 80.4385 350.621 79.2376V79.2376C350.621 78.0367 351.602 77.056 352.802 77.056H376.275C377.476 77.056 378.457 78.0367 378.457 79.2376V79.2376C378.457 80.4385 377.476 81.4192 376.275 81.4192Z" fill="white"/>
<path d="M96.2852 190.014H11.8039C5.51775 190.014 0.374512 184.871 0.374512 178.585V175.955C0.374512 169.669 5.51775 164.526 11.8039 164.526H96.2852C102.571 164.526 107.715 169.669 107.715 175.955V178.585C107.715 184.871 102.571 190.014 96.2852 190.014Z" fill="#E3E5FC"/>
<path d="M95.3394 178.052L95.2545 178.156C95.0537 178.403 94.683 178.442 94.4359 178.241L87.0415 172.218C86.7944 172.017 86.7558 171.646 86.9566 171.399L87.0415 171.295C87.2423 171.048 87.613 171.009 87.8601 171.21L95.2545 177.233C95.5055 177.438 95.5441 177.805 95.3394 178.052Z" fill="white"/>
<path d="M95.3392 177.415L95.2542 177.311C95.0534 177.063 94.6828 177.025 94.4356 177.226L87.0413 183.249C86.7941 183.45 86.7555 183.821 86.9563 184.068L87.0413 184.172C87.242 184.419 87.6127 184.458 87.8599 184.257L95.2542 178.233C95.5052 178.029 95.5438 177.662 95.3392 177.415Z" fill="white"/>
<path d="M109.367 218.372H52.8727C48.6678 218.372 45.2312 214.931 45.2312 210.73V208.973C45.2312 204.768 48.6716 201.332 52.8727 201.332H109.367C113.572 201.332 117.009 204.772 117.009 208.973V210.73C117.009 214.931 113.568 218.372 109.367 218.372Z" fill="#A7ADFF"/>
<path d="M108.734 210.375L108.676 210.444C108.541 210.61 108.294 210.634 108.128 210.498L103.182 206.471C103.016 206.336 102.992 206.089 103.128 205.923L103.185 205.853C103.321 205.687 103.568 205.664 103.734 205.799L108.68 209.827C108.842 209.962 108.869 210.209 108.734 210.375Z" fill="white"/>
<path d="M108.734 209.946L108.676 209.877C108.541 209.711 108.294 209.688 108.128 209.823L103.181 213.85C103.015 213.985 102.992 214.232 103.127 214.398L103.185 214.468C103.32 214.634 103.568 214.657 103.734 214.522L108.68 210.495C108.842 210.356 108.869 210.112 108.734 209.946Z" fill="white"/>
<path d="M98.3163 338.215C96.5749 337.234 93.9955 337.774 93.1654 339.593C90.8486 335.295 92.0108 330.067 92.5862 325.221C92.7908 323.484 92.8951 321.642 92.1421 320.063C91.3853 318.483 89.4894 317.321 87.8599 317.962C84.5277 319.271 85.5934 325.901 82.0371 326.302C80.0177 326.53 78.7125 324.337 77.5812 322.65C76.0251 320.329 73.8319 318.445 71.3027 317.255C70.4108 316.838 69.2176 316.557 68.5535 317.286C67.9357 317.962 68.2176 319.032 68.5535 319.881C69.6964 322.766 71.0826 325.553 72.6889 328.202C72.9129 328.573 73.1523 328.99 73.0596 329.415C72.8511 330.38 71.434 330.237 70.5227 329.859C67.2329 328.488 63.9431 327.121 60.6533 325.75C59.7188 326.619 60.1011 328.222 60.9081 329.206C61.7151 330.191 62.8542 330.897 63.5222 331.982C64.5262 333.62 64.2327 335.705 64.4528 337.612C64.6729 339.524 66.0012 341.705 67.9086 341.458C66.3448 342.176 66.2946 344.555 67.3565 345.906C68.4183 347.258 70.1366 347.872 71.7313 348.52C73.3222 349.173 74.998 350.046 75.6853 351.621C76.2722 352.961 76.0058 354.513 76.2954 355.946C77.8824 363.796 88.9295 366.85 93.509 360.606C96.7062 356.262 105.189 342.091 98.3163 338.215Z" fill="#978CFF"/>
<path d="M56.8036 360.618C56.2051 359.961 55.5679 359.201 55.6336 358.316C55.7185 357.162 57.0777 356.421 58.2091 356.66C59.3404 356.899 60.2015 357.841 60.7459 358.861C60.8232 357.486 61.163 356.127 61.7421 354.876C61.9661 354.389 62.3831 353.845 62.9044 353.961C63.2094 354.03 63.4141 354.308 63.5647 354.583C64.1748 355.698 64.3099 357.069 63.9276 358.282C64.6111 355.865 66.6576 353.88 69.0941 353.27C69.3991 353.192 69.7389 353.142 70.0208 353.285C70.6617 353.617 70.4687 354.575 70.1791 355.239C68.816 358.374 67.3179 362.182 64.5918 364.417C61.9082 366.61 58.4871 362.463 56.8036 360.618Z" fill="#2AF3CE"/>
<path d="M89.1071 364.672C88.7866 364.672 88.497 364.46 88.4082 364.135L80.3304 333.878C80.2262 333.492 80.4578 333.094 80.844 332.994C81.2262 332.89 81.6278 333.121 81.7282 333.508L89.806 363.765C89.9103 364.151 89.6786 364.549 89.2925 364.649C89.2307 364.664 89.1689 364.672 89.1071 364.672Z" fill="white"/>
<path d="M84.0527 345.748C83.9446 345.748 83.8326 345.725 83.7322 345.671L73.1098 340.369C72.7507 340.192 72.6078 339.755 72.7854 339.4C72.9631 339.041 73.3994 338.898 73.7546 339.076L84.377 344.377C84.7361 344.555 84.879 344.991 84.7014 345.346C84.574 345.601 84.3191 345.748 84.0527 345.748Z" fill="white"/>
<path d="M86.8752 356.32C86.7633 356.32 86.6513 356.293 86.5432 356.239C86.1879 356.054 86.0489 355.621 86.2343 355.266L90.6361 346.744C90.8215 346.389 91.2539 346.25 91.6092 346.435C91.9644 346.621 92.1034 347.053 91.9181 347.408L87.5162 355.93C87.3926 356.177 87.1378 356.32 86.8752 356.32Z" fill="white"/>
<path d="M345.586 336.222C345.497 335.913 345.42 335.6 345.35 335.284C344.516 331.392 345.582 326.893 348.771 324.511C351.899 322.171 356.926 321.708 358.127 317.989C358.981 315.356 357.285 312.664 356.108 310.158C354.93 307.652 354.552 304.038 356.961 302.675C358.934 301.559 361.541 302.76 363.63 301.884C367.186 300.393 366.657 294.343 370.163 292.74C372.46 291.69 375.206 293.203 377.65 292.57C381.187 291.651 382.114 286.937 381.252 283.388C380.391 279.836 378.453 276.403 378.878 272.773C380.028 262.892 403.374 255.687 403.795 268.866C403.911 272.484 401.49 275.619 400.107 278.967C398.725 282.315 398.987 287.157 402.393 288.388C404.698 289.222 407.892 288.149 409.305 290.157C411.911 293.86 402.934 296.737 403.467 301.231C403.833 304.316 408.143 304.888 410.247 307.177C413.015 310.189 411 315.336 407.66 317.696C404.32 320.055 400.092 320.738 396.42 322.538C394.948 323.256 393.458 324.298 393.026 325.874C392.053 329.407 396.667 331.716 400.289 332.26C403.911 332.805 408.617 334.187 408.614 337.852C408.61 340.786 405.351 342.547 402.49 343.219C399.628 343.891 396.323 344.362 394.705 346.814C393.161 349.161 393.879 352.316 393.041 354.996C391.149 361.043 371.279 364.765 365.12 363.263C355.447 360.907 358.081 352.756 351.316 345.454C348.825 342.779 346.582 339.717 345.586 336.222Z" fill="#2AF3CE"/>
<path d="M362.49 355.142C364.29 350.864 363.769 346.01 363.216 341.4C363.031 339.859 362.83 338.265 362.027 336.94C361.224 335.612 359.641 334.624 358.135 335.01C356.189 335.508 355.115 338.014 353.111 338.149C351.567 338.253 350.316 336.821 349.852 335.346C348.945 332.45 350.065 329.341 350.084 326.31C350.103 323.279 347.949 319.634 344.976 320.248C341.906 320.881 341.47 325.09 342.072 328.164C342.346 329.569 342.535 331.361 341.315 332.11C340.022 332.901 338.45 331.758 337.33 330.735C335.164 328.758 332.824 326.974 330.345 325.41C329.206 324.692 327.646 324.044 326.623 324.916C325.634 325.758 325.966 327.349 326.484 328.538C327.542 330.967 329.04 333.203 330.886 335.102C331.816 336.06 332.89 337.523 332.029 338.543C331.334 339.369 330.013 339.025 329.013 338.616C326.855 337.74 321.329 328.978 322.41 338.57C323.491 348.161 333.751 347.234 339.72 351.142C337.23 352.887 337.164 356.807 338.867 359.324C340.57 361.842 343.497 363.228 346.373 364.216C355.158 367.24 358.876 363.745 362.49 355.142Z" fill="#F2F2F2"/>
<path d="M356.892 363.838C356.652 363.838 356.417 363.718 356.278 363.498L341.087 339.141C340.875 338.801 340.979 338.357 341.319 338.145C341.655 337.937 342.103 338.037 342.315 338.377L357.506 362.734C357.718 363.074 357.614 363.518 357.274 363.73C357.158 363.799 357.023 363.838 356.892 363.838Z" fill="white"/>
<path d="M351.949 355.911C351.887 355.911 351.825 355.903 351.764 355.888C351.378 355.787 351.146 355.39 351.25 355.003L353.903 344.964C354.003 344.578 354.397 344.346 354.787 344.451C355.173 344.551 355.405 344.949 355.301 345.335L352.648 355.374C352.563 355.698 352.269 355.911 351.949 355.911Z" fill="white"/>
<path d="M345.686 345.871C345.647 345.871 345.609 345.868 345.57 345.864L337.245 344.539C336.851 344.478 336.581 344.107 336.643 343.713C336.705 343.319 337.071 343.045 337.473 343.111L345.798 344.435C346.192 344.497 346.462 344.868 346.4 345.261C346.346 345.617 346.037 345.871 345.686 345.871Z" fill="white"/>
<path d="M364.162 366.367C364.085 366.367 364.004 366.356 363.927 366.329C363.548 366.197 363.348 365.788 363.479 365.41L387.554 295.601C387.685 295.223 388.099 295.026 388.473 295.153C388.851 295.285 389.052 295.694 388.921 296.072L364.846 365.881C364.745 366.182 364.464 366.367 364.162 366.367Z" fill="white"/>
<path d="M374.013 339.481C373.646 339.481 373.333 339.203 373.294 338.828C373.252 338.431 373.545 338.076 373.943 338.037L389.616 336.469C390.002 336.431 390.369 336.72 390.408 337.118C390.45 337.516 390.157 337.871 389.759 337.91L374.086 339.477C374.063 339.481 374.036 339.481 374.013 339.481Z" fill="white"/>
<path d="M380.496 318.9C380.152 318.9 379.851 318.657 379.785 318.31C379.712 317.916 379.974 317.537 380.364 317.468L393.651 315.02C394.053 314.946 394.42 315.205 394.493 315.599C394.566 315.993 394.304 316.371 393.914 316.441L380.627 318.889C380.585 318.896 380.542 318.9 380.496 318.9Z" fill="white"/>
<path d="M377.268 328.222C377.074 328.222 376.881 328.144 376.739 327.994L365.722 316.224C365.448 315.931 365.464 315.475 365.757 315.201C366.05 314.927 366.506 314.946 366.78 315.236L377.797 327.005C378.071 327.299 378.055 327.754 377.762 328.028C377.623 328.156 377.445 328.222 377.268 328.222Z" fill="white"/>
<path d="M206.177 211.981L200.59 231.349L193.47 230.268L200.586 210.386C200.586 210.386 204.563 210.452 206.177 211.981Z" fill="#F4DBBD"/>
<path d="M229.187 235.944C229.187 235.944 224.14 237.782 214.356 238.856C204.571 239.929 191.451 239.346 189.103 238.632C185.531 237.551 187.717 226.623 190.987 226.492C194.258 226.361 195.733 230.735 201.324 226.558C206.112 222.978 210.352 229.199 219.036 230.554C227.72 231.913 231.238 232.454 229.187 235.944Z" fill="#05D9B2"/>
<path d="M214.823 212.954C216.317 197.03 221.804 174.418 218.387 158.394C214.912 142.103 203.282 136.52 191.721 124.89C179.778 112.869 179.832 124.361 179.832 124.361L178.77 127.801C184.412 132.512 168.016 135.593 173.515 140.451C179.438 145.683 184.076 148.285 189.798 153.714C197.092 160.634 201.015 157.657 200.216 167.823C199.988 170.708 194.852 196.999 193.343 208.062C191.597 220.866 182.805 216.962 206.506 221.04C221.244 223.569 213.893 222.92 214.823 212.954Z" fill="#333333"/>
<path d="M157.105 242.092L156.819 261.885L149.73 262.475L151.34 241.841C151.34 241.841 155.159 240.999 157.105 242.092Z" fill="#F4DBBD"/>
<path d="M185.088 269.163C185.088 269.163 179.998 270.692 170.291 271.198C160.584 271.704 149.761 271.858 147.818 270.48C145.876 269.101 144.837 257.652 148.069 257.707C151.301 257.761 152.471 262.155 158.244 258.351C163.19 255.092 166.966 261.46 175.434 263.286C183.902 265.113 187.331 265.838 185.088 269.163Z" fill="#2AF3CE"/>
<path d="M172.388 250.88C172.195 250.131 171.445 249.474 170.816 248.818C165.036 242.794 168.032 235.466 170.291 229.006C175.654 213.68 175.793 197.401 177.616 181.516C179.392 166.009 183.809 150.861 190.258 136.489C192.601 131.269 195.996 123.156 186.709 123.334C182.311 123.419 178.129 122.608 174.005 121.245C171.835 120.526 174.237 120.206 171.835 120.526C163.646 121.623 158.271 134.894 159.004 139.929C160.468 149.953 159.858 159.255 158.556 169.426C156.715 183.844 156.684 198.559 152.309 212.464C150.166 219.279 147.884 226.052 145.644 232.836C144.335 236.794 139.119 245.096 140.887 249.142C143.316 254.699 158.954 252.772 163.939 253.436C167.685 253.926 173.048 253.424 172.388 250.88Z" fill="#474448"/>
<path d="M188.775 48.2044L186.624 62.9236C182.825 63.97 178.84 65.9625 174.832 65.9586C175.013 63.2287 177.874 60.1049 179.187 57.5294C180.782 54.4056 181.906 51.1699 181.728 47.6638C181.265 38.501 188.775 48.2044 188.775 48.2044Z" fill="#F4DBBD"/>
<path d="M195.447 19.6733C195.44 19.6887 201.629 23.6118 198.347 32.9986C194.837 43.0418 189.775 51.4517 186.528 50.5829C177.546 48.1774 174.874 41.8989 172.164 36.4815C168.839 29.8362 177.909 14.9471 177.909 14.9471L185.516 11.8349L195.447 19.6733Z" fill="#F4DBBD"/>
<path d="M206.923 19.0439C207.826 16.9511 206.815 13.0203 205.263 11.5684C204.664 11.0085 203.88 10.6186 203.062 10.6301C202.448 10.6379 201.822 10.8695 201.227 10.7267C199.436 10.3019 199.44 8.87712 197.795 8.24C196.571 7.76506 195.269 8.73425 193.964 8.91959C192.976 9.0586 191.999 8.73811 191.041 8.47168C188.346 7.72259 185.917 6.29777 183.133 5.76491C180.786 5.317 178.291 5.37492 176.052 6.28619C173.716 7.23607 171.928 9.17444 170.862 11.4951C170.225 12.8813 169.92 14.4567 170.202 15.9471C169.97 14.7231 167.545 15.8313 167.128 16.2754C165.495 18.0168 161.383 23.1137 161.974 25.3301C162.441 27.087 160.989 28.6778 161.402 30.454C161.892 32.57 167.82 33.794 168.881 35.7208C170.102 37.9295 172.793 39.2153 175.241 38.8176C174.669 36.8599 174.106 34.8598 174.148 32.8056C174.195 30.7513 172.113 21.3066 183.045 20.1405C187.389 19.6772 192.25 23.4072 196.521 23.8975C198.548 24.1292 200.617 23.9169 202.59 23.3415C204.116 22.8975 205.73 20.9514 206.676 19.5111C206.772 19.3605 206.853 19.2061 206.923 19.0439Z" fill="#EDC868"/>
<path d="M200.015 18.094C202.703 16.6576 203.483 13.4103 203.757 10.5259C204.054 7.39052 203.996 6.83063 201.174 4.62197C200.085 3.76863 197.389 2.85736 197.386 2.85736C190.559 0.571474 182.84 -1.07344 175.685 0.891961C169.109 2.69905 164.568 7.96199 162.313 13.8196C161.167 16.7966 160.53 19.9976 160.514 23.1639C160.499 26.6391 161.943 30.4965 159.502 33.5546C160.402 33.6203 161.317 33.5353 162.182 33.2998C158.437 33.8442 152.795 34.7709 152.66 39.2307C152.602 41.1846 153.961 42.8874 155.108 44.5207C156.255 46.154 157.267 48.1928 156.471 49.9999C155.467 52.2819 151.981 53.1816 151.533 55.6181C151 58.514 153.923 59.8385 155.104 62.0935C156.591 64.9354 155.166 68.2406 154.826 71.1868C154.521 73.8009 157.101 75.0018 158.784 76.5617C163.665 81.0833 163.603 86.2227 158.263 91.2192C158.155 91.3196 158.197 91.5165 158.275 91.6401C158.356 91.7714 158.529 91.8254 158.688 91.864C165.588 93.5514 174.554 87.3193 176.145 81.1065C176.863 78.307 175.033 75.6891 175.836 72.9978C176.697 70.1056 180.141 69.0206 182.435 67.341C186.655 64.2558 191.169 58.9156 190.547 53.5754C190.169 50.3242 189.076 46.6599 186.678 44.011C184.582 41.6904 178.319 40.4239 178.384 36.9564C178.411 35.4235 179.732 34.2381 180.728 33.0179C183.249 29.925 178.415 27.2298 180.801 25.6158C182.338 24.5771 184.157 23.8474 186.026 23.5346C188.007 23.2025 190.026 22.8898 191.567 21.5846C193.007 20.3645 194.995 17.6075 197.223 17.7928C200.004 18.0245 203.197 17.3758 204.637 15.144" fill="#EDC868"/>
<path d="M192.053 91.4895C191.061 82.6124 195.652 68.4839 190.115 61.2749C189.547 60.5374 188.937 59.7999 188.115 59.3172C177.701 53.2086 170.492 62.6997 167.163 71.0517C164.279 78.2916 164.634 84.9562 164.418 92.5089C164.059 105.24 160.889 117.627 156.842 129.728C155.398 134.045 155.016 139.072 159.097 139.729C164.615 140.613 165.804 134.261 171.071 132.62C175.882 131.122 179.767 132.041 185.022 132.311C187.628 132.446 196.142 130.844 195.625 126.311C194.393 115.572 192.547 106.309 192.486 98.8298C192.466 96.4126 192.327 93.953 192.053 91.4895Z" fill="#E0E0E0"/>
<path d="M177.956 68.2136C177.956 68.2136 174.952 81.3073 171.789 97.266C168.627 113.229 173.318 125.268 173.318 125.268C174.002 127.029 174.704 128.786 175.469 130.489C176.967 133.844 177.461 136.076 176.878 139.709C176.388 142.771 177.423 145.47 179.67 147.779C181.276 149.428 183.292 150.706 184.682 152.537C184.906 152.83 185.277 153.162 185.613 152.992C185.898 152.849 185.887 152.471 185.837 152.17C185.381 149.455 184.925 146.741 184.466 144.026C184.377 143.497 184.288 142.949 184.419 142.428C184.551 141.906 184.964 141.412 185.531 141.323C186.211 141.219 186.825 141.702 187.323 142.146C188.08 142.825 188.605 145.3 190.003 144.362C190.59 141.984 188.231 137.497 186.771 135.558C185.335 133.365 182.585 133.805 181.732 131.465C180.813 128.94 179.898 126.419 179.01 123.886C172.716 98.7487 181.589 88.4275 181.589 88.4275C181.589 88.4275 179.643 86.8019 181.033 74.3106C182.431 61.827 177.956 68.2136 177.956 68.2136Z" fill="#F4DBBD"/>
<path d="M185.006 87.4004C185.006 87.4004 192.219 64.3176 182.095 64.7423C171.97 65.167 168.677 91.8254 168.677 91.8254L185.28 90.8987L185.006 87.4004Z" fill="#F2F2F2"/>
</g>
<defs>
<clipPath id="clip0">
<rect width="412" height="366.437" fill="white"/>
</clipPath>
</defs>
</svg>
