<svg width="180" height="175" viewBox="0 0 180 175" fill="none" xmlns="http://www.w3.org/2000/svg">
<path d="M92.9936 175C140.361 175 178.76 173.504 178.76 171.658C178.76 169.813 140.361 168.317 92.9936 168.317C45.6264 168.317 7.22766 169.813 7.22766 171.658C7.22766 173.504 45.6264 175 92.9936 175Z" fill="#E3E5FC"/>
<path d="M171.586 135.349H8.02555C3.61114 135.349 0 131.738 0 127.324V8.02555C0 3.61114 3.61114 0 8.02555 0H171.586C176 0 179.611 3.61114 179.611 8.02555V127.324C179.611 131.738 176 135.349 171.586 135.349Z" fill="#A7ADFF"/>
<path d="M166.568 124.06H12.2668C7.85235 124.06 4.24121 120.449 4.24121 116.035V13.9124C4.24121 9.49798 7.85235 5.88684 12.2668 5.88684H166.568C170.982 5.88684 174.593 9.49798 174.593 13.9124V116.035C174.595 120.447 170.984 124.06 166.568 124.06Z" fill="#E3E5FC"/>
<path d="M99.293 129.176H86.696C86.3889 129.176 86.139 128.924 86.139 128.619V128.619C86.139 128.312 86.3907 128.062 86.696 128.062H99.293C99.6001 128.062 99.85 128.314 99.85 128.619V128.619C99.85 128.924 99.5983 129.176 99.293 129.176Z" fill="#E3E5FC"/>
<path d="M9.58208 4.54624C10.2741 4.54624 10.8352 3.98521 10.8352 3.29314C10.8352 2.60107 10.2741 2.04004 9.58208 2.04004C8.89001 2.04004 8.32898 2.60107 8.32898 3.29314C8.32898 3.98521 8.89001 4.54624 9.58208 4.54624Z" fill="#E3E5FC"/>
<path d="M14.9783 4.54624C15.6704 4.54624 16.2314 3.98521 16.2314 3.29314C16.2314 2.60107 15.6704 2.04004 14.9783 2.04004C14.2863 2.04004 13.7252 2.60107 13.7252 3.29314C13.7252 3.98521 14.2863 4.54624 14.9783 4.54624Z" fill="white"/>
<path d="M20.4227 4.54624C21.1147 4.54624 21.6758 3.98521 21.6758 3.29314C21.6758 2.60107 21.1147 2.04004 20.4227 2.04004C19.7306 2.04004 19.1696 2.60107 19.1696 3.29314C19.1696 3.98521 19.7306 4.54624 20.4227 4.54624Z" fill="#333333"/>
<path d="M150.865 74.3433H120.321C119.501 74.3433 118.83 73.6722 118.83 72.8528V72.8528C118.83 72.0335 119.501 71.3623 120.321 71.3623H150.865C151.684 71.3623 152.355 72.0335 152.355 72.8528V72.8528C152.353 73.6722 151.684 74.3433 150.865 74.3433Z" fill="#A7ADFF"/>
<path d="M150.865 81.1656H120.321C119.501 81.1656 118.83 80.4944 118.83 79.6751V79.6751C118.83 78.8557 119.501 78.1846 120.321 78.1846H150.865C151.684 78.1846 152.355 78.8557 152.355 79.6751V79.6751C152.353 80.4962 151.684 81.1656 150.865 81.1656Z" fill="#A7ADFF"/>
<path d="M150.865 87.9898H120.321C119.501 87.9898 118.83 87.3186 118.83 86.4993V86.4993C118.83 85.68 119.501 85.0088 120.321 85.0088H150.865C151.684 85.0088 152.355 85.68 152.355 86.4993V86.4993C152.353 87.3186 151.684 87.9898 150.865 87.9898Z" fill="#A7ADFF"/>
<path d="M150.865 95.6817H120.321C119.501 95.6817 118.83 95.0105 118.83 94.1912V94.1912C118.83 93.3719 119.501 92.7007 120.321 92.7007H150.865C151.684 92.7007 152.355 93.3719 152.355 94.1912V94.1912C152.353 95.0123 151.684 95.6817 150.865 95.6817Z" fill="#A7ADFF"/>
<path d="M150.865 102.506H120.321C119.501 102.506 118.83 101.835 118.83 101.015V101.015C118.83 100.196 119.501 99.5249 120.321 99.5249H150.865C151.684 99.5249 152.355 100.196 152.355 101.015V101.015C152.353 101.835 151.684 102.506 150.865 102.506Z" fill="#A7ADFF"/>
<path d="M150.865 109.33H120.321C119.501 109.33 118.83 108.659 118.83 107.84V107.84C118.83 107.02 119.501 106.349 120.321 106.349H150.865C151.684 106.349 152.355 107.02 152.355 107.84V107.84C152.353 108.659 151.684 109.33 150.865 109.33Z" fill="#A7ADFF"/>
<path d="M27.1969 56.707H90.3732C94.7876 56.707 98.3987 53.0959 98.3987 48.6815V25.8508C98.3987 21.4363 94.7876 17.8252 90.3732 17.8252H27.1969C22.7825 17.8252 19.1714 21.4363 19.1714 25.8508V48.6815C19.1696 53.0959 22.7807 56.707 27.1969 56.707Z" fill="white"/>
<path d="M20.8921 109.35V109.35C20.0674 109.35 19.3909 108.675 19.3909 107.848V73.3311C19.3909 72.5064 20.0656 71.8298 20.8921 71.8298V71.8298C21.7168 71.8298 22.3933 72.5046 22.3933 73.3311V107.848C22.3933 108.675 21.7168 109.35 20.8921 109.35Z" fill="#2AF3CE"/>
<path d="M28.0804 109.35V109.35C27.2558 109.35 26.5792 108.675 26.5792 107.848V92.4453C26.5792 91.6206 27.254 90.9441 28.0804 90.9441V90.9441C28.9051 90.9441 29.5817 91.6188 29.5817 92.4453V107.848C29.5817 108.675 28.9051 109.35 28.0804 109.35Z" fill="#2AF3CE"/>
<path d="M35.2689 109.35V109.35C34.4442 109.35 33.7677 108.675 33.7677 107.848V77.7544C33.7677 76.9297 34.4424 76.2532 35.2689 76.2532V76.2532C36.0936 76.2532 36.7701 76.9279 36.7701 77.7544V107.848C36.7684 108.675 36.0936 109.35 35.2689 109.35Z" fill="#2AF3CE"/>
<path d="M42.4554 109.35V109.35C41.6308 109.35 40.9542 108.675 40.9542 107.848V96.79C40.9542 95.9653 41.629 95.2888 42.4554 95.2888V95.2888C43.2801 95.2888 43.9567 95.9636 43.9567 96.79V107.848C43.9567 108.675 43.2819 109.35 42.4554 109.35Z" fill="#2AF3CE"/>
<path d="M49.6438 109.35V109.35C48.8191 109.35 48.1426 108.675 48.1426 107.848V89.2073C48.1426 88.3826 48.8173 87.7061 49.6438 87.7061V87.7061C50.4685 87.7061 51.145 88.3808 51.145 89.2073V107.848C51.145 108.675 50.4703 109.35 49.6438 109.35Z" fill="#2AF3CE"/>
<path d="M56.8322 109.35V109.35C56.0075 109.35 55.3309 108.675 55.3309 107.848V102.325C55.3309 101.501 56.0057 100.824 56.8322 100.824V100.824C57.6568 100.824 58.3334 101.499 58.3334 102.325V107.848C58.3334 108.675 57.6568 109.35 56.8322 109.35Z" fill="#2AF3CE"/>
<path d="M29.4532 44.9276C33.6927 50.7629 41.8593 52.057 47.6928 47.8175L32.3414 26.688C26.5079 30.9257 25.2138 39.0923 29.4532 44.9276Z" fill="#A7ADFF"/>
<path d="M33.7159 25.6884L40.749 35.3687L50.6167 28.2C46.6147 22.9145 39.105 21.7738 33.7159 25.6884Z" fill="#A7ADFF"/>
<path d="M55.2007 27.3737C55.1364 27.2844 55.0614 27.2059 54.9954 27.1184L41.745 36.7434L51.5734 50.2722C58.8993 44.9492 60.5219 34.6977 55.2007 27.3737Z" fill="#2AF3CE"/>
<path d="M66.2948 27.8856V27.8856C66.2948 27.0127 67.0088 26.2969 67.8835 26.2969H89.188C90.0609 26.2969 90.7767 27.0109 90.7767 27.8856V27.8856C90.7767 28.7584 90.0626 29.4743 89.188 29.4743H67.8835C67.0088 29.4743 66.2948 28.7584 66.2948 27.8856Z" fill="#2AF3CE"/>
<path d="M66.2948 35.4935V35.4935C66.2948 34.6206 67.0088 33.9048 67.8835 33.9048H75.1076C75.9804 33.9048 76.6962 34.6188 76.6962 35.4935V35.4935C76.6962 36.3664 75.9822 37.0822 75.1076 37.0822H67.8835C67.0088 37.0822 66.2948 36.3664 66.2948 35.4935Z" fill="#A7ADFF"/>
<path fill-rule="evenodd" clip-rule="evenodd" d="M61.1895 85.4854C61.1895 93.3842 67.6156 99.8103 75.5144 99.8103C83.4132 99.8103 89.8394 93.3842 89.8394 85.4854C89.8394 77.5866 83.4132 71.1604 75.5144 71.1604C67.6156 71.1604 61.1895 77.5866 61.1895 85.4854ZM62.5265 85.4854C62.5265 78.3256 68.3528 72.4992 75.5144 72.4992C82.676 72.4992 88.5006 78.3238 88.5006 85.4854C88.5006 92.647 82.676 98.4733 75.5144 98.4733C68.3528 98.4733 62.5265 92.647 62.5265 85.4854Z" fill="#978CFF"/>
<path fill-rule="evenodd" clip-rule="evenodd" d="M65.8716 85.4853C65.8716 90.803 70.1967 95.1281 75.5144 95.1281C80.832 95.1281 85.1572 90.803 85.1572 85.4853C85.1572 80.1677 80.832 75.8425 75.5144 75.8425C70.1967 75.8425 65.8716 80.1677 65.8716 85.4853ZM67.2086 85.4853C67.2086 80.9067 70.9358 77.1813 75.5144 77.1813C80.0949 77.1813 83.8185 80.9067 83.8185 85.4853C83.8185 90.0658 80.0931 93.7912 75.5144 93.7912C70.934 93.7912 67.2086 90.064 67.2086 85.4853Z" fill="#978CFF"/>
<path fill-rule="evenodd" clip-rule="evenodd" d="M69.9844 85.4854C69.9844 88.5342 72.4656 91.0155 75.5144 91.0155C78.5633 91.0155 81.0445 88.5342 81.0445 85.4854C81.0445 82.4365 78.5651 79.9553 75.5144 79.9553C72.4638 79.9553 69.9844 82.4365 69.9844 85.4854ZM71.3231 85.4854C71.3231 83.1738 73.2028 81.2941 75.5144 81.2941C77.826 81.2941 79.7057 83.1738 79.7057 85.4854C79.7057 87.797 77.826 89.6767 75.5144 89.6767C73.2028 89.6767 71.3231 87.797 71.3231 85.4854Z" fill="#978CFF"/>
<path d="M74.7915 86.6867L74.945 83.2827C74.9629 82.9132 75.2717 82.6293 75.643 82.6436C76.0125 82.6597 76.2981 82.9738 76.282 83.3416L76.2392 84.2841L98.4201 71.2532C98.7396 71.0658 99.1484 71.1729 99.3358 71.4907C99.5233 71.8084 99.4162 72.219 99.0984 72.4064L74.7915 86.6867Z" fill="#2AF3CE"/>
<path d="M77.7993 86.8171H75.5145C75.145 86.8171 74.8451 86.5172 74.8451 86.1477C74.8451 85.7782 75.145 85.4783 75.5145 85.4783H77.7993C78.1688 85.4783 78.4687 85.7782 78.4687 86.1477C78.4687 86.5172 78.1688 86.8171 77.7993 86.8171Z" fill="#2AF3CE"/>
<path d="M116.137 56.9336C116.028 56.9336 115.917 56.9068 115.815 56.8515C115.49 56.673 115.373 56.2678 115.551 55.9429L121.042 45.9449L125.428 50.1415L128.352 45.504L130.917 47.057L137.052 31.8341L141.327 39.4188L145.351 33.4603L148.744 37.623L155.608 24.9831C155.825 24.5815 156.113 24.1424 156.416 23.6765C156.666 23.2927 156.932 22.8857 157.164 22.4894C156.905 22.6019 156.641 22.725 156.389 22.8429C155.923 23.0606 155.484 23.2659 155.088 23.3998C154.74 23.5176 154.36 23.3284 154.24 22.9785C154.122 22.6287 154.312 22.2484 154.661 22.1306C154.986 22.0217 155.392 21.8325 155.822 21.6308C156.675 21.2327 157.555 20.8204 158.335 20.7597L159.287 20.6865L159.031 21.6058C158.783 22.4966 158.149 23.4676 157.535 24.4083C157.246 24.851 156.973 25.2687 156.782 25.6222L148.967 40.015L145.451 35.7005L141.224 41.9607L137.25 34.9133L131.567 49.0134L128.78 47.3265L125.685 52.2372L121.376 48.1137L116.724 56.5855C116.603 56.8087 116.374 56.9336 116.137 56.9336Z" fill="#474448"/>
<path d="M158.778 25.4383C158.408 25.4383 158.108 25.1385 158.108 24.769V21.4238C158.108 21.0543 158.408 20.7544 158.778 20.7544C159.147 20.7544 159.447 21.0543 159.447 21.4238V24.769C159.447 25.1385 159.147 25.4383 158.778 25.4383Z" fill="#474448"/>
<path d="M115.469 60.834V60.834C115.101 60.834 114.8 60.5323 114.8 60.1646V17.4699C114.8 17.1022 115.101 16.8005 115.469 16.8005V16.8005C115.837 16.8005 116.138 17.1022 116.138 17.4699V60.1664C116.138 60.5341 115.837 60.834 115.469 60.834Z" fill="#A7ADFF"/>
<path d="M111.401 56.9338V56.9338C111.401 56.5661 111.703 56.2644 112.07 56.2644H154.767C155.135 56.2644 155.436 56.5661 155.436 56.9338V56.9338C155.436 57.3015 155.135 57.6032 154.767 57.6032H112.069C111.701 57.6014 111.401 57.3015 111.401 56.9338Z" fill="#A7ADFF"/>
<path d="M140.245 27.3128H127.816C126.59 27.3128 125.587 26.3096 125.587 25.0833V25.0833C125.587 23.857 126.59 22.8538 127.816 22.8538H140.245C141.472 22.8538 142.475 23.857 142.475 25.0833V25.0833C142.475 26.3096 141.472 27.3128 140.245 27.3128Z" fill="#2AF3CE"/>
<rect x="148.689" y="37.0823" width="0.501597" height="0.669391" fill="#333333"/>
<path fill-rule="evenodd" clip-rule="evenodd" d="M148.689 28.2694H149.19V27.011H148.689V28.2694ZM149.19 30.7864H148.689V29.528H149.19V30.7864ZM148.689 33.3051H149.19V32.0466H148.689V33.3051ZM148.689 35.8238H149.19V34.5653H148.689V35.8238Z" fill="#333333"/>
<path d="M149.19 25.7508H148.689V25.3331H148.271V24.8315H149.19V25.7508Z" fill="#333333"/>
<rect x="144.853" y="24.8315" width="1.71007" height="0.501597" fill="#333333"/>
<rect x="142.475" y="24.8315" width="0.669391" height="0.501597" fill="#333333"/>
<path d="M149.249 40.738H148.632C147.796 40.738 147.113 40.0544 147.113 39.219V38.6013C147.113 37.7659 147.796 37.0823 148.632 37.0823H149.249C150.085 37.0823 150.768 37.7659 150.768 38.6013V39.219C150.768 40.0544 150.085 40.738 149.249 40.738Z" fill="#2AF3CE"/>
<path d="M115.691 70.533C115.691 70.533 117.671 79.9455 117.503 83.7923C117.335 87.639 113.992 93.3779 113.992 93.3779L111.832 70.5347H115.691V70.533Z" fill="#9E7251"/>
<path d="M103.876 53.2735L104.312 61.3811L110.657 63.8284C110.657 63.8284 106.841 58.2448 107.489 53.2735C108.133 48.3021 103.876 53.2735 103.876 53.2735Z" fill="#D4A79A"/>
<path d="M98.2049 36.6851C98.2049 36.6851 96.8233 38.5165 98.171 44.1305C99.5187 49.7462 101.707 54.5409 103.399 54.2017C108.078 53.2663 109.72 49.9604 111.343 47.1222C113.331 43.6414 109.383 35.1517 109.383 35.1517L105.652 33.1382L98.2049 36.6851Z" fill="#9E7251"/>
<path d="M93.2228 35.1731C92.814 33.8558 93.5316 32.1707 94.4902 31.3567C94.8597 31.0425 95.3256 30.8426 95.7915 30.889C96.1414 30.9229 96.4841 31.0925 96.8322 31.0354C97.8746 30.8623 97.9996 29.3253 98.9671 29.0129C99.6882 28.7809 100.381 29.4342 101.116 29.6074C101.671 29.7377 102.246 29.5877 102.805 29.4717C104.378 29.1415 105.836 28.3864 107.448 28.1918C108.808 28.0276 110.227 28.1811 111.457 28.8416C112.742 29.5306 113.663 30.798 114.154 32.2617C114.447 33.1364 114.542 34.111 114.306 35.0071C114.499 34.2699 115.825 35.0625 116.041 35.3516C116.884 36.4905 117.028 38.9592 116.58 40.2837C116.225 41.3333 115.641 42.2615 115.316 43.3254C114.931 44.5946 114.77 46.003 114.067 47.1276C113.262 48.4182 108.926 52.6541 107.55 52.2971C107.974 51.1296 105.904 50.0693 105.981 48.8144C106.057 47.5595 106.841 41.0281 100.668 39.8053C98.2138 39.3198 101.363 38.5237 98.9046 38.6218C97.7372 38.6682 96.568 38.4415 95.4737 37.9971C94.6276 37.6543 93.8047 36.3923 93.3388 35.4694C93.2924 35.3731 93.2549 35.2749 93.2228 35.1731Z" fill="#333333"/>
<path d="M105.595 43.6377C105.595 43.6377 108.16 41.4403 107.973 44.4124C107.785 47.3845 105.384 48.2467 105.384 48.2467L105.595 43.6377Z" fill="#9E7251"/>
<path d="M112.453 155.903L110.875 166.606L114.399 167.502L115.383 156.236C115.381 156.236 113.528 155.471 112.453 155.903Z" fill="#D4A79A"/>
<path d="M97.0627 171.748C97.0627 171.748 99.701 172.448 104.667 172.468C109.633 172.488 115.158 172.284 116.107 171.481C117.059 170.677 117.266 164.399 115.618 164.516C113.971 164.632 113.498 167.059 110.447 165.137C107.832 163.489 106.086 167.063 101.82 168.284C97.5536 169.505 95.8256 169.994 97.0627 171.748Z" fill="#05D9B2"/>
<path d="M103.673 159.203C103.808 158.771 104.221 158.423 104.574 158.07C107.812 154.826 106.65 150.31 105.817 146.349C103.842 136.953 104.572 127.292 104.43 117.765C104.29 108.467 102.787 99.2312 100.215 90.3399C99.2815 87.109 97.9516 82.1055 102.67 82.7392C104.904 83.0391 107.071 82.7981 109.238 82.2233C110.379 81.9216 109.171 81.5932 110.379 81.9216C114.494 83.0391 116.846 94.8936 116.223 97.8371C114.985 103.697 114.565 105.573 114.726 111.677C114.954 120.332 114.244 129.063 115.782 137.558C116.538 141.721 117.364 145.869 118.171 150.019C118.642 152.44 120.888 157.663 119.788 159.96C118.278 163.116 110.417 161.083 107.846 161.194C105.917 161.279 103.21 160.676 103.673 159.203Z" fill="#333333"/>
<path d="M104.471 156.272L102.148 166.838L105.6 167.977L107.369 156.808C107.369 156.81 105.574 155.917 104.471 156.272Z" fill="#9E7251"/>
<path d="M88.0106 171.002C88.0106 171.002 90.5935 171.884 95.5453 172.252C100.497 172.62 106.023 172.803 107.027 172.068C108.032 171.333 108.678 165.087 107.027 165.087C105.375 165.087 104.735 167.475 101.823 165.344C99.3295 163.518 97.3374 166.961 92.9962 167.879C88.6568 168.796 86.8985 169.164 88.0106 171.002Z" fill="#2AF3CE"/>
<path d="M95.4811 159.232C95.6471 158.844 96.0826 158.555 96.4611 158.254C99.9187 155.498 99.0744 151.294 98.521 147.62C97.209 138.906 98.6138 130.121 99.1386 121.405C99.6492 112.897 98.7977 104.36 96.8538 96.0663C96.1469 93.0532 95.1723 88.3942 99.833 89.276C102.041 89.6937 104.221 89.6116 106.422 89.226C107.58 89.0225 106.398 88.6459 107.58 89.0225C111.605 90.3078 113.171 94.6008 112.344 97.2498C110.699 102.528 110.101 110.909 109.835 116.498C109.456 124.424 108.137 132.358 109.078 140.223C109.538 144.077 110.074 147.92 110.588 151.767C110.888 154.011 112.764 158.927 111.505 160.958C109.777 163.746 102.079 161.383 99.5064 161.32C97.5749 161.272 94.9188 160.547 95.4811 159.232Z" fill="#474448"/>
<path d="M90.9897 68.7978C89.3225 70.0581 87.5482 71.1737 85.6917 72.1323C84.2476 72.8767 80.3313 75.3882 78.814 73.8513C78.3713 73.4015 78.1785 72.7678 78.0196 72.1573C77.0789 68.5533 75.7133 65.0796 74.3781 61.6077C73.1839 58.5071 71.7506 55.2369 71.8612 51.8453C71.9755 48.3823 71.7684 43.7108 71.4382 42.8629C71.1079 42.0151 68.4 37.0241 68.35 38.5771C68.3001 40.13 70.9098 44.3999 69.7192 44.241C68.5285 44.0821 65.9849 45.0746 66.2848 46.8793C66.5846 48.6822 68.4893 52.5718 68.4893 52.5718C69.3229 56.0758 70.2011 59.5727 71.1133 63.0571C71.7952 65.6633 72.4949 68.2695 73.275 70.8489C74.0336 73.3568 74.7369 76.079 76.9432 77.7427C77.2306 77.9605 77.5359 78.1533 77.8608 78.3086C80.4741 79.5581 83.5461 78.2496 86.088 76.8609C91.5413 73.8816 96.7108 70.4437 101.92 67.0646C100.9 66.0632 99.881 65.0635 98.8636 64.0621C98.619 63.8229 98.3513 63.5694 98.0139 63.5195C97.6194 63.4588 97.2428 63.6873 96.9161 63.9175C95.2899 65.0582 93.8672 66.4559 92.341 67.7286C91.8983 68.0945 91.4467 68.4515 90.9897 68.7978Z" fill="#9E7251"/>
<path d="M108.692 71.5738C108.692 71.5738 103.332 62.5789 107.423 60.8974C111.514 59.2159 115.691 70.5349 115.691 70.5349L108.956 73.191L108.692 71.5738Z" fill="#F2F2F2"/>
<path d="M96.302 91.079C96.302 90.7077 95.6826 81.047 97.0446 74.8547C98.4065 68.6624 97.0446 63.3358 101.752 59.6211C106.459 55.9065 110.297 60.86 111.536 63.4608C112.774 66.0616 113.813 74.3192 113.988 78.6943C114.167 83.1659 116.518 92.6141 116.612 92.814C118.479 96.6965 117.251 96.4109 117.089 96.7804C116.08 99.0795 109.52 99.5258 107.944 98.7118C104.488 96.9268 103.755 95.9557 100.029 96.5287C98.419 96.7768 96.6394 96.2806 96.161 95.7861C95.6826 95.2917 96.302 91.079 96.302 91.079Z" fill="#E0E0E0"/>
<path d="M93.6762 64.5872C93.6762 64.5872 102.371 55.3174 105.704 59.5248C109.038 63.7321 97.2356 72.4021 97.2356 72.4021L91.8787 65.4368L93.6762 64.5872Z" fill="#F2F2F2"/>
</svg>
