<svg width="256" height="175" viewBox="0 0 256 175" fill="none" xmlns="http://www.w3.org/2000/svg">
<path d="M247.933 133.388H86.7424C82.392 133.388 78.8331 129.83 78.8331 125.479V7.9093C78.8331 3.55883 82.392 0 86.7424 0H247.933C252.284 0 255.842 3.55883 255.842 7.9093V125.479C255.844 129.828 252.284 133.388 247.933 133.388Z" fill="#8F8DFF"/>
<path d="M242.99 122.262H90.9239C86.5735 122.262 83.0146 118.703 83.0146 114.352V13.7093C83.0146 9.35888 86.5735 5.80005 90.9239 5.80005H242.99C247.34 5.80005 250.899 9.35888 250.899 13.7093V114.352C250.899 118.703 247.34 122.262 242.99 122.262Z" fill="#E3E5FC"/>
<path d="M176.688 127.304H164.273C163.971 127.304 163.724 127.055 163.724 126.755V126.755C163.724 126.452 163.972 126.206 164.273 126.206H176.688C176.99 126.206 177.237 126.454 177.237 126.755V126.755C177.237 127.057 176.99 127.304 176.688 127.304Z" fill="#E3E5FC"/>
<path d="M88.2782 4.48064C88.9602 4.48064 89.5131 3.92773 89.5131 3.24569C89.5131 2.56365 88.9602 2.01074 88.2782 2.01074C87.5961 2.01074 87.0432 2.56365 87.0432 3.24569C87.0432 3.92773 87.5961 4.48064 88.2782 4.48064Z" fill="#E3E5FC"/>
<path d="M93.5944 4.48064C94.2765 4.48064 94.8294 3.92773 94.8294 3.24569C94.8294 2.56365 94.2765 2.01074 93.5944 2.01074C92.9124 2.01074 92.3595 2.56365 92.3595 3.24569C92.3595 3.92773 92.9124 4.48064 93.5944 4.48064Z" fill="white"/>
<path d="M98.9599 4.48064C99.642 4.48064 100.195 3.92773 100.195 3.24569C100.195 2.56365 99.642 2.01074 98.9599 2.01074C98.2779 2.01074 97.725 2.56365 97.725 3.24569C97.725 3.92773 98.2779 4.48064 98.9599 4.48064Z" fill="#333333"/>
<path d="M129.295 71.7765H99.1939C98.3864 71.7765 97.725 71.115 97.725 70.3075V70.3075C97.725 69.5001 98.3864 68.8386 99.1939 68.8386H129.295C130.103 68.8386 130.764 69.5001 130.764 70.3075V70.3075C130.764 71.115 130.103 71.7765 129.295 71.7765Z" fill="white"/>
<path d="M129.295 78.5018H99.1939C98.3864 78.5018 97.725 77.8404 97.725 77.0329V77.0329C97.725 76.2254 98.3864 75.564 99.1939 75.564H129.295C130.103 75.564 130.764 76.2254 130.764 77.0329V77.0329C130.764 77.8404 130.103 78.5018 129.295 78.5018Z" fill="white"/>
<path d="M129.295 85.2257H99.1939C98.3864 85.2257 97.725 84.5642 97.725 83.7568V83.7568C97.725 82.9493 98.3864 82.2878 99.1939 82.2878H129.295C130.103 82.2878 130.764 82.9493 130.764 83.7568V83.7568C130.764 84.566 130.103 85.2257 129.295 85.2257Z" fill="white"/>
<path d="M129.295 92.8075H99.1939C98.3864 92.8075 97.725 92.146 97.725 91.3385V91.3385C97.725 90.5311 98.3864 89.8696 99.1939 89.8696H129.295C130.103 89.8696 130.764 90.5311 130.764 91.3385V91.3385C130.764 92.146 130.103 92.8075 129.295 92.8075Z" fill="white"/>
<path d="M129.295 99.5311H99.1939C98.3864 99.5311 97.725 98.8696 97.725 98.0622V98.0622C97.725 97.2547 98.3864 96.5933 99.1939 96.5933H129.295C130.103 96.5933 130.764 97.2547 130.764 98.0622V98.0622C130.764 98.8714 130.103 99.5311 129.295 99.5311Z" fill="white"/>
<path d="M129.295 106.256H99.1939C98.3864 106.256 97.725 105.595 97.725 104.788V104.788C97.725 103.98 98.3864 103.319 99.1939 103.319H129.295C130.103 103.319 130.764 103.98 130.764 104.788V104.788C130.764 105.595 130.103 106.256 129.295 106.256Z" fill="white"/>
<path d="M174.339 71.7765H144.238C143.43 71.7765 142.769 71.115 142.769 70.3075V70.3075C142.769 69.5001 143.43 68.8386 144.238 68.8386H174.339C175.147 68.8386 175.808 69.5001 175.808 70.3075V70.3075C175.808 71.115 175.147 71.7765 174.339 71.7765Z" fill="white"/>
<path d="M174.339 78.5018H144.238C143.43 78.5018 142.769 77.8404 142.769 77.0329V77.0329C142.769 76.2254 143.43 75.564 144.238 75.564H174.339C175.147 75.564 175.808 76.2254 175.808 77.0329V77.0329C175.808 77.8404 175.147 78.5018 174.339 78.5018Z" fill="white"/>
<path d="M174.339 85.2257H144.238C143.43 85.2257 142.769 84.5642 142.769 83.7568V83.7568C142.769 82.9493 143.43 82.2878 144.238 82.2878H174.339C175.147 82.2878 175.808 82.9493 175.808 83.7568V83.7568C175.808 84.566 175.147 85.2257 174.339 85.2257Z" fill="white"/>
<path d="M174.339 92.8075H144.238C143.43 92.8075 142.769 92.146 142.769 91.3385V91.3385C142.769 90.5311 143.43 89.8696 144.238 89.8696H174.339C175.147 89.8696 175.808 90.5311 175.808 91.3385V91.3385C175.808 92.146 175.147 92.8075 174.339 92.8075Z" fill="white"/>
<path d="M174.339 99.5311H144.238C143.43 99.5311 142.769 98.8696 142.769 98.0622V98.0622C142.769 97.2547 143.43 96.5933 144.238 96.5933H174.339C175.147 96.5933 175.808 97.2547 175.808 98.0622V98.0622C175.808 98.8714 175.147 99.5311 174.339 99.5311Z" fill="white"/>
<path d="M174.339 106.256H144.238C143.43 106.256 142.769 105.595 142.769 104.788V104.788C142.769 103.98 143.43 103.319 144.238 103.319H174.339C175.147 103.319 175.808 103.98 175.808 104.788V104.788C175.808 105.595 175.147 106.256 174.339 106.256Z" fill="white"/>
<path d="M214.716 42.5319C211.25 41.6646 210.383 31.2678 206.918 31.2678C199.304 31.9592 196.665 42.0481 192.378 49.6126C192.939 52.7299 195.675 55.1171 198.948 55.1171H229.456C233.131 55.1171 236.138 52.1107 236.138 48.4357V26.562C235.079 26.6465 233.997 27.0264 232.913 27.8005C226.847 33.0006 222.515 44.2647 214.716 42.5319Z" fill="#8F8DFF"/>
<path d="M229.511 17.5637H199.003C195.328 17.5637 192.322 20.5702 192.322 24.2451V48.4357C192.322 48.8368 192.364 49.2291 192.432 49.6126C196.718 42.0463 199.358 31.9591 206.972 31.2678C210.438 31.2678 211.305 41.6663 214.771 42.5318C222.569 44.2646 226.902 33.0006 232.968 27.8004C234.051 27.0264 235.133 26.6446 236.192 26.562V24.2451C236.192 20.5702 233.186 17.5637 229.511 17.5637Z" fill="white"/>
<path d="M218.59 33.1096C220.714 33.1096 222.435 31.3879 222.435 29.264C222.435 27.1402 220.714 25.4185 218.59 25.4185C216.466 25.4185 214.744 27.1402 214.744 29.264C214.744 31.3879 216.466 33.1096 218.59 33.1096Z" fill="#8F8DFF"/>
<path d="M105.636 55.886H167.897C172.248 55.886 175.807 52.3271 175.807 47.9767V25.4767C175.807 21.1262 172.248 17.5674 167.897 17.5674H105.636C101.286 17.5674 97.7268 21.1262 97.7268 25.4767V47.9767C97.725 52.3254 101.286 55.886 105.636 55.886Z" fill="white"/>
<path d="M200.233 84.6609H228.227C232.577 84.6609 236.136 81.102 236.136 76.7516V76.7516C236.136 72.4011 232.577 68.8423 228.227 68.8423H200.233C195.882 68.8423 192.323 72.4011 192.323 76.7516V76.7516C192.323 81.1003 195.882 84.6609 200.233 84.6609Z" fill="white"/>
<path d="M200.233 104.504H228.227C232.577 104.504 236.136 100.946 236.136 96.5951V96.5951C236.136 92.2446 232.577 88.6858 228.227 88.6858H200.233C195.882 88.6858 192.323 92.2446 192.323 96.5951V96.5951C192.323 100.946 195.882 104.504 200.233 104.504Z" fill="white"/>
<path d="M170.481 173.651C202.636 173.651 228.702 171.873 228.702 169.68C228.702 167.488 202.636 165.71 170.481 165.71C138.327 165.71 112.261 167.488 112.261 169.68C112.261 171.873 138.327 173.651 170.481 173.651Z" fill="#E3E5FC"/>
<path d="M102.656 158.788H72.9926C71.3301 158.788 69.972 157.428 69.972 155.767V154.629C69.972 152.966 71.3319 151.608 72.9926 151.608H102.656C104.318 151.608 105.676 152.968 105.676 154.629V155.767C105.676 157.428 104.317 158.788 102.656 158.788Z" fill="#8F8DFF"/>
<path d="M102.656 166.593H72.9926C71.3301 166.593 69.972 165.233 69.972 163.573V162.435C69.972 160.772 71.3319 159.414 72.9926 159.414H102.656C104.318 159.414 105.676 160.774 105.676 162.435V163.573C105.676 165.235 104.317 166.593 102.656 166.593Z" fill="#8F8DFF"/>
<path d="M102.656 174.478H72.9926C71.3301 174.478 69.972 173.118 69.972 171.457V170.319C69.972 168.657 71.3319 167.299 72.9926 167.299H102.656C104.318 167.299 105.676 168.658 105.676 170.319V171.457C105.676 173.118 104.317 174.478 102.656 174.478Z" fill="#8F8DFF"/>
<path d="M72.8836 155.964C73.3383 155.964 73.7069 155.595 73.7069 155.141C73.7069 154.686 73.3383 154.317 72.8836 154.317C72.4289 154.317 72.0603 154.686 72.0603 155.141C72.0603 155.595 72.4289 155.964 72.8836 155.964Z" fill="white"/>
<path d="M102.545 155.964C103 155.964 103.369 155.595 103.369 155.141C103.369 154.686 103 154.317 102.545 154.317C102.091 154.317 101.722 154.686 101.722 155.141C101.722 155.595 102.091 155.964 102.545 155.964Z" fill="white"/>
<path d="M73.0489 163.49C73.5036 163.49 73.8722 163.121 73.8722 162.667C73.8722 162.212 73.5036 161.843 73.0489 161.843C72.5942 161.843 72.2256 162.212 72.2256 162.667C72.2256 163.121 72.5942 163.49 73.0489 163.49Z" fill="white"/>
<path d="M102.711 163.49C103.165 163.49 103.534 163.121 103.534 162.667C103.534 162.212 103.165 161.843 102.711 161.843C102.256 161.843 101.887 162.212 101.887 162.667C101.887 163.121 102.256 163.49 102.711 163.49Z" fill="white"/>
<path d="M73.0489 171.667C73.5036 171.667 73.8722 171.298 73.8722 170.843C73.8722 170.389 73.5036 170.02 73.0489 170.02C72.5942 170.02 72.2256 170.389 72.2256 170.843C72.2256 171.298 72.5942 171.667 73.0489 171.667Z" fill="white"/>
<path d="M102.711 171.667C103.165 171.667 103.534 171.298 103.534 170.843C103.534 170.389 103.165 170.02 102.711 170.02C102.256 170.02 101.887 170.389 101.887 170.843C101.887 171.298 102.256 171.667 102.711 171.667Z" fill="white"/>
<path d="M123.895 26.1995C123.997 26.1291 124.097 26.0588 124.199 25.9902C127.401 23.814 131.232 22.0109 135.03 22.755C141.726 24.0656 144.803 31.463 149.074 35.9208C152.138 39.119 156.883 41.515 161.474 41.04C165.322 40.6424 165.997 36.4767 165.075 33.34C164.734 32.1825 164.206 31.0742 163.249 30.3037C162.368 29.593 160.192 28.6131 159.047 29.2359C161.021 28.1645 163.587 28.6975 165.348 30.0908C171.303 34.8037 169.801 44.8838 163.418 48.4268C158.475 51.1694 152.439 48.7558 148.541 45.2831C144.136 41.3584 142.769 35.2699 138.668 31.1059C137.571 29.9923 136.337 29.0142 134.675 29.1532C131.384 29.4294 130.844 32.9178 128.634 34.6577C128.064 35.1063 127.313 35.3824 126.607 35.2153C126.088 35.0922 125.654 34.7509 125.197 34.4747C123.119 33.2134 117.205 33.435 120.207 29.5191C121.221 28.1997 122.53 27.1477 123.895 26.1995Z" fill="#2AF3CE"/>
<path d="M88.3398 62.8629C86.7935 64.5852 84.7933 66.6469 83.8926 68.8512C83.8204 69.0289 83.7589 69.2382 83.8468 69.4088C85.0079 71.643 102.317 55.4321 104.155 53.7486C108.023 50.2038 111.626 47.4841 114.979 43.4169C115.623 42.6358 116.283 41.7931 116.445 40.7728C116.54 40.1395 113.584 41.4554 113.011 41.7474C108.621 43.9781 103.469 47.8922 99.8836 51.2083C95.8814 54.9114 91.9971 58.7904 88.3398 62.8629Z" fill="#333333"/>
<path d="M122.216 34.1529C122.116 33.3244 121.915 32.5169 121.599 31.7569C120.848 29.9502 119.479 28.228 117.466 27.8357C120.732 29.8922 117.604 33.8996 115.253 35.5233C114.673 35.9244 114.04 36.2692 113.345 36.5507C111.584 37.2632 109.248 37.8138 108.799 39.9635C114.564 40.1166 118.861 37.7469 122.216 34.1529Z" fill="#2AF3CE"/>
<path d="M108.799 39.962C108.795 39.9813 108.788 39.9989 108.785 40.0183C108.13 43.4627 110.354 46.9266 114.15 46.295C119.437 45.4137 122.848 39.3445 122.216 34.1514C118.861 37.7471 114.564 40.1168 108.799 39.962Z" fill="#8F8DFF"/>
<path d="M19.1335 162.482C18.0903 161.321 17.0664 160.155 16.7498 158.636C16.5862 157.85 16.8588 156.773 17.6593 156.728C18.0621 156.705 18.4157 156.97 18.7728 157.159C20.1468 157.887 20.1556 156.249 19.7773 155.382C19.1124 153.853 18.0956 152.328 18.3207 150.676C18.3348 150.572 18.3577 150.463 18.4298 150.386C18.5371 150.271 18.7165 150.271 18.8714 150.291C19.9286 150.43 21.0176 151.804 22.1065 151.355C24.7664 150.261 22.4654 144.151 22.2842 142.265C22.249 141.905 22.2191 141.52 22.3932 141.203C22.731 140.587 23.6546 140.575 24.2597 140.928C25.1886 141.472 25.7163 142.528 26.7296 142.957C27.5283 143.295 28.4378 142.908 29.0254 142.338C30.7934 140.624 31.205 137.825 32.5983 135.837C33.7382 134.21 36.9083 131.735 38.6833 133.937C39.496 134.945 39.0105 136.416 38.678 137.667C38.3684 138.826 38.1151 140.19 38.2329 141.388C38.3209 142.265 38.6956 143.156 39.4151 143.666C40.8137 144.656 43.4419 144.688 41.9958 147.045C41.5525 147.766 40.8647 148.301 40.3352 148.963C39.8057 149.624 39.4362 150.537 39.7793 151.311C40.4038 152.724 44.5924 153.244 42.988 155.463C42.5869 156.019 41.9483 156.342 41.3555 156.685C38.488 158.343 41.0617 159.797 40.5076 162.076C40.3088 162.895 39.6878 163.562 38.97 164.002C37.816 164.709 36.4157 164.978 35.1808 165.517C32.6722 166.613 30.4292 168.243 28.3323 169.985C26.7947 171.262 24.3829 174.114 22.1153 172.736C20.7167 171.887 21.5893 169.501 21.7177 168.259C21.9693 165.844 20.671 164.192 19.1335 162.482Z" fill="#2AF3CE"/>
<path d="M23.1144 174.511C23.0757 174.511 23.037 174.504 22.9983 174.49C22.8276 174.427 22.7414 174.237 22.8065 174.066L33.3352 146.071C33.3986 145.9 33.5903 145.814 33.7592 145.879C33.9298 145.942 34.016 146.132 33.951 146.303L23.4222 174.299C23.373 174.429 23.2463 174.511 23.1144 174.511Z" fill="white"/>
<path d="M30.5698 155.157C30.4625 155.157 30.3587 155.106 30.2954 155.011C30.1951 154.86 30.2356 154.656 30.3869 154.554L35.5096 151.139C35.6609 151.037 35.8667 151.079 35.967 151.231C36.0673 151.382 36.0268 151.586 35.8755 151.688L30.7528 155.102C30.6947 155.138 30.6314 155.157 30.5698 155.157Z" fill="white"/>
<path d="M26.8562 165.346C26.7489 165.346 26.6451 165.295 26.5818 165.2C26.4815 165.049 26.5219 164.845 26.6732 164.743L31.796 161.328C31.9473 161.226 32.1513 161.268 32.2534 161.42C32.3554 161.571 32.3132 161.775 32.1619 161.877L27.0391 165.292C26.9828 165.329 26.9195 165.346 26.8562 165.346Z" fill="white"/>
<path d="M28.0824 160.34C27.9733 160.34 27.8678 160.287 27.8044 160.188L24.5447 155.101C24.4461 154.948 24.4901 154.744 24.6449 154.645C24.798 154.547 25.002 154.592 25.1006 154.745L28.3603 159.833C28.4588 159.986 28.4149 160.19 28.2601 160.289C28.2038 160.322 28.144 160.34 28.0824 160.34Z" fill="white"/>
<path d="M16.4084 173.12C11.9875 173.621 7.71095 173.127 5.94473 168.558C5.30966 166.914 4.37905 166.266 2.72542 165.8C1.92147 165.573 1.07882 165.313 0.507087 164.702C-0.0628888 164.092 -0.222975 163.015 0.396259 162.454C0.89059 162.005 1.64176 162.049 2.30498 162.118C3.40447 162.234 4.50572 162.349 5.60521 162.465C5.76177 162.48 5.92714 162.496 6.06787 162.428C6.53582 162.201 6.24203 161.49 5.89547 161.103C4.60071 159.655 3.26725 158.241 1.8986 156.865C1.39196 156.357 0.862443 155.822 0.654859 155.134C0.447275 154.446 0.691802 153.563 1.36557 153.313C2.2997 152.965 3.39391 153.978 4.27526 153.514C4.90681 153.181 4.98421 152.3 4.81885 151.607C4.65349 150.914 4.32804 150.221 4.45294 149.519C4.57257 148.849 5.13726 148.282 5.80751 148.162C6.476 148.041 7.20431 148.375 7.54911 148.961C7.92909 149.605 7.90446 150.525 8.52897 150.937C9.05321 151.281 9.7692 151.063 10.2899 150.715C10.8124 150.367 11.2663 149.892 11.8609 149.689C12.8689 149.345 14.0986 150.015 14.3572 151.048C14.614 152.077 14.0212 153.262 14.5542 154.181C15.0503 155.036 16.25 155.152 17.2194 154.956C18.1887 154.761 19.1633 154.358 20.1343 154.55C20.4686 154.615 20.8186 154.781 20.9541 155.092C21.1019 155.433 20.9488 155.827 20.7659 156.151C20.2117 157.124 19.3708 157.912 18.8431 158.899C18.3153 159.886 18.1904 161.246 19.0014 162.016C19.4271 162.422 20.0217 162.581 20.56 162.822C21.0966 163.063 21.6402 163.467 21.7158 164.051C21.8443 165.038 20.6638 165.608 20.0552 166.395C19.2635 167.415 19.4588 168.849 19.4289 170.14C19.3427 173.815 15.7487 173.736 13.0167 173.064" fill="#978CFF"/>
<path d="M17.0257 173.866C16.892 173.866 16.7671 173.785 16.7179 173.653L10.6188 157.44C10.5537 157.27 10.6399 157.08 10.8105 157.016C10.9794 156.953 11.1712 157.039 11.2345 157.208L17.3318 173.419C17.3969 173.59 17.3107 173.78 17.1401 173.843C17.1031 173.859 17.0627 173.866 17.0257 173.866Z" fill="white"/>
<path d="M12.7071 162.657C12.6437 162.657 12.5804 162.639 12.5241 162.602L9.55812 160.625C9.40683 160.524 9.36637 160.319 9.46664 160.167C9.56691 160.016 9.77098 159.974 9.92403 160.076L12.89 162.053C13.0413 162.153 13.0818 162.359 12.9815 162.511C12.9182 162.606 12.8144 162.657 12.7071 162.657Z" fill="white"/>
<path d="M14.8568 168.558C14.7935 168.558 14.7302 168.541 14.6739 168.504L11.7079 166.527C11.5566 166.426 11.5161 166.22 11.6164 166.069C11.7167 165.918 11.9208 165.876 12.0738 165.978L15.0398 167.955C15.1911 168.055 15.2315 168.261 15.1313 168.412C15.0679 168.506 14.9642 168.558 14.8568 168.558Z" fill="white"/>
<path d="M14.1476 165.66C14.086 165.66 14.0245 165.642 13.9699 165.607C13.8169 165.508 13.7711 165.304 13.8697 165.151L15.7573 162.205C15.854 162.052 16.0581 162.006 16.2129 162.104C16.3659 162.203 16.4117 162.407 16.3132 162.56L14.4256 165.507C14.3622 165.605 14.2567 165.66 14.1476 165.66Z" fill="white"/>
<path d="M57.5258 158.339L58.6464 168.942L55.1403 169.681L54.6284 158.548C54.6284 158.548 56.4844 157.871 57.5258 158.339Z" fill="#EAC2AB"/>
<path d="M72.0391 174.564C72.0391 174.564 69.4126 175.146 64.5221 174.965C59.6316 174.784 54.1992 174.36 53.2967 173.531C52.3925 172.701 52.4435 166.512 54.0602 166.693C55.6769 166.873 56.0446 169.283 59.1284 167.513C61.7707 165.997 63.3452 169.587 67.4969 170.961C71.6468 172.335 73.3286 172.886 72.0391 174.564Z" fill="#2AF3CE"/>
<path d="M66.7773 161.27C66.6137 160.888 66.1845 160.603 65.8115 160.306C62.404 157.59 63.2361 153.447 63.7814 149.826C65.0744 141.238 63.6899 132.581 63.1727 123.991C62.6696 115.607 63.5088 107.192 65.4245 99.0193C66.1211 96.0498 67.0817 91.4583 62.4884 92.3274C60.3123 92.739 58.1643 92.6581 55.9953 92.2781C54.8536 92.0776 56.0181 91.7064 54.8536 92.0776C50.8866 93.3442 49.4036 100.842 50.2181 103.454C51.8401 108.656 52.3678 113.649 52.6317 119.157C53.0047 126.967 54.3047 134.787 53.3776 142.538C52.9237 146.336 52.396 150.124 51.8893 153.915C51.5938 156.126 49.7449 160.971 50.9851 162.973C52.688 165.721 60.2754 163.391 62.8104 163.33C64.7156 163.281 67.3332 162.566 66.7773 161.27Z" fill="#333333"/>
<path d="M79.2149 135.441L76.8787 145.989L73.2723 145.571L76.3632 134.71C76.3632 134.711 78.3652 134.655 79.2149 135.441Z" fill="#EAC2AB"/>
<path d="M90.9186 151.109C90.9186 151.109 88.2623 151.723 83.3067 151.585C78.3493 151.448 72.8413 151.07 71.9177 150.238C70.9941 149.406 70.9871 143.134 72.6266 143.301C74.2662 143.468 74.662 145.907 77.7687 144.084C80.4304 142.524 82.0611 146.146 86.2814 147.499C90.5017 148.852 92.2099 149.397 90.9186 151.109Z" fill="#2AF3CE"/>
<path d="M92.3049 102.147C89.9775 98.6287 82.0224 98.6674 74.7236 99.5664L65.6655 99.0316L64.4323 95.5977C64.4323 95.5977 50.0211 99.9991 50.0052 100.004C50.4609 99.9305 50.3888 105.738 50.6526 106.242C52.7162 110.195 58.583 113.464 63.2889 113.526C68.8796 113.599 74.1536 111.988 79.3784 110.262C88.8657 107.131 75.5609 126.906 72.5422 133.169C69.5234 139.431 72.8412 139.101 80.3741 138.772C87.9087 138.443 84.3498 138.937 85.634 133.705C86.92 128.472 96.9087 109.108 92.3049 102.147Z" fill="#474448"/>
<path d="M63.8274 55.0853C63.8274 55.0853 62.7455 63.0122 62.7437 63.0122C60.8297 63.5751 58.8243 64.65 56.8082 64.6465C56.8997 63.1758 58.3387 61.494 59.0002 60.106C59.8024 58.4225 60.3671 56.6791 60.2791 54.7915C60.0469 49.8588 63.8274 55.0853 63.8274 55.0853Z" fill="#D4A79A"/>
<path d="M73.3743 38.519C73.7033 38.6281 74.692 42.3646 72.9345 44.7817C71.1771 47.1989 72.1974 46.8699 70.4787 48.5165C68.76 50.1649 67.5514 50.522 67.5514 50.522L65.5741 51.2626L65.794 47.1971L67.7572 40.7145L73.9496 38.519" fill="black"/>
<path d="M68.709 39.39C68.7055 39.3988 71.821 41.5116 70.1691 46.5657C68.4029 51.9752 65.8538 56.5051 64.2195 56.0354C59.6984 54.7389 58.3544 51.3595 56.9893 48.441C55.3163 44.8628 59.8814 36.8427 59.8814 36.8427L63.7094 35.168L68.709 39.39Z" fill="#EAC2AB"/>
<path d="M75.7527 38.1655C76.2611 36.9041 75.6929 34.5328 74.8168 33.6567C74.4791 33.3189 74.0375 33.0849 73.5766 33.092C73.2301 33.0973 72.8782 33.2362 72.5422 33.1518C71.5324 32.8967 71.5342 32.0365 70.6089 31.6512C69.9193 31.3645 69.1857 31.9503 68.4486 32.0611C67.8927 32.1438 67.3403 31.9503 66.8002 31.7902C65.2821 31.3381 63.9116 30.4796 62.3425 30.1577C61.0195 29.8867 59.614 29.9219 58.3509 30.4708C57.0332 31.0443 56.027 32.2141 55.4253 33.6127C55.0665 34.4483 54.8958 35.3983 55.0541 36.2972C54.924 35.5584 53.5571 36.2286 53.3231 36.496C52.4031 37.5462 50.0844 40.6195 50.4169 41.9565C50.6808 43.0155 49.8628 43.9743 50.095 45.0474C50.3712 46.3246 53.7119 47.0617 54.31 48.2227C54.9961 49.5544 56.5143 50.3285 57.8952 50.0892C57.5733 48.9088 57.2549 47.702 57.2795 46.4636C57.3041 45.2251 56.1325 39.5288 62.2932 38.8269C64.742 38.5472 67.481 40.7972 69.8876 41.0928C71.0311 41.2335 72.1974 41.1051 73.3092 40.7568C74.1677 40.4876 75.079 39.316 75.6102 38.4469C75.6665 38.3572 75.714 38.264 75.7527 38.1655Z" fill="#333333"/>
<path d="M101.868 55.4422C101.718 55.3789 101.562 55.5108 101.453 55.6322C100.461 56.7299 99.4666 57.8259 98.4744 58.9236C98.2809 59.1382 98.0786 59.3581 97.8183 59.483C97.5579 59.608 97.2201 59.6132 97.0038 59.4215C96.7434 59.191 96.7522 58.7882 96.7821 58.4399C96.8261 57.9139 97.6986 56.8707 96.8648 56.6402C95.6808 57.2155 94.5479 59.6572 94.1979 60.8851C93.7317 62.1904 94.7872 63.1175 94.0747 64.2434C92.7518 66.3351 91.4641 68.4426 90.0356 70.4639C89.2862 71.5229 88.5157 72.5661 87.7416 73.604C87.3916 74.0737 85.9314 76.658 85.4213 76.7108C83.7254 79.0012 82.0859 81.3796 80.2598 83.5698C79.5632 84.4054 74.2399 79.587 74.2399 79.587C69.5728 75.9789 68.7829 73.1326 68.7829 73.1326L64.6998 74.181C64.6998 74.181 66.1494 77.8753 68.994 80.31C72.0972 82.9647 76.0642 87.1568 78.2385 88.7911C80.4146 90.4254 80.5659 89.632 81.3875 88.8439C83.1167 87.1779 84.3869 84.6288 85.7186 82.6498C88.0161 79.2334 90.2889 75.7977 92.4862 72.3145C93.5505 70.6275 94.6746 68.8261 95.6474 67.0282C96.5798 65.306 97.3574 64.3578 99.0655 63.3568C100.503 62.5141 101.307 61.1947 101.564 59.5323C101.747 58.3466 101.644 57.124 101.972 55.9594C102.024 55.7747 102.046 55.5161 101.868 55.4422Z" fill="#EAC2AB"/>
<path d="M65.4757 78.4C64.9761 73.6185 67.2859 66.0083 64.4993 62.1275C64.2143 61.7299 63.9065 61.3324 63.4913 61.072C58.2489 57.7823 54.6215 62.8945 52.9467 67.3927C51.4937 71.2929 51.6731 74.8816 51.5658 78.9506C51.3846 85.8079 49.789 92.4787 47.7519 98.9965C47.0253 101.322 46.8318 104.03 48.8883 104.383C51.6661 104.86 52.2642 101.438 54.9135 100.555C57.3342 99.7477 59.2904 100.244 61.9362 100.388C63.2485 100.46 67.5339 99.5964 67.2718 97.1564C66.6526 91.3722 65.7219 86.3849 65.692 82.3564C65.6832 81.0493 65.6146 79.7246 65.4757 78.4Z" fill="#E0E0E0"/>
<path d="M69.7681 72.4995C69.7681 72.4995 64.0948 60.8572 60.4761 64.453C56.8592 68.0488 65.2875 79.7896 65.2875 79.7896L71.1368 73.7996L69.7681 72.4995Z" fill="#F2F2F2"/>
<path d="M69.4847 38.8674C70.8375 38.0934 71.2298 36.3448 71.367 34.7914C71.5166 33.1043 71.4884 30.8244 70.067 29.6352C69.5181 29.1761 68.8461 28.8911 68.16 28.6853C64.7982 27.6737 60.7328 27.9552 57.4642 29.1954C54.1305 30.4603 51.6589 33.3471 50.4767 36.6614C49.8821 38.3274 49.5883 40.1024 49.6006 41.8704C49.6129 43.7386 50.445 45.6825 48.9955 47.2271C49.5162 47.2288 50.0369 47.1638 50.5418 47.0336C48.6964 47.5086 45.7234 47.6106 45.6477 50.2529C45.6178 51.3049 46.3022 52.2214 46.8792 53.1028C47.4562 53.9841 47.9663 55.0801 47.5653 56.0547C47.0604 57.2843 45.3065 57.7681 45.0795 59.0805C44.8104 60.6391 46.2828 61.3533 46.8757 62.5672C47.6233 64.0977 46.9073 65.878 46.7349 67.4648C46.5819 68.8721 47.8801 69.5195 48.7281 70.3604C51.1857 72.7951 51.1522 75.564 48.466 78.2538C48.4114 78.3084 48.4325 78.4139 48.4712 78.4808C48.5117 78.5511 48.5997 78.581 48.6788 78.6022C52.1532 79.5099 56.6638 76.1551 57.4642 72.8074C57.8248 71.2998 56.9048 69.8889 57.3076 68.4411C57.6296 67.2836 58.8082 66.6291 59.825 65.9923C62.1858 64.5146 61.7179 60.7499 61.4171 57.981C61.155 55.5656 61.7812 55.1047 60.4055 53.1028C59.6896 52.0613 59.1284 50.9214 58.6534 49.7498C58.0219 48.1911 57.2865 49.2343 57.341 47.5543C57.4009 45.7107 58.3139 44.0007 59.8074 42.9206C60.5815 42.3612 61.4962 41.9689 62.4374 41.8C63.4349 41.6206 64.4517 41.4517 65.2275 40.7498C65.9523 40.0936 66.9532 38.6071 68.0756 38.7073C69.4759 38.8322 71.082 38.4822 71.8086 37.2806" fill="#333333"/>
</svg>
