<svg width="443" height="411" viewBox="0 0 443 411" fill="none" xmlns="http://www.w3.org/2000/svg">
<path d="M159.83 136.316L146.085 177.03L110.25 180.486C110.25 180.486 137.64 157.447 141.41 131.182C145.181 104.917 159.83 136.316 159.83 136.316Z" fill="#D4A79A"/>
<path d="M212.32 59.8025C212.32 59.8025 216.765 71.1048 201.912 97.8146C187.059 124.524 169.084 145.86 160.933 141.73C138.404 130.313 134.738 111.12 130.503 94.3435C125.308 73.7718 157.512 36.1043 157.512 36.1043L179.397 31.1449L212.32 59.8025Z" fill="#EAC2AB"/>
<path d="M241.717 59.7027C244.215 52.9003 243.815 45.2639 238.846 37.9122C237.407 35.7846 235.315 34.1065 232.877 33.677C231.044 33.3524 229.052 33.732 227.364 32.9379C222.294 30.5705 223.843 22.5546 219.353 19.5879C216.001 17.3754 211.547 19.7228 207.546 19.558C204.524 19.4331 201.812 17.8549 199.131 16.4615C191.579 12.5409 185.221 6.61757 177.275 3.33127C170.568 0.559402 163.121 -0.679199 155.909 0.938974C148.383 2.62707 141.885 7.77626 137.295 14.5386C134.553 18.5841 132.691 23.4186 132.616 28.3231C132.676 24.2926 124.794 26.4402 123.281 27.6189C117.363 32.2237 113.123 44.6147 113.522 52.0013C113.837 57.8497 115.5 63.4185 115.64 69.3018C115.944 82.1723 114.561 103.598 133.619 103.948C133.115 97.3951 132.661 90.7177 134.044 84.215C136.516 72.6331 141.665 57.3253 152.363 50.7428C174.953 36.8534 182.554 72.9827 199.64 79.8199C215.547 86.1978 236.059 75.1053 241.717 59.7027Z" fill="#333333"/>
<path d="M139.897 63.4184C139.897 63.4184 133.879 51.0424 130.613 66.46C127.351 81.8826 134.413 87.2216 134.413 87.2216L139.897 63.4184Z" fill="#EAC2AB"/>
<path d="M178.024 281.482C176.391 260.356 173.469 238.011 168.58 216.865C164.799 200.519 161.248 178.134 145.166 168.819C115.045 151.369 95.662 194.451 90.343 217.125C84.2798 242.956 85.0489 270.17 84.7693 296.535C84.5195 320.179 81.1933 346.234 84.4097 369.473C84.979 373.573 86.4773 377.779 89.6887 380.391C97.8545 387.033 106.275 378.228 113.147 374.313C119.575 370.647 126.382 371.251 133.21 368.789C139.208 366.626 142.159 362.141 147.179 358.655C160.344 349.506 174.518 364.224 188.787 361.467C219.802 355.474 196.124 363.929 183.643 301.62C182.369 295.272 178.603 289.004 178.024 281.482Z" fill="#E0E0E0"/>
<path d="M258.653 234.915C270.435 227.318 275 210.268 285.898 201.128C290.338 197.407 295.602 195.2 300.821 193.157C308.272 190.235 315.799 187.543 323.38 185.086C322.906 188.962 319.919 191.834 316.818 193.547C313.716 195.26 310.285 196.234 307.398 198.381C306.125 199.325 304.956 200.534 304.297 202.087C302.813 205.578 304.252 209.773 303.628 213.584C302.454 220.731 295.122 223.648 289.503 227.144C277.902 234.361 270.405 248.579 258.314 254.673C258.314 254.673 167.576 330.013 156.389 327.93C145.201 325.847 129.764 223.088 129.764 223.088C129.764 223.088 119.116 170.128 147.089 195.499C175.063 220.871 157.842 305.151 171.666 296.45C185.481 287.745 258.653 234.915 258.653 234.915Z" fill="#EAC2AB"/>
<path d="M167.232 237.452C167.232 237.452 164.02 172.176 136.946 177.565C109.871 182.954 127.257 256.226 127.257 256.226L171.437 246.767L167.232 237.452Z" fill="#F2F2F2"/>
<path d="M228.287 397.157H45.5533C37.4225 397.157 30.77 390.504 30.77 382.374V361.532C30.77 353.401 37.4225 346.749 45.5533 346.749H228.287C236.418 346.749 243.07 353.401 243.07 361.532V382.374C243.065 390.504 236.413 397.157 228.287 397.157Z" fill="#E3E5FC"/>
<path d="M132.535 409.748H10.3379C4.89908 409.748 0.454102 405.298 0.454102 399.864V385.93C0.454102 380.491 4.90408 376.046 10.3379 376.046H132.535C137.974 376.046 142.419 380.496 142.419 385.93V399.864C142.419 405.303 137.969 409.748 132.535 409.748Z" fill="#2AF3CE"/>
<path d="M126.223 393.726L125.773 394.275C125.598 394.49 125.279 394.52 125.064 394.345L114.87 386.044C114.656 385.87 114.626 385.55 114.801 385.335L115.25 384.786C115.425 384.571 115.744 384.541 115.959 384.716L126.153 393.017C126.362 393.191 126.397 393.511 126.223 393.726Z" fill="white"/>
<path d="M126.222 393.291L125.773 392.742C125.598 392.527 125.278 392.497 125.063 392.672L114.87 400.973C114.655 401.147 114.625 401.467 114.8 401.682L115.25 402.231C115.424 402.446 115.744 402.476 115.959 402.301L126.152 394C126.362 393.821 126.397 393.501 126.222 393.291Z" fill="white"/>
<path d="M111.989 393.726L111.539 394.275C111.364 394.49 111.045 394.52 110.83 394.345L100.637 386.044C100.422 385.87 100.392 385.55 100.567 385.335L101.016 384.786C101.191 384.571 101.511 384.541 101.725 384.716L111.919 393.017C112.134 393.191 112.164 393.511 111.989 393.726Z" fill="white"/>
<path d="M111.988 393.291L111.539 392.742C111.364 392.527 111.044 392.497 110.83 392.672L100.636 400.973C100.421 401.147 100.391 401.467 100.566 401.682L101.016 402.231C101.19 402.446 101.51 402.476 101.725 402.301L111.918 394C112.133 393.821 112.163 393.501 111.988 393.291Z" fill="white"/>
<path d="M96.4556 393.726L96.0061 394.275C95.8313 394.49 95.5116 394.52 95.2969 394.345L85.1034 386.044C84.8886 385.87 84.8586 385.55 85.0334 385.335L85.4829 384.786C85.6577 384.571 85.9774 384.541 86.1921 384.716L96.3856 393.017C96.6004 393.191 96.6304 393.511 96.4556 393.726Z" fill="white"/>
<path d="M96.4556 393.291L96.0061 392.742C95.8313 392.527 95.5116 392.497 95.2969 392.672L85.1034 400.973C84.8886 401.147 84.8586 401.467 85.0334 401.682L85.4829 402.231C85.6577 402.446 85.9774 402.476 86.1921 402.301L96.3856 394C96.6004 393.821 96.6304 393.501 96.4556 393.291Z" fill="white"/>
<path opacity="0.26" d="M421.594 253.489L236.613 317.622C224.876 317.622 215.362 308.107 215.362 296.371V205.034C215.362 193.297 224.876 183.783 236.613 183.783L421.594 119.65C433.331 119.65 442.845 129.164 442.845 140.901V232.238C442.845 243.975 433.331 253.489 421.594 253.489Z" fill="#A7ADFF"/>
<path opacity="0.13" d="M410.177 248.1L225.196 312.233C213.459 312.233 203.945 302.718 203.945 290.982V199.65C203.945 187.913 213.459 178.399 225.196 178.399L410.177 114.266C421.914 114.266 431.428 123.78 431.428 135.517V226.849C431.428 238.586 421.914 248.1 410.177 248.1Z" fill="#A7ADFF"/>
<path opacity="0.39" d="M298.868 220.796L241.792 240.583C238.171 240.583 235.234 237.647 235.234 234.026V205.843C235.234 202.222 238.171 199.285 241.792 199.285L298.868 179.497C302.488 179.497 305.425 182.434 305.425 186.055V214.238C305.425 217.859 302.488 220.796 298.868 220.796Z" fill="white"/>
<path d="M428.257 89.0895L371.181 108.877C367.56 108.877 364.624 105.94 364.624 102.32V74.1364C364.624 70.5155 367.56 67.5788 371.181 67.5788L428.257 47.7911C431.878 47.7911 434.814 50.7278 434.814 54.3487V82.5319C434.814 86.1528 431.878 89.0895 428.257 89.0895Z" fill="#A7ADFF"/>
<path d="M406.621 81.6129L352.582 100.347C349.151 100.347 346.374 97.5649 346.374 94.1388V67.4589C346.374 64.0278 349.156 61.2509 352.582 61.2509L406.621 42.5171C410.052 42.5171 412.829 45.2989 412.829 48.7251V75.4049C412.829 78.8361 410.047 81.6129 406.621 81.6129Z" fill="#E3E5FC"/>
<path d="M425.22 299.097L371.181 317.831C367.75 317.831 364.973 315.049 364.973 311.623V284.943C364.973 281.512 367.755 278.735 371.181 278.735L425.22 260.002C428.651 260.002 431.428 262.783 431.428 266.21V292.889C431.428 296.321 428.651 299.097 425.22 299.097Z" fill="#E3E5FC"/>
<path d="M335.546 308.187L278.471 327.975C274.85 327.975 271.913 325.038 271.913 321.417V293.239C271.913 289.618 274.85 286.681 278.471 286.681L335.546 266.894C339.167 266.894 342.104 269.83 342.104 273.451V301.635C342.104 305.251 339.167 308.187 335.546 308.187Z" fill="#A7ADFF"/>
<path opacity="0.51" d="M298.868 272.298L241.792 292.085C238.171 292.085 235.234 289.149 235.234 285.528V257.345C235.234 253.724 238.171 250.787 241.792 250.787L298.868 230.999C302.488 230.999 305.425 233.936 305.425 237.557V265.74C305.425 269.361 302.488 272.298 298.868 272.298Z" fill="white"/>
<path opacity="0.51" d="M326.282 254.812V254.812C324.888 254.812 323.745 253.669 323.745 252.275V209.733C323.745 208.34 324.888 207.196 326.282 207.196V207.196C327.675 207.196 328.819 208.34 328.819 209.733V252.275C328.819 253.669 327.68 254.812 326.282 254.812Z" fill="white"/>
<path opacity="0.51" d="M339.932 171.606V171.606C339.463 170.293 340.157 168.834 341.47 168.365L408.974 144.277C410.288 143.808 411.746 144.502 412.215 145.815V145.815C412.685 147.129 411.991 148.587 410.677 149.057L343.173 173.145C341.86 173.614 340.401 172.92 339.932 171.606Z" fill="white"/>
<path opacity="0.51" d="M339.931 180.806V180.806C339.462 179.492 340.156 178.034 341.469 177.565L408.973 153.477C410.287 153.007 411.745 153.702 412.214 155.015V155.015C412.684 156.329 411.99 157.787 410.676 158.256L343.172 182.344C341.859 182.809 340.401 182.12 339.931 180.806Z" fill="white"/>
<path opacity="0.51" d="M339.931 190.001V190.001C339.462 188.687 340.156 187.229 341.469 186.759L408.973 162.671C410.287 162.202 411.745 162.896 412.214 164.21V164.21C412.684 165.523 411.99 166.982 410.676 167.451L343.172 191.539C341.859 192.008 340.401 191.314 339.931 190.001Z" fill="white"/>
<path opacity="0.51" d="M339.931 199.2V199.2C339.462 197.887 340.156 196.428 341.469 195.959L408.973 171.871C410.287 171.402 411.745 172.096 412.214 173.409V173.409C412.684 174.723 411.99 176.181 410.676 176.651L343.172 200.738C341.859 201.203 340.401 200.514 339.931 199.2Z" fill="white"/>
<path opacity="0.51" d="M339.931 208.395V208.395C339.462 207.081 340.156 205.623 341.469 205.154L408.973 181.066C410.287 180.596 411.745 181.29 412.214 182.604V182.604C412.684 183.917 411.99 185.376 410.676 185.845L343.172 209.933C341.859 210.403 340.401 209.708 339.931 208.395Z" fill="white"/>
<path opacity="0.51" d="M339.931 217.589V217.589C339.462 216.276 340.156 214.818 341.469 214.348L408.973 190.26C410.287 189.791 411.745 190.485 412.214 191.799V191.799C412.684 193.112 411.99 194.57 410.676 195.04L343.172 219.128C341.859 219.597 340.401 218.903 339.931 217.589Z" fill="white"/>
<path opacity="0.51" d="M339.931 226.789V226.789C339.462 225.476 340.156 224.017 341.469 223.548L408.973 199.46C410.287 198.99 411.745 199.685 412.214 200.998V200.998C412.684 202.312 411.99 203.77 410.676 204.24L343.172 228.327C341.859 228.792 340.401 228.103 339.931 226.789Z" fill="white"/>
<path opacity="0.51" d="M339.931 235.984V235.984C339.462 234.67 340.156 233.212 341.469 232.742L408.973 208.655C410.287 208.185 411.745 208.879 412.214 210.193V210.193C412.684 211.506 411.99 212.965 410.676 213.434L343.172 237.522C341.859 237.991 340.401 237.297 339.931 235.984Z" fill="white"/>
<path opacity="0.51" d="M339.931 245.183V245.183C339.462 243.87 340.156 242.411 341.469 241.942L408.973 217.854C410.287 217.385 411.745 218.079 412.214 219.392V219.392C412.684 220.706 411.99 222.164 410.676 222.634L343.172 246.722C341.859 247.186 340.401 246.497 339.931 245.183Z" fill="white"/>
<path opacity="0.51" d="M339.931 254.378V254.378C339.462 253.064 340.156 251.606 341.469 251.137L408.973 227.049C410.287 226.579 411.745 227.274 412.214 228.587V228.587C412.684 229.901 411.99 231.359 410.676 231.828L343.172 255.916C341.859 256.386 340.401 255.691 339.931 254.378Z" fill="white"/>
<path d="M309.291 98.2792C309.92 97.8896 310.58 97.54 311.249 97.2304C320.164 93.14 330.742 97.0655 334.837 105.98C338.928 114.895 335.002 125.473 326.087 129.564L324.309 125.688C331.086 122.577 334.068 114.536 330.962 107.758C327.85 100.981 319.809 97.9995 313.032 101.106C312.522 101.341 312.018 101.61 311.538 101.905L309.291 98.2792Z" fill="#E3E5FC"/>
<path d="M319.939 130.038L327.81 130.777L324.514 123.586L319.939 130.038Z" fill="#E3E5FC"/>
<path d="M318.431 132.925C317.801 133.315 317.142 133.664 316.473 133.974C307.558 138.064 296.975 134.139 292.884 125.224C288.794 116.309 292.72 105.731 301.634 101.64L303.412 105.516C296.635 108.627 293.654 116.668 296.76 123.446C299.871 130.223 307.912 133.205 314.69 130.098C315.199 129.864 315.704 129.594 316.183 129.299L318.431 132.925Z" fill="#E3E5FC"/>
<path d="M307.788 101.166L299.912 100.427L303.208 107.614L307.788 101.166Z" fill="#E3E5FC"/>
<path opacity="0.36" d="M326.282 196.558C333.478 196.558 339.312 190.724 339.312 183.528C339.312 176.331 333.478 170.498 326.282 170.498C319.085 170.498 313.251 176.331 313.251 183.528C313.251 190.724 319.085 196.558 326.282 196.558Z" fill="#E0E0E0"/>
<path d="M326.282 190.046C329.881 190.046 332.799 187.127 332.799 183.528C332.799 179.928 329.881 177.01 326.282 177.01C322.682 177.01 319.764 179.928 319.764 183.528C319.764 187.127 322.682 190.046 326.282 190.046Z" fill="#E0E0E0"/>
<path opacity="0.36" d="M326.282 192.742C331.371 192.742 335.497 188.617 335.497 183.528C335.497 178.439 331.371 174.313 326.282 174.313C321.193 174.313 317.067 178.439 317.067 183.528C317.067 188.617 321.193 192.742 326.282 192.742Z" fill="#E0E0E0"/>
</svg>
