<svg width="584" height="476" viewBox="0 0 584 476" fill="none" xmlns="http://www.w3.org/2000/svg">
<path d="M546.773 232.071C554.314 226.798 562.389 219.583 561.737 210.405C550.255 210.128 538.725 212.535 528.312 217.377C524.643 212.514 530.595 206.278 535.812 203.142C547.12 196.336 558.434 189.531 569.742 182.732C565.774 179.055 560.405 176.926 554.994 176.891C550.789 166.714 570.908 159.95 569.097 149.086C568.147 143.384 560.987 140.553 555.403 142.045C549.818 143.536 545.559 147.941 541.604 152.159C544.109 144.986 548.729 138.784 552.406 132.131C556.083 125.478 558.885 117.792 557.262 110.369C555.639 102.946 548.119 96.4662 540.758 98.367C535.673 99.6782 532.225 104.319 529.561 108.849C523.762 118.7 519.627 129.523 517.379 140.727C516.033 147.414 512.114 156.447 505.641 154.289C502.145 153.124 500.681 149.1 498.399 146.207C492.009 138.097 477.996 139.776 471.44 147.747C464.884 155.718 464.704 167.415 468.02 177.189C470.066 183.225 472.807 191.085 467.756 194.97C462.782 198.799 454.846 194.422 449.546 197.772C443.136 201.824 446.708 211.488 447.471 219.035C448.38 228.026 444.072 236.601 440.506 244.898C436.941 253.202 434.034 262.782 437.627 271.066C448.436 295.971 531.733 242.581 546.773 232.071Z" fill="#F2F2F2"/>
<path d="M561.952 291.94C564.456 289.547 567.03 286.529 566.607 283.088C566.163 279.494 562.424 277.052 558.816 276.81C555.202 276.567 551.712 277.989 548.375 279.376C546.35 276.664 549.374 273.077 552.191 271.204C564.755 262.838 580.738 255.422 583.798 240.638C584.054 239.403 584.179 238.023 583.471 236.975C582.771 235.935 581.439 235.532 580.197 235.38C572.67 234.429 565.816 239.709 558.337 240.978C550.11 242.373 541.813 238.814 533.467 239.057C526.745 239.251 520.369 241.887 514.174 244.482C502.658 249.303 490.844 254.319 481.936 263.06C468.554 276.192 449.594 314.32 477.753 321.736C504.975 328.916 542.895 310.13 561.952 291.94Z" fill="#2AF3CE"/>
<path d="M460.556 250.926C460.243 250.926 459.938 250.815 459.688 250.593C459.154 250.115 459.106 249.289 459.584 248.755L524.844 175.739C525.323 175.205 526.148 175.157 526.682 175.635C527.217 176.114 527.265 176.94 526.786 177.474L461.527 250.489C461.27 250.781 460.916 250.926 460.556 250.926Z" fill="white"/>
<path d="M496.325 210.912C495.679 210.912 495.124 210.433 495.034 209.774L489.734 168.351C489.644 167.637 490.15 166.991 490.858 166.894C491.538 166.811 492.218 167.304 492.315 168.018L497.615 209.441C497.705 210.156 497.199 210.801 496.491 210.898C496.436 210.905 496.38 210.912 496.325 210.912Z" fill="white"/>
<path d="M456.65 324.081C456.234 324.081 455.817 323.88 455.568 323.498C455.172 322.901 455.332 322.09 455.935 321.694L529.79 272.703C530.38 272.307 531.192 272.467 531.594 273.07C531.99 273.667 531.83 274.479 531.226 274.874L457.371 323.866C457.142 324.011 456.893 324.081 456.65 324.081Z" fill="white"/>
<path d="M500.411 295.7C500.306 295.7 500.195 295.686 500.084 295.658C499.391 295.478 498.974 294.77 499.155 294.07L507.445 262.22C507.625 261.527 508.333 261.103 509.027 261.291C509.72 261.471 510.137 262.179 509.956 262.879L501.666 294.729C501.521 295.312 500.986 295.7 500.411 295.7Z" fill="white"/>
<path d="M120.146 299.599C111.162 292.911 102.171 286.224 93.1875 279.536C66.6244 259.771 39.645 239.598 20.0262 212.93C12.2702 202.386 5.6589 190.682 3.1337 177.841C2.6134 175.198 2.32203 172.271 3.75113 169.988C6.18614 166.117 11.8401 166.388 16.3216 167.304C29.7662 170.058 42.8778 174.442 55.2818 180.318C47.8103 152.68 15.1284 139.408 2.67584 113.629C0.657068 109.446 -0.799776 104.659 0.483634 100.198C1.30918 97.3334 3.21001 94.8637 5.47853 92.9212C13.179 86.3168 24.6464 85.7133 34.3032 88.8004C43.96 91.8945 52.2432 98.1381 60.3183 104.271C49.1908 96.1748 40.4359 84.86 35.3855 72.0536C33.2973 66.7466 31.8682 60.6139 34.331 55.4734C38.5003 46.7531 51.3483 46.2328 59.7633 50.9849C76.0037 60.1491 81.1928 80.5796 85.827 98.6445C90.4611 116.709 98.4321 137.043 116.233 142.6C118.37 143.266 120.694 143.751 122.276 145.333C125.356 148.42 123.795 153.887 120.777 157.036C117.76 160.186 113.625 162.114 110.711 165.361C104.183 172.638 105.689 184.029 109.206 193.152C112.723 202.275 117.926 211.224 117.621 220.999C117.239 233.153 120.521 247.61 121.152 259.751C121.443 265.266 111.488 266.882 112.792 272.245C114.097 277.607 114.291 283.754 110.94 288.145C107.589 292.537 99.6947 293.369 96.9406 288.589" fill="#474448"/>
<path d="M136.796 284.545C136.345 284.545 135.908 284.309 135.672 283.893C107.68 235.338 54.2827 142.988 51.7506 139.54C51.3621 139.145 51.265 138.52 51.5425 138.014C51.8893 137.383 52.6802 137.161 53.3046 137.501C53.7277 137.73 54.7059 138.271 137.919 282.595C138.28 283.213 138.065 284.011 137.441 284.371C137.24 284.489 137.011 284.545 136.796 284.545Z" fill="white"/>
<path d="M101.054 222.671C100.985 222.671 100.916 222.664 100.846 222.657L45.9094 213.812C45.2017 213.701 44.7161 213.028 44.8341 212.32C44.9451 211.612 45.6319 211.127 46.3187 211.245L101.256 220.09C101.963 220.201 102.449 220.874 102.331 221.581C102.234 222.22 101.679 222.671 101.054 222.671Z" fill="white"/>
<path d="M517.06 397.866C515.86 398.463 513.987 398.803 511.246 398.803C437.537 398.796 363.848 398.775 290.125 398.976C253.205 399.074 216.277 398.81 179.356 398.893C160.709 398.935 142.061 399.067 123.42 399.379C114.097 399.538 104.773 399.74 95.4491 399.996C88.595 400.184 80.2771 401.46 73.749 398.609C71.5221 397.638 69.4201 396.333 68.5322 393.94C68.3865 393.371 68.3518 392.802 68.4212 392.219C69.1426 387.252 76.7529 378.914 79.7429 374.8C85.8825 366.357 92.1608 357.172 103.17 354.244C109.574 352.545 116.331 352.573 122.977 352.614C239.586 352.614 356.203 353.259 472.806 353.62C480.118 353.641 489.144 354.716 494.229 360.301C500.695 367.398 506.383 375.077 511.614 383.027C514.77 387.78 522.332 395.251 517.06 397.866Z" fill="#978CFF"/>
<path d="M466.896 358.608H117.621C100.465 358.608 86.4307 344.574 86.4307 327.418V79.5876C86.4307 62.4315 100.465 48.3973 117.621 48.3973H466.903C484.059 48.3973 498.093 62.4315 498.093 79.5876V327.418C498.093 344.574 484.052 358.608 466.896 358.608Z" fill="#A7ADFF"/>
<path d="M128.492 61.8765C110.704 61.8765 96.1499 76.4311 96.1499 94.2185V263.747C201.417 200.575 304.375 133.817 403.794 61.8765L128.492 61.8765Z" fill="#EFF0FC"/>
<path d="M454.249 61.8765H403.794C304.368 133.81 201.417 200.575 96.1499 263.747V300.39C96.1499 318.177 110.704 332.732 128.492 332.732H454.249C472.037 332.732 486.591 318.177 486.591 300.39V94.2185C486.591 76.4311 472.037 61.8765 454.249 61.8765Z" fill="#E3E5FC"/>
<path d="M314.322 344.456H284.818C284.29 344.456 283.86 344.026 283.86 343.498V342.86C283.86 342.333 284.29 341.903 284.818 341.903H314.322C314.85 341.903 315.28 342.333 315.28 342.86V343.498C315.28 344.026 314.85 344.456 314.322 344.456Z" fill="#E3E5FC"/>
<path d="M125.682 58.8102C127.268 58.8102 128.554 57.5243 128.554 55.9381C128.554 54.3519 127.268 53.066 125.682 53.066C124.096 53.066 122.81 54.3519 122.81 55.9381C122.81 57.5243 124.096 58.8102 125.682 58.8102Z" fill="#E3E5FC"/>
<path d="M138.051 58.8102C139.637 58.8102 140.923 57.5243 140.923 55.9381C140.923 54.3519 139.637 53.066 138.051 53.066C136.465 53.066 135.179 54.3519 135.179 55.9381C135.179 57.5243 136.465 58.8102 138.051 58.8102Z" fill="white"/>
<path d="M150.532 58.8102C152.118 58.8102 153.404 57.5243 153.404 55.9381C153.404 54.3519 152.118 53.066 150.532 53.066C148.946 53.066 147.66 54.3519 147.66 55.9381C147.66 57.5243 148.946 58.8102 150.532 58.8102Z" fill="#333333"/>
<path d="M119.022 373.822H107.478C105.959 373.822 104.717 372.58 104.717 371.061V369.236C104.717 367.717 105.959 366.475 107.478 366.475H119.022C120.541 366.475 121.783 367.717 121.783 369.236V371.061C121.783 372.58 120.541 373.822 119.022 373.822Z" fill="#E3E5FC"/>
<path d="M147.403 373.822H135.859C134.34 373.822 133.098 372.58 133.098 371.061V369.236C133.098 367.717 134.34 366.475 135.859 366.475H147.403C148.922 366.475 150.164 367.717 150.164 369.236V371.061C150.171 372.58 148.922 373.822 147.403 373.822Z" fill="#E3E5FC"/>
<path d="M175.791 373.822H164.247C162.728 373.822 161.486 372.58 161.486 371.061V369.236C161.486 367.717 162.728 366.475 164.247 366.475H175.791C177.31 366.475 178.552 367.717 178.552 369.236V371.061C178.552 372.58 177.31 373.822 175.791 373.822Z" fill="#E3E5FC"/>
<path d="M204.172 373.822H192.628C191.108 373.822 189.867 372.58 189.867 371.061V369.236C189.867 367.717 191.108 366.475 192.628 366.475H204.172C205.691 366.475 206.933 367.717 206.933 369.236V371.061C206.933 372.58 205.691 373.822 204.172 373.822Z" fill="#E3E5FC"/>
<path d="M232.552 373.822H221.008C219.489 373.822 218.247 372.58 218.247 371.061V369.236C218.247 367.717 219.489 366.475 221.008 366.475H232.552C234.071 366.475 235.313 367.717 235.313 369.236V371.061C235.32 372.58 234.071 373.822 232.552 373.822Z" fill="#E3E5FC"/>
<path d="M260.94 373.822H249.396C247.877 373.822 246.635 372.58 246.635 371.061V369.236C246.635 367.717 247.877 366.475 249.396 366.475H260.94C262.459 366.475 263.701 367.717 263.701 369.236V371.061C263.701 372.58 262.459 373.822 260.94 373.822Z" fill="#E3E5FC"/>
<path d="M289.32 373.822H277.777C276.257 373.822 275.016 372.58 275.016 371.061V369.236C275.016 367.717 276.257 366.475 277.777 366.475H289.32C290.84 366.475 292.082 367.717 292.082 369.236V371.061C292.082 372.58 290.84 373.822 289.32 373.822Z" fill="#E3E5FC"/>
<path d="M317.708 373.822H306.164C304.645 373.822 303.403 372.58 303.403 371.061V369.236C303.403 367.717 304.645 366.475 306.164 366.475H317.708C319.227 366.475 320.469 367.717 320.469 369.236V371.061C320.469 372.58 319.227 373.822 317.708 373.822Z" fill="#E3E5FC"/>
<path d="M346.089 373.822H334.545C333.025 373.822 331.784 372.58 331.784 371.061V369.236C331.784 367.717 333.025 366.475 334.545 366.475H346.089C347.608 366.475 348.85 367.717 348.85 369.236V371.061C348.85 372.58 347.608 373.822 346.089 373.822Z" fill="#E3E5FC"/>
<path d="M374.47 373.822H362.926C361.407 373.822 360.165 372.58 360.165 371.061V369.236C360.165 367.717 361.407 366.475 362.926 366.475H374.47C375.989 366.475 377.231 367.717 377.231 369.236V371.061C377.238 372.58 375.989 373.822 374.47 373.822Z" fill="#E3E5FC"/>
<path d="M402.857 373.822H391.313C389.794 373.822 388.552 372.58 388.552 371.061V369.236C388.552 367.717 389.794 366.475 391.313 366.475H402.857C404.376 366.475 405.618 367.717 405.618 369.236V371.061C405.618 372.58 404.376 373.822 402.857 373.822Z" fill="#E3E5FC"/>
<path d="M431.237 373.822H419.694C418.174 373.822 416.933 372.58 416.933 371.061V369.236C416.933 367.717 418.174 366.475 419.694 366.475H431.237C432.757 366.475 433.999 367.717 433.999 369.236V371.061C433.999 372.58 432.757 373.822 431.237 373.822Z" fill="#E3E5FC"/>
<path d="M459.618 373.822H448.075C446.555 373.822 445.313 372.58 445.313 371.061V369.236C445.313 367.717 446.555 366.475 448.075 366.475H459.618C461.138 366.475 462.379 367.717 462.379 369.236V371.061C462.386 372.58 461.145 373.822 459.618 373.822Z" fill="#E3E5FC"/>
<g clip-path="url(#clip0)">
<path d="M119.948 316.549C126.581 320.757 133.206 324.965 139.768 329.285C133.225 327.339 126.631 325.373 120.619 322.14C114.608 318.91 109.144 314.282 106.077 308.183C103.014 302.084 102.676 294.389 106.268 288.585C111.35 280.374 123.538 276.329 132.184 281.1C135.777 283.08 139.239 286.33 143.298 285.719C151.398 284.495 157.048 276.291 164.702 273.502C172.969 270.491 182.189 270.059 190.683 272.408C194.095 273.353 204.24 277.17 204.648 270.363C204.769 268.323 203.873 266.348 203.817 264.306C203.542 254.46 230.796 263.651 236.55 258.89C241.337 254.928 242.446 248.359 246.888 244.01C252.13 238.88 258.888 235.567 264.685 231.139C271.672 225.798 278.683 216.479 275.224 207.253C273.669 203.108 270.228 199.216 271.126 194.879C271.655 192.318 273.618 190.331 275.489 188.505C280.67 183.445 285.852 178.387 291.033 173.326C292.211 172.177 293.633 170.938 295.268 171.141C297.154 171.375 298.284 173.519 298.192 175.417C298.1 177.315 297.154 179.046 296.424 180.801C292.965 189.126 294.379 199.375 300.333 206.21C303.938 210.349 309.175 213.62 310.346 218.982C311.577 224.618 308.562 232.409 313.671 235.084C316.326 236.475 319.668 235.234 322.517 236.166C328.302 238.061 327.875 246.289 330.576 251.746C334.14 258.943 343.228 260.962 349.988 265.298C357.292 269.982 362.053 277.648 368.157 283.814C375.996 291.736 386.255 297.229 397.195 299.358C401.883 300.271 407.83 299.991 410.013 295.744C412.302 291.292 408.875 285.045 412.067 281.187C415.725 276.769 422.613 280.615 427.597 283.454C435.195 287.786 444.073 289.121 452.69 290.632C461.304 292.144 470.182 294.034 477.23 299.213C484.277 304.395 488.99 313.76 486.17 322.039C483.015 331.308 472.321 335.49 462.673 337.16C426.737 343.382 390.495 330.97 354.189 327.512C317.075 323.98 280.016 329.842 243.097 332.952C205.022 336.161 168.224 332.588 130.383 328.348" fill="#E3E5FC"/>
<path opacity="0.27" d="M277.935 242.733C277.867 245.951 278.297 249.204 277.706 252.369C277.114 255.532 275.187 258.733 272.087 259.602C267.72 260.826 262.227 257.26 258.902 260.344C256.367 262.695 257.473 266.962 256.092 270.132C253.289 276.568 242.723 275.011 238.491 280.613C236.989 282.6 236.417 285.367 234.333 286.733C231.81 288.385 228.505 287.153 225.583 286.405C213.716 283.367 201.545 289.406 191.164 295.91C184.215 300.266 177.455 304.918 170.907 309.856C169.53 310.894 168.099 312.029 167.505 313.646C166.561 316.208 168.031 319.011 169.738 321.141C177.715 331.086 194.138 320.844 206.86 321.67C228.891 323.096 245.381 319.209 267.449 318.504C283 318.007 297.175 320.87 312.478 318.053C326.873 315.402 344.498 319.82 359.134 319.69C365.858 319.629 373.12 320.895 378.896 317.452C379.671 316.99 380.419 316.428 380.871 315.648C382.172 313.4 380.516 310.621 378.768 308.704C371.8 301.07 349.447 303.871 343.469 295.437C327.52 272.935 320.081 273.905 302.41 267.773C300.114 266.976 297.716 266.172 295.992 264.46C294.268 262.748 293.472 259.825 294.903 257.862C296.229 256.046 298.868 255.693 300.403 254.049C303.653 250.565 299.829 245.094 299.855 240.331C299.867 238.368 300.575 236.48 300.85 234.538C301.748 228.213 295.352 218.427 288.138 220.682C281.163 222.855 278.063 236.723 277.935 242.733Z" fill="#A7ADFF"/>
<path d="M276.221 193.443C274.246 194.918 272.213 196.458 271.027 198.619C269.407 201.57 271.831 203.999 272.819 206.633C273.41 208.205 273.707 209.318 273.379 210.991C273.101 212.403 271.298 213.895 272.372 215.402C273.881 217.5 276.595 216.273 278.058 219.209C279.256 221.612 278.787 224.432 280.328 226.718C281.924 229.089 284.64 230.946 285.639 233.689C286.692 236.571 284.362 240.816 287.578 242.837C289.292 243.916 291.692 243.001 292.921 241.391C295.505 238.003 295.466 231.685 296.111 227.655C296.41 225.784 297.716 223.311 299.442 224.094C300.527 224.586 302.002 232.402 304.266 228.358C304.711 227.563 304.65 226.595 304.578 225.69C304.474 224.412 304.044 222.973 304.24 221.691C304.95 217.036 306.065 214.533 304.619 209.634C304.464 209.108 304.349 208.441 304.776 208.096C305 207.915 305.309 207.888 305.597 207.871C307.398 207.758 309.482 207.876 310.447 205.986C311.488 203.948 309.049 202.403 308.359 200.696C308.496 201.039 313.323 202.422 314.105 202.852C312.628 199.322 309.069 196.596 305.445 195.548" fill="#F2F2F2"/>
<path d="M278.621 210.336C279.14 212.007 279.917 213.519 280.985 214.74C281.822 215.699 282.844 216.527 283.389 217.696C283.858 218.698 283.925 219.856 284.355 220.878C286.016 224.825 289.119 220.612 290.21 218.657C291.562 216.24 292.9 215.527 295.444 215.564C295.729 215.568 296.048 215.556 296.244 215.339C296.427 215.134 296.429 214.818 296.388 214.538C296.164 212.983 294.491 210.817 296.128 209.491C296.775 208.968 297.617 208.811 298.395 208.538C302.294 207.164 302.2 200 302.053 196.562C301.997 195.268 301.485 194.034 300.788 192.965C296.895 186.989 286.854 186.967 282.131 192.028C278.297 196.133 276.745 204.288 278.621 210.336Z" fill="#E0E0E0"/>
<path d="M327.23 198.414C325.154 200.068 310.061 188.701 295.338 175.598L312.032 162.299C321.453 179.625 329.121 196.908 327.23 198.414Z" fill="#474448"/>
<path d="M254.064 198.414C256.14 200.068 271.233 188.701 285.956 175.598L269.263 162.299C259.842 179.625 252.173 196.908 254.064 198.414Z" fill="#474448"/>
<path d="M267.449 164.748C267.449 184.599 277.529 195.488 289.964 195.488C302.398 195.488 312.478 184.599 312.478 164.748C312.478 156.819 309.875 144.819 306.357 133.264H273.396C269.953 144.819 267.449 156.819 267.449 164.748Z" fill="#A7ADFF"/>
<path d="M289.964 99.5272C285.864 99.5272 278.57 115.892 273.394 133.264H306.355C301.065 115.892 293.696 99.5272 289.964 99.5272Z" fill="#474448"/>
<path d="M306.657 193.117H273.27C270.646 193.117 268.5 190.97 268.5 188.346V188.346C268.5 185.722 270.646 183.575 273.27 183.575H306.657C309.281 183.575 311.428 185.722 311.428 188.346V188.346C311.428 190.97 309.281 193.117 306.657 193.117Z" fill="#978CFF"/>
<path d="M305.143 195.72H274.784C274.07 195.72 273.483 195.133 273.483 194.418V194.418C273.483 193.704 274.07 193.117 274.784 193.117H305.143C305.858 193.117 306.444 193.704 306.444 194.418V194.418C306.444 195.133 305.86 195.72 305.143 195.72Z" fill="#474448"/>
<path d="M289.964 146.71C283.435 146.71 278.145 152.002 278.145 158.528C278.145 158.89 278.167 159.245 278.198 159.598C285.132 156.78 292.016 153.868 298.762 150.655C296.598 148.238 293.462 146.71 289.964 146.71Z" fill="white"/>
<path d="M278.198 159.598C278.739 165.624 283.797 170.347 289.964 170.347C296.492 170.347 301.782 165.054 301.782 158.528C301.782 155.5 300.633 152.746 298.762 150.655C292.016 153.868 285.132 156.78 278.198 159.598Z" fill="#E3E5FC"/>
</g>
<path d="M447.18 118.992L448.489 143.213L467.5 150.548C467.5 150.548 456.059 133.831 457.994 118.992C459.93 104.152 447.18 118.992 447.18 118.992Z" fill="#9E7251"/>
<path d="M430.218 69.4119C430.218 69.4119 426.063 74.8702 430.104 91.7C434.145 108.473 440.691 122.801 445.757 121.835C459.759 119.049 464.654 109.155 469.549 100.684C475.525 90.2786 463.686 64.9201 463.686 64.9201L452.53 58.8932L430.218 69.4119Z" fill="#9E7251"/>
<path d="M433.064 56.2778C424.184 64.7495 421.168 77.7699 420.826 89.9943C420.655 96.1918 420.997 102.503 422.704 108.473C424.583 115.125 428.055 121.209 430.958 127.52C431.47 128.601 431.925 129.795 431.811 130.989C431.698 132.41 430.73 133.604 429.933 134.798C424.583 142.701 424.64 153.845 429.99 161.692C431.868 164.421 434.543 166.923 437.845 167.491C441.943 168.23 447.692 166.866 449.115 170.789C449.798 172.722 448.716 174.996 449.342 176.929C450.31 179.829 454.237 180.284 457.197 179.715C460.214 179.147 463.515 178.067 466.134 179.659C469.549 181.762 469.663 187.278 473.248 189.154C474.615 189.836 476.151 189.836 477.688 189.836C483.892 189.836 486.738 194.555 492.942 194.555C495.731 194.555 502.106 189.722 504.44 188.187C506.717 186.595 507.741 182.899 505.692 181.023C503.7 179.204 500.057 180.057 498.407 177.896C495.845 174.428 502.277 170.107 501.196 165.956C500.854 164.534 499.659 163.454 499.374 161.976C499.09 160.27 500.171 158.678 500.627 156.972C502.277 151.514 497.667 146.34 493.284 142.758C488.844 139.176 483.722 135.082 483.722 129.397C483.722 122.687 491.121 117.968 491.804 111.259C492.544 104.152 485.486 97.9543 486.112 90.8471C486.454 86.526 489.641 82.7734 490.096 78.4522C490.609 73.4487 487.478 68.8433 484.518 64.8064C482.299 61.793 480.022 58.6658 476.891 56.5621C472.679 53.6623 469.435 55.5955 465.28 54.5152C461.58 53.5486 458.962 50.2509 454.807 49.5117C447.18 48.2609 438.642 50.9332 433.064 56.2778Z" fill="#333333"/>
<path d="M507.001 393.386L529.769 416.356L538.25 409.534L513.035 386.961C513.092 386.961 507.912 390.031 507.001 393.386Z" fill="#9E7251"/>
<path d="M517.304 458.602C517.304 458.602 523.736 453.541 532.672 441.715C541.608 429.889 551.057 416.3 550.829 412.604C550.601 408.908 535.973 397.139 533.298 401.289C530.623 405.44 535.575 410.898 525.5 414.764C516.848 418.062 522.256 428.638 517.531 441.033C512.807 453.428 510.872 458.431 517.304 458.602Z" fill="#05D9B2"/>
<path d="M491.007 336.074C493.227 344.887 493.91 354.382 498.691 361.546C506.034 372.462 518.897 375.59 530.623 377.978C527.264 388.724 520.776 397.707 514.458 406.463C509.79 412.945 504.952 419.484 498.691 423.862C496.585 415.504 494.422 407.089 490.666 399.583C487.307 392.874 482.697 387.075 478.769 380.82C466.987 362.171 460.897 339.713 454.977 317.652C451.904 306.167 429.478 216.047 459.986 236.8C480.648 250.901 475.753 275.862 491.007 336.074Z" fill="#333333"/>
<path d="M437.105 426.932L430.161 458.545L440.52 461.956L445.814 428.581C445.814 428.524 440.407 425.852 437.105 426.932Z" fill="#9E7251"/>
<path d="M387.87 470.997C387.87 470.997 395.611 473.612 410.41 474.749C425.209 475.829 441.772 476.398 444.789 474.181C447.806 471.963 449.741 453.314 444.789 453.314C439.837 453.314 437.902 460.478 429.193 454.11C421.737 448.652 415.76 458.943 402.783 461.672C389.805 464.401 384.512 465.481 387.87 470.997Z" fill="#2AF3CE"/>
<path d="M410.239 433.982C410.809 432.845 412.175 432.049 413.37 431.253C424.241 423.691 422.477 410.955 421.509 399.925C419.233 373.656 425.095 347.729 428.34 321.802C431.47 296.501 430.559 270.858 426.291 245.784C424.754 236.687 422.705 222.586 436.479 226.111C442.968 227.76 449.513 227.931 456.173 227.191C459.645 226.793 456.23 225.429 459.645 226.793C471.427 231.399 462.434 243.225 459.417 250.958C453.498 266.423 459.133 296.444 457.254 313.046C454.636 336.642 453.042 356.201 454.409 379.854C455.035 391.453 455.945 402.995 456.742 414.594C457.198 421.36 461.865 436.37 457.767 442.17C452.075 450.187 429.535 441.658 421.851 440.976C416.102 440.464 408.304 437.792 410.239 433.982Z" fill="#474448"/>
<path d="M408.589 165.387C397.888 173.461 383.43 187.846 373.128 171.13C367.721 162.374 363.907 152.822 358.898 143.895C355.312 134.627 351.043 124.848 351.385 114.727C351.726 104.379 351.1 90.3923 350.133 87.8906C349.165 85.332 337.269 74.1879 337.098 78.8502C336.927 83.5125 343.758 100.513 334.878 92.4392C332.203 89.9943 333.797 94.4861 334.708 99.8875C335.618 105.289 342.79 112.396 342.79 112.396C349.905 142.36 347.856 177.896 381.04 192.565C390.261 196.659 404.718 183.468 412.118 178.919C414.736 177.327 440.634 159.531 441.317 160.213C438.243 157.2 435.227 154.243 432.153 151.23C431.413 150.491 430.616 149.752 429.592 149.581C428.396 149.41 427.258 150.093 426.29 150.775C421.452 154.186 417.183 158.394 412.573 162.147C411.321 163.284 409.955 164.364 408.589 165.387Z" fill="#9E7251"/>
<path d="M424.526 232.024C424.526 230.887 422.647 202.004 426.746 183.525C430.844 164.989 426.746 149.069 440.805 137.982C454.864 126.895 466.361 141.678 470.118 149.467C473.875 157.257 470.459 197 471.029 210.077C471.541 223.439 471.029 221.051 473.988 235.436C475.867 244.647 493.512 266.253 471.256 259.771C463.686 257.553 447.863 256.644 441.374 254.313C435.568 252.266 428.738 250.844 424.127 246.068C422.647 244.59 424.526 232.024 424.526 232.024Z" fill="#E0E0E0"/>
<path d="M416.614 152.822C416.614 152.822 442.626 125.132 452.644 137.698C462.605 150.263 427.315 176.19 427.315 176.19L411.264 155.38L416.614 152.822Z" fill="#F2F2F2"/>
<path d="M126.284 135.55C125.79 135.55 125.346 135.155 125.346 134.611V131.846C125.346 131.352 125.741 130.908 126.284 130.908C126.778 130.908 127.223 131.303 127.223 131.846V134.611C127.173 135.155 126.778 135.55 126.284 135.55Z" fill="#333333"/>
<path fill-rule="evenodd" clip-rule="evenodd" d="M169.024 2.34728L169.024 2.34728C168.04 2.33438 167.007 2.32086 165.947 2.32086C165.453 2.32086 165.009 1.87643 165.009 1.38263C165.009 0.888822 165.503 0.493777 165.947 0.444397C167.039 0.444397 168.076 0.45808 169.059 0.47104C169.943 0.482701 170.783 0.493777 171.578 0.493777C172.072 0.493777 172.516 0.938202 172.467 1.43201C172.516 1.97519 172.072 2.37024 171.578 2.37024C170.778 2.37024 169.921 2.35902 169.024 2.34728ZM142.436 1.62954C142.485 2.12334 142.88 2.51839 143.374 2.51839L143.522 2.51458C145.397 2.4665 147.224 2.41962 149.005 2.41962C149.499 2.41962 149.894 1.9752 149.894 1.48139C149.894 0.987589 149.548 0.592545 148.956 0.592545C147.128 0.592545 145.202 0.641925 143.325 0.691306C142.831 0.691306 142.436 1.13573 142.436 1.62954ZM132.607 5.23431C132.31 5.23431 132.014 5.08617 131.816 4.78988C131.52 4.34546 131.668 3.80227 132.113 3.50599C133.693 2.469 135.521 1.72829 137.595 1.28386C138.089 1.1851 138.583 1.48139 138.682 1.97519C138.781 2.469 138.484 2.9628 137.99 3.06156C136.163 3.50599 134.484 4.14794 133.1 5.03679C132.952 5.18493 132.755 5.23431 132.607 5.23431ZM126.383 14.4191H126.58C127.025 14.4191 127.371 14.1228 127.519 13.6784C127.914 11.8513 128.606 10.2217 129.495 8.7897C129.742 8.34527 129.643 7.80208 129.198 7.5058C128.754 7.2589 128.21 7.35766 127.914 7.80208C126.877 9.43164 126.136 11.2587 125.691 13.3327C125.543 13.8265 125.889 14.3203 126.383 14.4191ZM126.284 25.6285C125.79 25.6285 125.346 25.2334 125.346 24.6902V19.9991C125.346 19.9991 125.296 19.6534 125.247 19.1102C125.197 18.6164 125.593 18.172 126.136 18.1226C126.63 18.0732 127.074 18.4683 127.124 19.0115C127.173 19.5547 127.223 19.8509 127.223 19.8509V24.6902C127.173 25.2334 126.778 25.6285 126.284 25.6285ZM125.346 35.9984C125.346 36.5416 125.79 36.9366 126.284 36.9366C126.778 36.9366 127.173 36.5416 127.223 35.9984V30.369C127.223 29.8258 126.778 29.4308 126.284 29.4308C125.741 29.4308 125.346 29.8752 125.346 30.369V35.9984ZM126.284 48.1954C125.79 48.1954 125.346 47.8003 125.346 47.2571V41.6278C125.346 41.134 125.741 40.6895 126.284 40.6895C126.778 40.6895 127.223 41.0846 127.223 41.6278V47.2571C127.173 47.8003 126.778 48.1954 126.284 48.1954ZM125.346 58.5653C125.346 59.1085 125.79 59.5035 126.284 59.5035C126.778 59.5035 127.173 59.0591 127.223 58.5653V52.9359C127.223 52.3927 126.778 51.9977 126.284 51.9977C125.741 51.9977 125.346 52.4421 125.346 52.9359V58.5653ZM126.284 70.7623C125.79 70.7623 125.346 70.3672 125.346 69.824V64.1947C125.346 63.7008 125.741 63.2564 126.284 63.2564C126.778 63.2564 127.223 63.6515 127.223 64.1947V69.824C127.173 70.3672 126.778 70.7623 126.284 70.7623ZM125.346 81.0828C125.346 81.626 125.79 82.021 126.284 82.021C126.778 82.021 127.173 81.626 127.223 81.0828V75.4534C127.223 74.9102 126.778 74.5152 126.284 74.5152C125.741 74.5152 125.346 74.9596 125.346 75.4534V81.0828ZM126.284 93.3292C125.79 93.3292 125.346 92.9341 125.346 92.3909V86.7615C125.346 86.2677 125.741 85.8233 126.284 85.8233C126.778 85.8233 127.223 86.2184 127.223 86.7615V92.3909C127.173 92.8847 126.778 93.3292 126.284 93.3292ZM125.346 103.65C125.346 104.193 125.79 104.588 126.284 104.588C126.778 104.588 127.173 104.193 127.223 103.65V98.0203C127.223 97.4771 126.778 97.0821 126.284 97.0821C125.741 97.0821 125.346 97.5265 125.346 98.0203V103.65ZM126.284 115.896C125.79 115.896 125.346 115.501 125.346 114.958V109.328C125.346 108.835 125.741 108.39 126.284 108.39C126.778 108.39 127.223 108.785 127.223 109.328V114.958C127.173 115.452 126.778 115.896 126.284 115.896ZM126.284 127.155C125.79 127.155 125.346 126.76 125.346 126.217V120.587C125.346 120.093 125.741 119.649 126.284 119.649C126.778 119.649 127.223 120.044 127.223 120.587V126.217C127.173 126.76 126.778 127.155 126.284 127.155ZM153.747 1.38263C153.747 1.92581 154.191 2.32086 154.685 2.32086H160.316C160.859 2.32086 161.255 1.87643 161.255 1.38263C161.255 0.839441 160.81 0.444397 160.316 0.444397H154.685C154.142 0.444397 153.747 0.888822 153.747 1.38263Z" fill="#333333"/>
<path d="M180.024 2.51837V2.51837C179.975 2.51837 178.987 2.46899 177.258 2.46899C176.764 2.46899 176.32 2.02456 176.369 1.53076C176.369 1.03695 176.863 0.641907 177.307 0.641907C179.086 0.691287 180.073 0.691287 180.073 0.691287C180.567 0.691287 180.963 1.13571 180.963 1.62952C180.963 2.12332 180.518 2.51837 180.024 2.51837Z" fill="#333333"/>
<path d="M408.815 237.57C408.321 237.57 407.876 237.175 407.876 236.681C407.827 234.903 407.827 233.916 407.827 233.916C407.827 233.422 408.222 232.977 408.716 232.977C409.21 232.977 409.654 233.372 409.654 233.866C409.654 233.866 409.704 234.854 409.704 236.632C409.753 237.125 409.358 237.57 408.815 237.57C408.864 237.57 408.815 237.57 408.815 237.57Z" fill="#333333"/>
<path fill-rule="evenodd" clip-rule="evenodd" d="M408.024 247.594C408.024 248.137 408.469 248.532 408.963 248.532C409.456 248.532 409.901 248.137 409.901 247.594C409.901 246.566 409.888 245.579 409.875 244.631C409.863 243.758 409.852 242.918 409.852 242.113C409.852 241.57 409.358 241.125 408.913 241.175C408.37 241.175 407.975 241.619 407.975 242.113C408.024 243.742 408.024 245.619 408.024 247.594ZM408.913 259.544C408.37 259.544 407.975 259.1 407.975 258.606C408.024 256.729 408.024 254.902 408.024 253.125C408.024 252.631 408.419 252.186 408.963 252.186C409.456 252.186 409.901 252.631 409.901 253.125C409.901 253.996 409.889 254.879 409.877 255.779V255.78C409.864 256.717 409.852 257.673 409.852 258.655C409.802 259.149 409.407 259.544 408.913 259.544ZM407.629 270.408C407.728 270.457 407.827 270.457 407.925 270.457C408.321 270.457 408.666 270.21 408.765 269.815C409.308 268.235 409.605 266.507 409.654 264.581V264.136C409.654 263.643 409.259 263.198 408.765 263.198C408.321 263.198 407.827 263.593 407.827 264.087V264.532C407.777 266.26 407.481 267.84 407.036 269.223C406.888 269.716 407.135 270.26 407.629 270.408ZM198.942 273.321C198.596 273.321 198.25 273.124 198.102 272.729C197.905 272.235 197.756 271.741 197.707 271.198V266.951C197.707 266.457 198.102 266.013 198.645 266.013C199.139 266.013 199.584 266.408 199.584 266.951V271.099C199.633 271.346 199.732 271.692 199.88 272.037C200.078 272.531 199.831 273.074 199.386 273.222C199.275 273.245 199.194 273.267 199.129 273.285C199.05 273.306 198.996 273.321 198.942 273.321ZM399.578 277.321C399.726 277.667 400.072 277.914 400.467 277.914C400.566 277.914 400.665 277.914 400.714 277.864C402.69 277.173 404.369 276.136 405.703 274.803C406.048 274.457 406.048 273.864 405.703 273.519C405.357 273.173 404.764 273.173 404.418 273.519C403.282 274.655 401.85 275.543 400.121 276.136C399.677 276.333 399.43 276.827 399.578 277.321ZM208.129 278.457H207.981C205.857 278.111 203.98 277.568 202.449 276.877C202.004 276.679 201.807 276.136 202.004 275.642C202.202 275.198 202.745 275 203.239 275.198C204.622 275.84 206.301 276.333 208.277 276.63C208.771 276.729 209.117 277.173 209.068 277.667C208.969 278.111 208.574 278.457 208.129 278.457ZM213.612 278.852H219.094C219.638 278.852 220.033 278.407 220.033 277.914C220.033 277.37 219.588 276.975 219.094 276.975H213.612C213.068 276.975 212.673 277.42 212.673 277.914C212.673 278.457 213.118 278.852 213.612 278.852ZM230.109 278.852H224.626C224.132 278.852 223.688 278.457 223.688 277.914C223.688 277.42 224.083 276.975 224.626 276.975H230.109C230.603 276.975 231.048 277.37 231.048 277.914C231.048 278.407 230.603 278.852 230.109 278.852ZM235.641 278.852H241.124C241.618 278.852 242.013 278.407 242.062 277.914C242.062 277.37 241.618 276.975 241.124 276.975H235.641C235.098 276.975 234.703 277.42 234.703 277.914C234.703 278.457 235.147 278.852 235.641 278.852ZM252.089 278.852H246.606C246.113 278.852 245.668 278.457 245.668 277.914C245.668 277.42 246.063 276.975 246.606 276.975H252.089C252.583 276.975 253.028 277.37 253.028 277.914C253.028 278.407 252.632 278.852 252.089 278.852ZM257.621 278.852H263.104C263.598 278.852 264.042 278.407 264.042 277.914C264.042 277.37 263.598 276.975 263.104 276.975H257.621C257.078 276.975 256.683 277.42 256.683 277.914C256.683 278.457 257.127 278.852 257.621 278.852ZM274.119 278.852H268.636C268.142 278.852 267.697 278.457 267.697 277.914C267.697 277.42 268.093 276.975 268.636 276.975H274.119C274.612 276.975 275.057 277.37 275.057 277.914C275.008 278.407 274.612 278.852 274.119 278.852ZM279.601 278.852H285.084C285.627 278.852 286.022 278.407 286.022 277.914C286.022 277.37 285.578 276.975 285.084 276.975H279.601C279.058 276.975 278.663 277.42 278.663 277.914C278.663 278.457 279.107 278.852 279.601 278.852ZM296.099 278.852H290.616C290.122 278.852 289.677 278.457 289.677 277.914C289.677 277.42 290.073 276.975 290.616 276.975H296.099C296.593 276.975 297.037 277.37 297.037 277.914C297.037 278.407 296.593 278.852 296.099 278.852ZM301.581 278.852H307.064C307.607 278.852 308.003 278.407 308.003 277.914C308.003 277.37 307.558 276.975 307.064 276.975H301.581C301.038 276.975 300.643 277.42 300.643 277.914C300.643 278.457 301.087 278.852 301.581 278.852ZM318.079 278.852H312.596C312.102 278.852 311.658 278.457 311.658 277.914C311.658 277.42 312.053 276.975 312.596 276.975H318.079C318.573 276.975 319.017 277.37 319.017 277.914C319.017 278.407 318.573 278.852 318.079 278.852ZM323.611 278.852H329.094C329.587 278.852 329.983 278.407 330.032 277.914C330.032 277.37 329.587 276.975 329.094 276.975H323.611C323.067 276.975 322.672 277.42 322.672 277.914C322.672 278.457 323.117 278.852 323.611 278.852ZM340.059 278.852H334.576C334.082 278.852 333.638 278.457 333.638 277.914C333.638 277.42 334.033 276.975 334.576 276.975H340.059C340.553 276.975 340.997 277.37 340.997 277.914C340.997 278.407 340.602 278.852 340.059 278.852ZM345.591 278.852H351.074C351.568 278.852 352.012 278.407 352.012 277.914C352.012 277.37 351.568 276.975 351.074 276.975H345.591C345.048 276.975 344.652 277.42 344.652 277.914C344.652 278.457 345.097 278.852 345.591 278.852ZM362.088 278.852H356.606C356.112 278.852 355.667 278.457 355.667 277.914C355.667 277.42 356.062 276.975 356.606 276.975H362.088C362.582 276.975 363.027 277.37 363.027 277.914C362.977 278.407 362.582 278.852 362.088 278.852ZM367.571 278.852H373.054C373.597 278.852 373.992 278.407 373.992 277.914C373.992 277.37 373.548 276.975 373.054 276.975H367.571C367.028 276.975 366.633 277.42 366.633 277.914C366.633 278.457 367.077 278.852 367.571 278.852ZM384.068 278.852H378.586C378.092 278.852 377.647 278.457 377.647 277.914C377.647 277.42 378.042 276.975 378.586 276.975H384.068C384.562 276.975 385.007 277.37 385.007 277.914C385.007 278.407 384.562 278.852 384.068 278.852ZM394.145 278.951C393.071 278.951 392.308 278.882 392.058 278.859C392.009 278.855 391.979 278.852 391.971 278.852H389.551C389.057 278.852 388.613 278.457 388.613 277.914C388.613 277.42 389.008 276.975 389.551 276.975H392.07C392.101 276.975 392.173 276.982 392.283 276.991C392.708 277.028 393.69 277.113 394.984 277.074C395.478 277.074 395.923 277.469 395.972 277.963C395.972 278.457 395.577 278.901 395.083 278.951H394.145Z" fill="#333333"/>
<path d="M198.547 262.309C198.053 262.309 197.608 261.914 197.608 261.371V258.606C197.608 258.112 198.004 257.668 198.547 257.668C199.041 257.668 199.485 258.063 199.485 258.606V261.371C199.485 261.914 199.09 262.309 198.547 262.309Z" fill="#333333"/>
<defs>
<clipPath id="clip0">
<rect width="364" height="227" fill="white" transform="translate(103 99)"/>
</clipPath>
</defs>
</svg>
