<svg width="370" height="309" viewBox="0 0 370 309" fill="none" xmlns="http://www.w3.org/2000/svg">
<path d="M269.075 142.362C269.075 142.362 289.346 174.849 308.719 192.747C328.092 210.644 350.641 228.98 336.985 262.65C323.328 296.319 283.078 310.108 211.1 308.349C139.122 306.589 113.708 306.206 97.922 270.498C82.1364 234.791 134.674 226.783 170.561 215.927C206.448 205.071 269.075 142.362 269.075 142.362Z" fill="#E3E5FC"/>
<path opacity="0.49" d="M272.537 213.282C272.537 213.282 282.41 251.39 247.211 260.436C212.012 269.485 146.333 268.152 121.607 250.546C96.8812 232.94 272.537 213.282 272.537 213.282Z" fill="url(#paint0_linear)"/>
<path d="M243.827 15.0804C243.827 15.0804 248.011 24.3769 241.474 30.0998C234.938 35.8228 226.051 31.2932 217.426 36.5348C208.801 41.7763 209.73 47.9875 213.687 61.8169C218.393 78.267 223.532 77.7754 228.153 78.9654C232.775 80.1588 234.154 93.0321 234.677 98.9924C235.199 104.953 235.982 109.004 219.515 117.111C203.048 125.217 212.032 137.616 213.683 153.686C215.511 171.462 194.419 181.714 190.761 186.007C187.103 190.299 178.474 191.014 173.768 181.955C169.062 172.896 192.975 166.227 190.886 151.686C188.794 137.144 176.026 127.36 194.063 113.056C212.1 98.7517 208.537 87.3125 202.526 75.6327C196.514 63.9528 193.639 59.4232 198.603 44.4039C203.566 29.3845 198.342 33.914 204.875 21.9934C211.415 10.0762 235.202 -3.03778 243.827 15.0804Z" fill="#9E7251"/>
<path d="M232.453 85.6377L233.765 110.113L252.924 117.501C252.924 117.501 241.403 100.644 243.356 85.6343C245.309 70.6285 232.453 85.6377 232.453 85.6377Z" fill="#D4A79A"/>
<path d="M276.853 165.037C276.853 165.037 275.582 162.708 271.771 150.747C267.96 138.785 266.584 134.337 261.291 122.762C255.999 111.188 244.987 103.956 244.987 103.956L231.225 103.213C231.225 103.213 229.53 103.319 221.593 109.882C213.653 116.446 206.031 135.185 206.031 135.185L202.644 172.448L226.465 190.021L243.302 196.09C242.491 195.008 241.837 193.862 241.43 192.648C238.609 184.264 248.062 137.829 248.381 133.7C248.699 129.57 256.697 168.953 256.697 168.953L263.624 166.942L268.377 182.087L271.35 166.624L276.853 165.037Z" fill="#E0E0E0"/>
<path d="M269.337 185.152L268.374 182.087L266.838 190.075L269.337 185.152Z" fill="url(#paint1_linear)"/>
<path d="M256.691 168.953C256.691 168.953 248.693 129.57 248.374 133.7C248.055 137.829 238.603 184.264 241.424 192.648C241.831 193.862 242.485 195.008 243.295 196.09L260.617 202.331L266.838 190.072L268.374 182.084L263.621 166.939L256.691 168.953Z" fill="#FDC510"/>
<path d="M256.691 168.953C256.691 168.953 248.693 129.57 248.374 133.7C248.055 137.829 238.603 184.264 241.424 192.648C241.831 193.862 242.485 195.008 243.295 196.09L260.617 202.331L266.838 190.072L268.374 182.084L263.621 166.939L256.691 168.953Z" fill="#F2F2F2"/>
<path d="M116.322 154.144L213.579 158.836L232.453 177.117L141.611 174.828L116.322 154.144Z" fill="black"/>
<path d="M208.032 161.786L120.228 155.856C117.854 156.039 115.796 154.442 115.63 152.282L97.9358 104.81C97.7696 102.654 99.5564 100.755 101.926 100.572L189.73 106.505C192.104 106.322 194.162 107.919 194.328 110.079L212.022 157.551C212.192 159.704 210.402 161.603 208.032 161.786Z" fill="#E3E5FC"/>
<path d="M163.982 135.163C165.026 130.363 161.332 125.486 155.733 124.269C150.134 123.052 144.749 125.956 143.706 130.755C142.663 135.555 146.356 140.432 151.955 141.649C157.554 142.866 162.939 139.962 163.982 135.163Z" fill="#A7ADFF"/>
<path d="M76.3122 238.442L51.4844 274.804L62.7879 284.355L86.4392 244.877C86.4392 244.874 81.018 238.775 76.3122 238.442Z" fill="#D4A79A"/>
<path d="M1.20156 295.085C1.20156 295.085 10.7523 298.347 29.0536 299.703C47.3548 301.063 67.7819 301.741 71.4944 299.025C75.2068 296.309 77.5937 273.217 71.4944 273.217C65.3951 273.217 63.0218 282.046 52.2641 274.167C43.0491 267.417 35.6851 280.144 19.6385 283.538C3.59178 286.932 -2.90758 288.295 1.20156 295.085Z" fill="#05D9B2"/>
<path d="M230.856 199.124C228.662 194.998 216.789 197.324 202.56 192.031C188.327 186.739 179.136 175.622 162.967 162.813C146.798 150.004 147.903 152.225 140.926 151.696C133.949 151.167 125.31 170.011 120.435 179.965C110.172 200.924 97.1833 219.653 77.7801 231.838C71.8843 235.54 45.9072 249.624 41.5675 255.523C32.427 267.939 77.3665 268.044 89.1176 269.478C100.75 270.895 107.273 264.287 111.979 253.845C117.349 241.934 123.225 230.278 129.094 218.622C132.03 212.791 134.979 206.963 137.858 201.101C139.099 198.575 141.784 189.407 144.778 188.265C153.986 184.759 166.14 212.828 168.724 219.134C173.928 231.838 192.979 246.661 206.822 248.142C220.664 249.624 231.076 240.416 235.616 226.969C240.159 213.523 230.856 199.124 230.856 199.124Z" fill="#333333"/>
<path d="M123.672 241.199L98.8442 277.561L110.148 287.111L133.799 247.634C133.796 247.63 128.378 241.531 123.672 241.199Z" fill="#EAC2AB"/>
<path d="M48.5615 297.842C48.5615 297.842 58.1122 301.103 76.4135 302.46C94.7148 303.819 115.142 304.497 118.854 301.781C122.567 299.066 124.954 275.974 118.854 275.974C112.755 275.974 110.382 284.802 99.6241 276.923C90.409 270.173 83.0451 282.9 66.9984 286.294C50.9517 289.688 44.449 291.051 48.5615 297.842Z" fill="#2AF3CE"/>
<path d="M266.794 199.124C264.698 194.998 253.347 197.324 239.745 192.031C226.143 186.739 217.355 175.622 201.898 162.813C186.442 150.004 187.499 152.225 180.83 151.696C174.162 151.167 165.903 170.011 161.244 179.965C146.913 210.584 117.42 231.133 90.5784 250.037C88.9104 251.21 87.0389 252.841 87.3847 254.852C87.561 255.876 88.2933 256.703 89.0426 257.425C99.0002 267.037 117.654 271.36 131.06 270.732C144.557 270.102 151.883 258.839 156.982 247.701C166.103 227.776 175.013 207.244 186.092 188.332C190.256 181.233 203.526 209.895 204.678 212.564C211.551 228.498 225.194 246.057 243.824 248.142C257.056 249.624 267.007 240.416 271.35 226.969C275.687 213.523 266.794 199.124 266.794 199.124Z" fill="#474448"/>
<path d="M215.335 33.5377C215.335 33.5377 205.102 41.0847 209.174 58.0366C213.246 74.9885 225.909 89.4654 231.019 88.4449C245.146 85.6241 250.1 75.6395 254.999 67.072C261.007 56.5652 249.079 30.9339 249.079 30.9339L237.813 24.8583L215.335 33.5377Z" fill="#EAC2AB"/>
<path d="M235.724 26.0483C235.724 26.0483 242.834 28.4318 249.083 38.4436C255.331 48.4554 251.232 50.0895 251.232 63.5121C251.232 67.4347 250.496 71.2998 248.371 74.6427C246.828 77.0702 244.628 78.9824 243.031 81.3624C241.013 84.3663 240.369 87.7567 240.532 91.3403C240.874 98.9178 242.085 105.21 248.815 109.489C256.09 114.114 259.484 120.291 261.396 128.638C263.685 138.633 280.162 144.288 285.912 140.474C291.662 136.66 274.51 139.206 277.911 122.759C281.308 106.309 282.474 99.3281 272.541 94.7578C262.607 90.1876 267.353 88.9806 272.581 78.9688C277.809 68.957 264.332 69.0791 269.652 51.6525C275.792 31.5374 270.228 9.12016 240.166 15.3178C210.103 21.5154 235.724 26.0483 235.724 26.0483Z" fill="#9E7251"/>
<path d="M228.404 45.1904C237.03 39.9455 234.941 35.8194 241.478 30.0998C248.011 24.3769 243.831 15.0804 243.831 15.0804C235.206 -3.03777 211.419 10.0728 204.882 21.9934C198.345 33.914 203.577 29.3845 198.61 44.4039C195.185 54.7547 195.491 60.1251 197.979 66.2888L212.039 71.9812C206.347 50.3845 221.915 49.1334 228.404 45.1904Z" fill="#9E7251"/>
<path d="M263.407 184.515C263.407 184.515 263.407 190.336 261.183 189.278C258.959 188.22 238.104 175.198 235.351 172.13C232.598 169.058 226.14 157.944 225.824 155.72C225.506 153.496 226.567 153.391 222.224 154.025C217.884 154.659 210.049 157.097 211.215 158.47C212.378 159.846 215.66 158.894 215.66 158.894C215.66 158.894 211.815 161.328 213.683 161.647C215.551 161.965 221.057 160.904 221.057 162.599C221.057 164.295 220.739 170.011 222.01 172.869C223.282 175.727 224.868 176.68 228.998 177.632C233.127 178.585 233.856 178.266 237.25 181.762C240.644 185.257 259.592 202.087 262.027 202.935C264.461 203.782 265.519 205.264 268.485 199.863C271.452 194.462 273.568 190.336 273.778 181.867C273.988 173.398 273.035 165.247 273.035 165.247L263.613 166.942C263.62 166.942 264.464 176.469 263.407 184.515Z" fill="#EAC2AB"/>
<path d="M293.886 76.9752C295.575 69.2384 299.345 61.5253 302.111 54.0969C303.583 50.1505 306.814 44.8276 307.143 40.5998C307.251 39.2132 308.573 38.1859 310.096 38.3045L366.491 34.4937C368.014 34.6124 369.163 35.8296 369.054 37.2162L357.69 67.7059C357.581 69.0926 356.259 70.1199 354.737 70.0012L309.255 72.9068C306.468 74.5986 302.047 76.2904 299.257 77.9754C296.161 79.8435 292.337 84.0747 293.886 76.9752Z" fill="#E3E5FC"/>
<path d="M334.7 57.5619L353.025 56.7652C354.259 56.7109 355.222 55.6599 355.168 54.4258V54.4258C355.113 53.1917 354.062 52.2288 352.828 52.2831L334.503 53.0798C333.269 53.1341 332.306 54.1851 332.361 55.4192V55.4192C332.415 56.6499 333.466 57.6127 334.7 57.5619Z" fill="white"/>
<path d="M321.521 49.9708L354.72 48.5299C355.954 48.4757 356.917 47.4247 356.863 46.1906V46.1906C356.808 44.9565 355.757 43.9936 354.523 44.0478L321.325 45.4888C320.09 45.543 319.128 46.594 319.182 47.8281V47.8281C319.236 49.0588 320.287 50.0251 321.521 49.9708Z" fill="white"/>
<path d="M128.788 83.9052C126.835 74.9478 122.472 66.0209 119.265 57.4229C117.563 52.8561 113.82 46.6957 113.44 41.8C113.315 40.1964 111.786 39.0063 110.023 39.1454L44.7441 34.7345C42.9811 34.8701 41.652 36.2805 41.7775 37.8841L54.9322 73.178C55.0576 74.7817 56.5867 75.9717 58.3497 75.8327L110.996 79.1993C114.223 81.1556 119.336 83.1186 122.57 85.0681C126.154 87.2278 130.582 92.1269 128.788 83.9052Z" fill="#E3E5FC"/>
<path d="M81.5469 61.4337L60.3367 60.5115C58.9093 60.4505 57.7939 59.23 57.8549 57.8026V57.8026C57.916 56.3753 59.1365 55.2598 60.5638 55.3209L81.7741 56.2431C83.2014 56.3041 84.3169 57.5246 84.2558 58.952V58.952C84.1914 60.3793 82.9743 61.4948 81.5469 61.4337Z" fill="white"/>
<path d="M96.8001 52.6493L58.3701 50.9812C56.9428 50.9202 55.8273 49.6996 55.8884 48.2723V48.2723C55.9494 46.8449 57.1699 45.7295 58.5973 45.7905L97.0273 47.4586C98.4546 47.5196 99.5701 48.7401 99.509 50.1675V50.1675C99.4446 51.5948 98.2275 52.7103 96.8001 52.6493Z" fill="white"/>
<g opacity="0.72">
<path d="M164.628 31.656C163.37 25.889 160.56 20.1423 158.498 14.6058C157.403 11.6663 154.993 7.69956 154.748 4.5465C154.667 3.51244 153.684 2.7496 152.548 2.83775L110.517 0C109.382 0.08815 108.527 0.996773 108.605 2.02745L117.074 24.7498C117.156 25.7839 118.139 26.5467 119.275 26.4586L153.172 28.625C155.25 29.8862 158.542 31.1474 160.624 32.4019C162.933 33.7953 165.781 36.9484 164.628 31.656Z" fill="#E3E5FC"/>
<path d="M134.21 17.1858L120.553 16.5925C119.635 16.5518 118.916 15.7687 118.956 14.8499V14.8499C118.997 13.9311 119.78 13.2123 120.699 13.253L134.356 13.8463C135.274 13.887 135.993 14.6702 135.952 15.589V15.589C135.912 16.5078 135.129 17.2265 134.21 17.1858Z" fill="white"/>
<path d="M144.031 11.5307L119.288 10.4559C118.37 10.4152 117.651 9.63206 117.692 8.71326V8.71326C117.732 7.79447 118.515 7.07571 119.434 7.11639L144.177 8.19114C145.096 8.23183 145.815 9.01501 145.774 9.9338V9.9338C145.733 10.8526 144.95 11.5714 144.031 11.5307Z" fill="white"/>
</g>
<path d="M167.188 64.5325L145.977 63.6104C144.55 63.5493 143.435 62.3288 143.496 60.9014V60.9014C143.557 59.4741 144.777 58.3587 146.204 58.4197L167.415 59.3419C168.842 59.4029 169.957 60.6234 169.896 62.0508V62.0508C169.832 63.4781 168.612 64.5936 167.188 64.5325Z" fill="#E3E5FC"/>
<path d="M169.303 74.8969L148.093 73.9747C146.666 73.9137 145.55 72.6932 145.611 71.2658V71.2658C145.672 69.8385 146.893 68.723 148.32 68.7841L169.53 69.7063C170.958 69.7673 172.073 70.9878 172.012 72.4152V72.4152C171.948 73.8425 170.731 74.9613 169.303 74.8969Z" fill="#E3E5FC"/>
<path d="M173.063 85.5394L151.853 84.6172C150.425 84.5561 149.31 83.3356 149.371 81.9083V81.9083C149.432 80.4809 150.653 79.3655 152.08 79.4265L173.29 80.3487C174.718 80.4097 175.833 81.6302 175.772 83.0576V83.0576C175.711 84.4849 174.49 85.6004 173.063 85.5394Z" fill="#E3E5FC"/>
<defs>
<linearGradient id="paint0_linear" x1="284.855" y1="257.079" x2="283.073" y2="201.562" gradientUnits="userSpaceOnUse">
<stop stop-color="#A7ADFF"/>
<stop offset="1" stop-color="#E3E5FC"/>
</linearGradient>
<linearGradient id="paint1_linear" x1="279.683" y1="152.259" x2="236.72" y2="137.067" gradientUnits="userSpaceOnUse">
<stop stop-color="#A7ADFF"/>
<stop offset="1" stop-color="#E3E5FC"/>
</linearGradient>
</defs>
</svg>
